<?xml version="1.0" standalone="no"?>
<!DOCTYPE svg PUBLIC "-//W3C//DTD SVG 1.1//EN" "http://www.w3.org/Graphics/SVG/1.1/DTD/svg11.dtd" >
<svg xmlns="http://www.w3.org/2000/svg" xmlns:xlink="http://www.w3.org/1999/xlink" version="1.1">
<metadata>
Created by FontForge 20150318 at Mon Aug 17 11:22:50 2015
 By uniteet7
Copyright (c) 2011 by team scope. All rights reserved.
</metadata>
<defs>
<font id="ClaireHand-Light" horiz-adv-x="167" >
  <font-face 
    font-family="Claire Hand"
    font-weight="300"
    font-stretch="normal"
    units-per-em="1000"
    panose-1="2 0 5 6 4 0 0 2 0 4"
    ascent="714"
    descent="-286"
    x-height="716"
    cap-height="717"
    bbox="-177 -269.545 1019.05 926"
    underline-thickness="50"
    underline-position="-50"
    unicode-range="U+0020-FB02"
  />
<missing-glyph horiz-adv-x="514" 
d="M484 730q10 -76 8.5 -160.5t0.5 -172.5q3 -106 5.5 -211.5t12.5 -190.5q-10 -5 -19.5 -5t-19.5 1.5t-20.5 4t-21.5 2.5q-33 2 -67.5 0t-70 -5t-71 -5t-70.5 1q-27 2 -56.5 0.5t-57.5 -3.5q-10 56 -13 126t-3 144t1 148t-1 139q-1 32 -2 62t-10 59q-3 9 -10 20t-5 19
q2 10 13.5 15t26.5 8t30.5 4t26.5 3q46 7 98.5 10.5t104.5 3t101 -4.5t89 -12zM64 691q29 -47 57 -93.5t58 -94.5q9 -15 17 -31t16 -31.5t18 -30t24 -25.5q41 78 78.5 157.5t78.5 157.5q-40 9 -84.5 11t-89.5 0t-89 -7.5t-84 -12.5zM284 352q45 -60 88.5 -119.5t84.5 -122.5
q-1 131 -5.5 271t-6.5 283q-24 -36 -44 -74.5t-39 -78.5t-38 -80.5t-40 -78.5zM73 71q49 57 86.5 127.5t73.5 141.5q-24 31 -44.5 66t-40.5 71t-40 71t-44 67q2 -67 1.5 -137l-1 -140t1 -138t7.5 -129zM103 29q82 -12 171 -6.5t180 9.5q-45 72 -89.5 143t-101.5 132
q-35 -75 -77.5 -142t-82.5 -136z" />
    <glyph glyph-name=".notdef" horiz-adv-x="514" 
d="M484 730q10 -76 8.5 -160.5t0.5 -172.5q3 -106 5.5 -211.5t12.5 -190.5q-10 -5 -19.5 -5t-19.5 1.5t-20.5 4t-21.5 2.5q-33 2 -67.5 0t-70 -5t-71 -5t-70.5 1q-27 2 -56.5 0.5t-57.5 -3.5q-10 56 -13 126t-3 144t1 148t-1 139q-1 32 -2 62t-10 59q-3 9 -10 20t-5 19
q2 10 13.5 15t26.5 8t30.5 4t26.5 3q46 7 98.5 10.5t104.5 3t101 -4.5t89 -12zM64 691q29 -47 57 -93.5t58 -94.5q9 -15 17 -31t16 -31.5t18 -30t24 -25.5q41 78 78.5 157.5t78.5 157.5q-40 9 -84.5 11t-89.5 0t-89 -7.5t-84 -12.5zM284 352q45 -60 88.5 -119.5t84.5 -122.5
q-1 131 -5.5 271t-6.5 283q-24 -36 -44 -74.5t-39 -78.5t-38 -80.5t-40 -78.5zM73 71q49 57 86.5 127.5t73.5 141.5q-24 31 -44.5 66t-40.5 71t-40 71t-44 67q2 -67 1.5 -137l-1 -140t1 -138t7.5 -129zM103 29q82 -12 171 -6.5t180 9.5q-45 72 -89.5 143t-101.5 132
q-35 -75 -77.5 -142t-82.5 -136z" />
    <glyph glyph-name="space" unicode=" " horiz-adv-x="278" 
 />
    <glyph glyph-name="exclam" unicode="!" horiz-adv-x="259" 
d="M139 122q-16 -2 -25 2.5t-17 9.5q4 67 5 141t2.5 148.5t5.5 146.5t14 137q8 11 22 8t20 -11q8 -10 3.5 -27t-6.5 -33q-2 -19 0 -37.5t0 -40.5q-3 -46 -7.5 -98t-4.5 -103q0 -34 1 -67t1 -64t-3 -59.5t-11 -52.5zM142 2q-20 0 -34 7.5t-14 22.5q0 19 14 23t27.5 -2t19 -20
t-12.5 -31z" />
    <glyph glyph-name="quotedbl" unicode="&#x22;" horiz-adv-x="315" 
d="M84 689q6 3 12.5 5.5t17.5 0.5q3 -17 6.5 -44.5t1.5 -51.5t-11.5 -37.5t-32.5 -1.5q1 16 0.5 33.5l-1 35t0.5 33t6 27.5zM202 690q6 3 12.5 5.5t17.5 0.5q3 -17 6.5 -44.5t1.5 -51.5t-11.5 -37.5t-32.5 -1.5q1 16 0.5 33.5l-1 35t0.5 33t6 27.5z" />
    <glyph glyph-name="numbersign" unicode="#" horiz-adv-x="534" 
d="M276 437q9 -1 20 0t22.5 4t22.5 6.5t19 7.5q6 5 12.5 17t14 26t15.5 27t16 19.5t16.5 4t17.5 -18.5q-7 -18 -15.5 -33.5t-20.5 -29.5q14 -2 31.5 4.5t34.5 7.5q22 -17 18 -25.5t-20.5 -13t-39.5 -7t-38 -8.5t-24 -19t-16 -28.5t-14.5 -31t-17.5 -26.5q19 -3 45.5 3
t50 9.5t40.5 -2t19 -31.5q-19 -4 -42 -6t-47 -4t-47.5 -5t-42.5 -9q-13 -18 -23 -39.5t-20 -42.5t-21 -41t-26 -36q-28 7 -27.5 24.5t13 38.5t27.5 43t17 38q-29 4 -48 -2t-32 -18.5t-22.5 -30t-20.5 -36.5q-8 -13 -16.5 -29.5t-17.5 -27t-19 -11t-22 19.5q11 27 28 48
t26 51q-11 -2 -24.5 -7t-25.5 -6.5t-21.5 3.5t-12.5 22q12 9 27 14.5t31 10l32 9t30 11.5q14 19 25 39.5t23 41.5q-8 -1 -21 -5.5t-25.5 -6t-21 4t-7.5 25.5q52 16 102 36q26 34 46.5 72.5t46.5 71.5q26 -9 25.5 -24t-11.5 -32t-26 -34.5t-18 -32.5zM249 389
q-15 -23 -27.5 -46.5t-26.5 -46.5q15 -1 36.5 4.5t41.5 7.5q14 26 29.5 49t27.5 50q-24 -2 -42.5 -8t-38.5 -10z" />
    <glyph glyph-name="dollar" unicode="$" horiz-adv-x="456" 
d="M227 742q13 -5 31 -4.5t34.5 -1t28 -8t10.5 -24.5q-9 -2 -21.5 -1t-27 2t-29 0.5t-26.5 -4.5q-2 -27 -2 -61.5t1 -69t3 -65.5t4 -51q48 -7 88.5 -29.5t69 -56.5t42.5 -78.5t9 -95.5q-4 -42 -21.5 -81t-47.5 -69t-72 -46.5t-95 -13.5q-2 -19 1.5 -33.5t-4.5 -27.5
q-17 -6 -28 -0.5t-20 13.5v48q-15 9 -36 13t-40.5 9.5t-35 15t-19.5 29.5q13 12 27 8t30 -13t34.5 -17t39.5 -5q11 97 14 193t14 196q-23 10 -49 17t-49 16.5t-40 25t-21 43.5q-5 34 7 69t34 65t51.5 52.5t59.5 30.5q1 20 -2.5 35.5t-1.5 35.5q15 9 25.5 6t17 -13.5t9.5 -25
t3 -28.5zM179 681q-3 0 -4.5 2t-5.5 1q-9 -8 -22 -19t-25.5 -24.5t-23.5 -29t-17 -32.5q-11 -31 -8 -53.5t17.5 -37t38.5 -22t54 -9.5q1 60 -1 113.5t-3 110.5zM237 410q0 6 -4.5 2t-2.5 -9q-4 -45 -8 -95t-7 -100.5t-4.5 -99t-0.5 -90.5q57 -4 96.5 23t61 70t25 94
t-12.5 96t-51.5 76t-91.5 33z" />
    <glyph glyph-name="percent" unicode="%" horiz-adv-x="586" 
d="M546 693q-29 -43 -58.5 -86t-58.5 -91q-72 -114 -146.5 -217.5t-156.5 -214.5q-8 -11 -19.5 -28.5t-24.5 -31t-26.5 -17t-25.5 13.5q25 46 58 86t65 82q30 42 62 82.5t61 85.5q30 45 58 91.5t56.5 92t59.5 89.5t66 84q13 0 17 -8.5t13 -12.5zM210 426q-22 -8 -34 4.5
t-14 31.5q7 12 19 12t21.5 -7t13 -18.5t-5.5 -22.5zM390 324q12 4 22 -3t14.5 -18t1.5 -22t-17 -14q-11 -2 -21 5t-15 17t-2 20t17 15z" />
    <glyph glyph-name="ampersand" unicode="&#x26;" horiz-adv-x="454" 
d="M226 374q23 -52 48 -101t60 -91q14 18 22.5 41.5t19.5 45.5q17 3 27 0t18 -15q-8 -14 -14 -29.5t-12.5 -31t-13.5 -30t-17 -26.5q16 -32 37.5 -57t40.5 -54q-1 -11 -11.5 -12.5t-18.5 -5.5q-20 17 -36 37.5t-33 40.5q-14 -20 -28.5 -38t-31.5 -32.5t-37.5 -24.5
t-46.5 -13q-33 -4 -61 7.5t-48.5 34.5t-33 54t-13.5 66q-2 48 8.5 84t29 64.5t42.5 52.5t49 48q-10 34 -20 78.5t-11.5 89t9 82.5t40.5 59q21 13 44.5 15.5t46 -3.5t42.5 -19.5t32 -31.5q14 -47 6 -89t-28.5 -78t-49.5 -66t-57 -52zM322 620q-2 21 -14.5 35.5t-29.5 21.5
t-35.5 3.5t-31.5 -18.5q-19 -22 -23.5 -51.5t-1.5 -62t10 -65.5t12 -61q19 12 40.5 34t39 48.5t27.5 56.5t7 59zM190 341q-39 -31 -67 -72.5t-32 -101.5q-2 -17 -1 -40t7 -41q2 -7 8 -17.5t14.5 -21t18.5 -19t19 -11.5q29 -10 53.5 -0.5t44 29.5t33.5 45t22 46
q-35 48 -64 99t-56 105z" />
    <glyph glyph-name="quotesingle" unicode="'" horiz-adv-x="204" 
d="M87 668q6 3 12.5 5.5t17.5 0.5q3 -17 6.5 -44.5t1.5 -51.5t-11.5 -37.5t-32.5 -1.5q1 16 0.5 33.5l-1 35t0.5 33t6 27.5z" />
    <glyph glyph-name="parenleft" unicode="(" horiz-adv-x="209" 
d="M205 -78q-12 -7 -22.5 -4t-19.5 11t-16.5 18.5t-13.5 19.5q-35 44 -51.5 97t-26.5 128q-8 61 -6 129.5t14 130.5t34 112t54 74q4 4 11.5 4.5t14.5 -1.5t12.5 -7t6.5 -11q1 -8 -6 -19.5t-17 -23.5t-19 -23t-12 -18q-6 -11 -11.5 -26t-10 -29.5t-7.5 -27t-4 -18.5
q-10 -54 -11 -118.5t6.5 -127t23.5 -116.5t41 -88q5 -8 12.5 -14t13.5 -12.5t9.5 -15.5t0.5 -24z" />
    <glyph glyph-name="parenright" unicode=")" horiz-adv-x="182" 
d="M11 -42q31 50 49 115t23 136t-3.5 143t-29.5 136q-6 17 -14 32t-14.5 29.5t-11.5 29t-5 29.5q17 9 30 1.5t22.5 -24t17 -37t14.5 -36.5q18 -44 29 -102.5t14.5 -122.5t-2.5 -127t-23 -115q-5 -15 -15.5 -41.5t-23.5 -47t-28 -24.5t-29 26z" />
    <glyph glyph-name="asterisk" unicode="*" horiz-adv-x="427" 
d="M209 739q7 -15 8 -28t0 -26t-1.5 -27t4.5 -29q15 11 26.5 18.5t22 15t21.5 16t26 21.5q8 7 15 13.5t15 11.5t18 7.5t25 1.5q2 -4 7 -8.5t4 -10.5q3 2 -6 -5.5t-24 -19.5t-33.5 -26.5t-35 -27t-28 -21.5t-12.5 -10q13 -2 30 -2.5t33 -3t27.5 -9t14.5 -19.5q-8 -8 -22 -9.5
t-30.5 -1t-33.5 1.5t-32 -2q19 -29 44 -47t51 -44q8 -6 5 -25.5t-16 -32.5q-12 4 -20 11.5t-15 16t-13 17.5t-15 17q-17 17 -26.5 34t-28.5 33q-6 -23 -5.5 -48.5t1.5 -51.5t0 -50.5t-11 -44.5q-11 -2 -19.5 1t-13.5 10t-7.5 15.5t-2.5 16.5q2 32 5.5 60.5t5.5 52.5
q-32 -23 -54.5 -45.5t-54.5 -47.5q-7 2 -15.5 7t-8.5 13q1 8 3.5 14t9.5 15q4 3 10.5 11t7.5 10q5 5 13 7.5t14 8.5q17 14 31.5 28t28.5 26q-9 3 -22.5 4t-29 1h-32t-30.5 1q-10 1 -12 15t0 27q20 3 35 2.5t29 -1.5t28.5 -1.5t32.5 2.5q-6 20 -13.5 27.5t-23.5 21.5
q-15 13 -28.5 29t-17.5 39q18 8 33 3t25 -15q13 -11 23.5 -29.5t20.5 -29.5q3 8 2 28.5t0.5 39t9 29t27.5 -1.5z" />
    <glyph glyph-name="plus" unicode="+" horiz-adv-x="600" 
d="M410 280q4 0 25 1.5t43.5 0t39 -8.5t12.5 -23q-3 -10 -11.5 -13.5t-19.5 -4t-22 1t-19 1.5q-30 1 -62.5 -0.5t-66.5 -3.5q2 -45 4 -91.5t1 -97.5q-6 -7 -18.5 -13t-26.5 1q-1 45 -3 95t-4 104q-45 -3 -91.5 -5t-95.5 -1q-8 6 -14 18.5t2 26.5q43 2 94 3.5t103 3.5l-3 82
q0 3 -1 14t-1 25t0.5 30t4 28t10 19t17.5 4q10 -2 13.5 -11t4 -20t-1 -22.5t-1.5 -18.5q-1 -30 0.5 -61.5t3.5 -66.5z" />
    <glyph glyph-name="comma" unicode="," horiz-adv-x="278" 
d="M104 -102q0 12 5.5 23l11.5 23t9 25.5t-2 30.5q-27 -1 -32.5 13.5t1 29.5t22 23.5t30.5 -3.5q10 -8 16 -24.5t7 -36.5t-2.5 -41t-12 -36.5t-22 -23.5t-31.5 -3z" />
    <glyph glyph-name="hyphen" unicode="-" horiz-adv-x="352" 
d="M240 282q2 -7 5 -13t1 -17q-17 -3 -45 -6.5t-52 -2t-37 11.5t-1 33q16 -1 33.5 -0.5t34.5 0.5t33 -1t28 -5z" />
    <glyph glyph-name="period" unicode="." horiz-adv-x="236" 
d="M86 13q-5 27 4.5 39.5t22.5 13.5t25.5 -8t13.5 -24q0 -11 -7 -20t-17 -13t-21.5 -1.5t-20.5 13.5z" />
    <glyph glyph-name="slash" unicode="/" horiz-adv-x="333" 
d="M-7 15q-2 12 1.5 22.5t9.5 19.5t13 18t12 18q11 20 18.5 40.5t17.5 43.5q17 40 39 80t42 85q11 23 17 48.5t16 50.5q10 26 20.5 47.5t21 42.5t21 42.5t21.5 47.5q5 12 9.5 26t10.5 26t14.5 19.5t22.5 6.5q15 -2 18 -9t0 -16t-9 -17.5t-9 -14.5q-39 -76 -69.5 -157.5
t-68.5 -163.5q-38 -81 -71.5 -160.5t-75.5 -154.5q-13 0 -25 0.5t-17 8.5z" />
    <glyph glyph-name="zero" unicode="0" horiz-adv-x="556" 
d="M273 703q16 0 35 -5t38 -12.5t36.5 -16.5t29.5 -17q36 -26 63.5 -64t43.5 -86.5t20.5 -105.5t-4.5 -120q-7 -45 -21.5 -88.5t-35 -80.5t-46 -64.5t-54.5 -39.5q-32 -14 -67.5 -15.5t-70 6t-65.5 23.5t-53 37q-34 33 -55 82t-30 105.5t-7 116t14.5 115t35 101.5t53.5 75
q26 24 59 39t81 15zM270 669q-12 0 -27 -5t-29.5 -12.5t-27.5 -16.5t-21 -17q-29 -28 -48 -69t-29 -88.5t-11 -98.5t6.5 -98.5t23 -88.5t38.5 -69q58 130 113 259.5t109 263.5q-12 6 -23 13t-22 13t-23.5 10t-28.5 4zM353 37q36 18 64 60.5t45.5 97.5t24 117t0 118.5
t-27.5 102t-58 68.5q-58 -134 -113.5 -265.5t-113.5 -263.5q17 -12 38.5 -23t44.5 -18t47.5 -6.5t48.5 12.5z" />
    <glyph glyph-name="one" unicode="1" horiz-adv-x="556" 
d="M325 1q-7 -3 -16 -5.5t-17 2.5q-9 73 -6.5 152t7.5 161.5t9 168.5t-2 173q-19 -4 -36.5 -19.5t-37.5 -30.5q-5 -3 -17 -10.5t-25.5 -12.5t-24 -4t-11.5 15q0 5 8.5 12.5t20.5 15.5t24 15.5l20 12.5q15 10 29 21t28 18.5t27.5 9t27.5 -8.5q10 -68 11.5 -135.5t-1.5 -134.5
t-8 -133.5t-8 -132.5q-2 -38 1 -78.5t-3 -71.5z" />
    <glyph glyph-name="two" unicode="2" horiz-adv-x="475" 
d="M127 36q31 6 66.5 7.5t71.5 2t72 0.5t68 3q-1 -3 2 -5t7 -4t7.5 -5.5t3.5 -9.5q1 -10 -7 -14.5t-20 -5.5t-25 -0.5t-21 0.5q-25 2 -48.5 3t-45.5 1q-29 -1 -55 -4.5t-49.5 -6t-43.5 -1.5t-36 8q-5 9 -3.5 16.5t6 14.5t10 13.5t9.5 13.5q26 42 49 85.5t49 88.5
q15 25 30 57t28 67.5t22.5 72t13.5 70.5q3 22 2 49t-8.5 51.5t-22.5 41.5t-39 19q-23 2 -43 -5t-34 -13q-13 -6 -24.5 -16.5t-23.5 -18.5t-25 -10t-29 8q0 10 6.5 18.5t16.5 15.5t21.5 13t21.5 11q20 11 42.5 19t45.5 10t45 -4t42 -22q29 -24 40.5 -69t6.5 -105
q-5 -69 -29 -132.5t-55.5 -121t-64 -109.5t-53.5 -98z" />
    <glyph glyph-name="three" unicode="3" horiz-adv-x="521" 
d="M227 414q64 10 111 -3t78 -43t47 -73t18 -92q1 -38 -8 -73t-27.5 -63.5t-46.5 -48t-65 -27.5q-20 -4 -43 -6t-46 -0.5t-43 5.5t-34 12q-20 12 -43.5 29t-35.5 31q-17 20 -31.5 49t-8.5 61q14 8 22 6t12 -9.5t6 -18.5t5 -21q9 -28 22 -42.5t35 -30.5q9 -7 20.5 -15.5
t21.5 -12.5q21 -8 48.5 -9t55.5 4t53 15t41 24q22 19 33.5 54t12.5 74.5t-8.5 78t-29.5 64.5q-11 14 -29 24t-40 15.5t-46 7t-46 -1.5q-6 -1 -23 -7t-35.5 -10t-33.5 -3t-18 14q-2 9 5.5 19t18.5 19.5t23 18t18 14.5q55 51 101 102.5t91 111.5q-64 2 -133 5.5t-132 0.5
q-13 -1 -27 -3.5t-26.5 -1.5t-21 6.5t-10.5 20.5q9 8 25.5 11t36 3.5t39.5 0.5t37 2q23 3 54 2.5t62 -2t58.5 -3.5t43.5 -2q20 -1 39.5 -6t22.5 -14q2 -8 -4.5 -19t-15.5 -21.5t-18.5 -19.5t-12.5 -13q-43 -52 -86.5 -98t-88.5 -92z" />
    <glyph glyph-name="four" unicode="4" horiz-adv-x="470" 
d="M240 677q-38 -118 -78.5 -231.5t-82.5 -228.5q45 -6 89 1.5t86 12.5q6 16 6 34.5t-1.5 37t-2.5 36.5t4 33q15 2 23.5 -1.5t16.5 -9.5q2 -34 3.5 -63t1.5 -67q18 -1 40.5 1.5t43.5 3t36 -3.5t18 -18q-5 -12 -23 -15.5t-39.5 -3t-42.5 1.5t-33 -3q-2 -24 -1 -54.5t2 -62.5
t0.5 -62.5t-4.5 -54.5q-7 -4 -15 -3t-16 3q-8 21 -9.5 48.5t-1 57.5t0.5 61.5t-4 61.5q-27 0 -56 -4t-58 -6.5t-57.5 -2t-54.5 9.5q-6 31 8 62.5t26 61.5q23 63 45.5 125.5t42.5 125.5q11 35 23 69.5t30 60.5q15 3 21 -3t13 -11z" />
    <glyph glyph-name="five" unicode="5" horiz-adv-x="492" 
d="M373 660q-5 -7 -12 -9t-15 -2t-16.5 1t-15.5 1q-48 -2 -100 -9t-106 -2q-5 -30 -7.5 -63.5t-3 -67t0 -66.5t1.5 -63q36 6 72.5 9.5t70.5 1t64 -11.5t53 -27q38 -30 62.5 -81.5t16.5 -113.5q-8 -49 -37.5 -89.5t-69.5 -56.5q-42 -18 -90 -21t-89.5 10.5t-70.5 44.5t-33 81
q18 7 27.5 3.5t14.5 -12.5t9 -21.5t11 -22.5q19 -27 51.5 -37t67.5 -8t68.5 14.5t55.5 30.5q25 28 33 63.5t3.5 70.5t-20 66.5t-38.5 50.5q-26 21 -57.5 26.5t-66 3t-71 -7.5t-71.5 -5q-12 17 -13 38t-1 41q0 57 3 117.5t8 130.5q26 5 58 7t65 3t65 3t58 7q7 1 18 1.5
t21.5 -2t18 -9t7.5 -18.5z" />
    <glyph glyph-name="six" unicode="6" horiz-adv-x="483" 
d="M290 668q-41 -20 -71 -51.5t-52.5 -70.5t-39 -84t-29.5 -93q22 8 46 16t49.5 12t52 3t52.5 -11q19 -8 42 -24t44 -35.5t37 -39t21 -34.5q7 -20 7.5 -44t-3.5 -47.5t-11 -44.5t-16 -36q-7 -12 -20.5 -27t-30 -28.5t-35 -24t-35.5 -13.5q-28 -6 -53 -3.5t-47 10t-41.5 19
t-36.5 24.5q-32 24 -50.5 61t-25.5 80.5t-4.5 91.5t12 94.5t24.5 89t33 75.5q11 21 25.5 46.5t31.5 49t35.5 41.5t37.5 23q6 2 13 3t14 -1t13.5 -8.5t10.5 -18.5zM140 343q-3 -2 -11.5 -8.5t-17.5 -15t-16.5 -16t-8.5 -10.5q-3 -6 -4 -17t-1 -24t1 -26.5t2 -23.5
q2 -35 14.5 -65t33 -53t46 -37.5t52.5 -19.5t47 -0.5t36.5 14.5t31 24.5l29.5 29.5q6 18 13 36.5t12 37.5t6 39.5t-5 44.5q-17 26 -45.5 51.5t-63.5 41.5t-74 17.5t-77 -20.5z" />
    <glyph glyph-name="seven" unicode="7" horiz-adv-x="556" 
d="M427 679q7 -8 6.5 -19.5t-5 -24.5t-11 -26.5t-10.5 -25.5q-20 -54 -39.5 -114.5t-42.5 -114.5q12 0 26.5 1.5t27 1t21 -6.5t7.5 -21q-7 -7 -18.5 -10t-24.5 -3.5t-27 -1t-26 -2.5q-24 -57 -47.5 -120t-42.5 -123q-7 -21 -9.5 -43t-18.5 -39q-11 -2 -17.5 1t-13.5 5
q-2 20 2 39.5t11 39t15 38.5t14 38q14 39 25 78.5t26 76.5q-15 4 -37.5 1.5t-42 -2.5t-32 7t-7.5 31q32 2 69 2.5t69 8.5q30 72 54.5 147t53.5 147q-23 -3 -47.5 -1.5t-50 4t-52 5.5t-54.5 3q-17 0 -37.5 -4t-39.5 -4.5t-33.5 5.5t-18.5 26q12 12 31.5 11.5t38.5 -0.5
q13 1 27 3.5t27 2.5q23 -1 46 -5.5t47 -6.5q42 -2 84 0.5t77 -5.5z" />
    <glyph glyph-name="eight" unicode="8" horiz-adv-x="517" 
d="M319 385q28 -13 55.5 -29.5t51 -38.5t39.5 -50.5t21 -65.5q3 -27 -4.5 -57.5t-22.5 -58t-35.5 -49t-42.5 -31.5q-22 -11 -58 -16t-74.5 -4.5t-73.5 6t-55 16.5q-15 7 -28 20.5t-22.5 29.5t-16.5 32.5t-10 29.5q-11 54 2 94t40 71.5t62.5 55.5t70.5 45q-33 14 -60.5 36
t-43.5 50t-17.5 60t16.5 67q9 17 23.5 35.5t32.5 34t39 27t43 14.5q35 4 66.5 -3t55.5 -23t40 -39.5t20 -52.5q4 -33 -5.5 -62.5t-27 -55.5t-39 -48t-42.5 -40zM393 561q4 23 -4.5 48.5t-26.5 37.5q-3 2 -13.5 5.5l-22.5 7.5t-22 7.5t-12 4.5q-27 4 -55 -10.5t-50.5 -38.5
t-37 -53.5t-14.5 -54.5q0 -23 14.5 -38.5t34.5 -27t41.5 -20.5t35.5 -18q18 12 39 27.5t40 34.5t33.5 41t19.5 47zM95 220q-10 -20 -13.5 -44.5t0 -48.5t13.5 -44.5t27 -32.5q12 -8 33 -12t44 -5.5t46 -0.5t40 3q12 2 32 3.5t30 6.5q18 6 35.5 23t31 40t21.5 48.5t7 48.5
q-3 36 -20.5 60.5t-43 42t-56 29t-59.5 21.5q-17 -12 -41 -26.5t-48 -32t-45.5 -37t-33.5 -42.5z" />
    <glyph glyph-name="nine" unicode="9" horiz-adv-x="386" 
d="M309 -7q-8 -6 -17.5 -3t-17.5 5q-5 39 -3.5 78t4.5 79.5t5.5 82.5t-0.5 86q-27 -7 -61.5 -9.5t-67 2.5t-59 19t-37.5 40q-13 29 -15 64t6 70.5t24.5 69t40.5 60.5t54 44.5t66 20.5q21 2 40 0t42 0q5 6 9.5 5.5t9 -3.5t9 -7.5t7.5 -6.5q-5 -173 -17 -348.5t-22 -348.5z
M81 450q0 -10 0.5 -22t2.5 -23t5.5 -20t9.5 -14q13 -15 38 -20t53.5 -3.5t55 7.5t43.5 13q4 36 5.5 74.5t2.5 77.5t2 77t4 73q-53 5 -94 -11.5t-69.5 -47.5t-43.5 -73t-15 -88z" />
    <glyph glyph-name="colon" unicode=":" horiz-adv-x="278" 
d="M164 390q2 -8 3.5 -15.5t-0.5 -17.5q-15 -12 -26 -11t-17.5 9t-8 19t3 19t15.5 9t30 -12zM101 49q7 6 16.5 7t18.5 -1.5t15.5 -8.5t6.5 -15q1 -14 -9.5 -21t-22.5 -5.5t-21 12.5t-4 32z" />
    <glyph glyph-name="semicolon" unicode=";" horiz-adv-x="278" 
d="M167 427q2 -18 -7.5 -25.5t-21.5 -6t-22 10t-9 21.5q1 12 8.5 17t17 4t19 -6.5t15.5 -14.5zM152 84q6 -23 6.5 -51t-6 -51.5t-20.5 -37t-37 -7.5q0 12 3.5 20.5l7 17l7 17t3.5 20.5q-3 6 -7.5 8.5t-8.5 4.5t-7 5t-4 9q-2 9 3.5 20t15.5 19t21.5 10.5t22.5 -4.5z" />
    <glyph glyph-name="less" unicode="&#x3c;" horiz-adv-x="463" 
d="M419 495q-85 -57 -162 -117t-156 -120q24 -29 52.5 -54t59 -48.5t62 -47t60.5 -48.5q9 -7 19 -15t19 -17.5t14.5 -21t4.5 -24.5q-14 -3 -26 2.5t-23.5 15t-22.5 20.5t-21 19q-55 45 -110 88.5t-112 94.5q-11 10 -24.5 20.5t-14.5 18.5q0 7 10.5 17.5t24.5 21.5t27.5 20
t18.5 13q66 51 134.5 102t132.5 93q17 1 24 -8.5t9 -24.5z" />
    <glyph glyph-name="equal" unicode="=" horiz-adv-x="563" 
d="M80 317q-8 6 -14 18.5t2 26.5q35 1 76.5 2.5t84.5 3.5t85.5 3.5t80.5 2.5q4 0 25 1.5t43.5 0t39 -8.5t12.5 -23q-3 -10 -11.5 -13.5t-19.5 -4t-22 1t-19 1.5q-78 2 -169.5 -6t-193.5 -6zM80 130q-8 6 -14 18.5t2 26.5q35 1 76.5 2.5t84.5 3.5t85.5 3.5t80.5 2.5
q4 0 25 1.5t43.5 0t39 -8.5t12.5 -23q-3 -10 -11.5 -13.5t-19.5 -4t-22 1t-19 1.5q-78 2 -169.5 -6t-193.5 -6z" />
    <glyph glyph-name="greater" unicode="&#x3e;" horiz-adv-x="424" 
d="M385 239q-5 -13 -18 -20.5t-24 -15.5q-67 -42 -132.5 -96t-125.5 -114q-10 -10 -20 -18.5t-20 -11.5t-19.5 1.5t-18.5 19.5q78 70 154.5 138t163.5 129q-17 26 -40.5 51t-52 48.5t-59.5 46t-61 43.5q-9 6 -24.5 16t-28 21.5t-16 24.5t11.5 25q199 -107 330 -288z" />
    <glyph glyph-name="question" unicode="?" horiz-adv-x="414" 
d="M172 318q-4 -24 -2.5 -46t3.5 -45t2 -47.5t-6 -51.5q-12 -2 -20.5 0.5t-15.5 4.5q-6 19 -8.5 45t-3.5 54.5t0 58t3 55.5q29 13 61 26t60 30.5t48.5 42t26.5 61.5q6 36 -3 74.5t-30.5 68t-54.5 42.5t-75 -2q-11 -4 -19.5 -10t-19.5 -14q-8 -6 -15.5 -11t-15.5 -7.5t-17 -1
t-19 10.5q19 37 54 54.5t74 18.5t76.5 -13t61.5 -39q13 -14 23.5 -34t17.5 -43.5t10 -49.5t0 -51q-6 -38 -25.5 -65.5t-47 -48t-60 -36.5t-63.5 -31zM181 -2q-23 -2 -39 7t-15 23q1 18 16 21.5t29 -2.5t20 -19.5t-11 -29.5z" />
    <glyph glyph-name="at" unicode="@" horiz-adv-x="552" 
d="M344 317q-10 -22 -24 -44.5t-32 -37.5t-40 -19t-48 11q-13 7 -25 24.5t-18.5 40t-6.5 48t11 49.5q6 15 19 31t31.5 27.5t41 17t46.5 -0.5q3 -1 11 -5t16.5 -9.5t16.5 -13t13 -14.5q6 -11 7 -26.5t3 -30t8 -26.5t21 -16q18 -5 32 2.5t23 22t13 33t3 35.5q-1 34 -13.5 61.5
t-27.5 46.5q-15 18 -38.5 33.5t-51.5 24.5t-57.5 9t-56.5 -13q-26 -13 -50 -41t-42 -64t-28.5 -76.5t-8.5 -79.5q0 -21 8.5 -49t22 -54.5t30 -47.5t32.5 -29q17 -8 37 -12.5t40.5 -5.5t40 2t35.5 10q13 6 24 15t21.5 18t22.5 16t27 8q13 -9 13.5 -19.5t-6 -20.5t-16.5 -18
t-17 -14q-27 -21 -65.5 -30.5t-79 -7.5t-77 16t-60.5 40q-19 20 -36 48t-28 60.5t-15.5 67.5t1.5 70q7 39 22 82t39 79.5t56.5 61.5t74.5 29q25 3 46 2t47 -8q42 -11 81 -43.5t65.5 -75t34 -89.5t-13.5 -86q-8 -15 -28.5 -28.5t-44.5 -19t-46.5 1t-35.5 31.5zM221 260
q27 3 44 19t26 39t11 50.5t0 53.5q-32 6 -56.5 -10t-37.5 -42.5t-11 -57t24 -52.5z" />
    <glyph glyph-name="A" unicode="A" horiz-adv-x="418" 
d="M424 9q-14 -14 -23 -9t-15.5 17.5t-10.5 28t-7 21.5q-11 32 -25 68t-28.5 71t-27 66.5t-20.5 54.5q-18 6 -38.5 6.5t-40.5 -1t-38.5 -3.5t-31.5 -2q-23 -57 -39.5 -121t-40.5 -139q0 -5 -0.5 -16t-2.5 -23t-7 -21t-14 -9q-13 0 -16 9t-1.5 21t5 23t3.5 16
q38 162 85.5 323.5t86.5 317.5q16 9 24.5 4t13 -17.5t6.5 -29t4 -29.5q38 -121 71.5 -237t71.5 -219q5 -26 14 -46t18 -36q13 -23 18.5 -47t5.5 -42zM125 365q19 0 34.5 1.5t30 2.5t30 0.5t35.5 -4.5q-14 67 -26.5 127.5t-39.5 109.5q-5 -33 -13.5 -62t-17.5 -57t-18 -56.5
t-15 -61.5z" />
    <glyph glyph-name="B" unicode="B" horiz-adv-x="457" 
d="M256 357q27 -9 55 -23t52 -34.5t41.5 -49t22.5 -67.5q6 -59 -20.5 -101t-72.5 -65t-105 -24.5t-118 21.5q0 -7 -8 -13t-18 4q-17 17 -20 51t-3 70v582q54 10 110.5 8t103.5 -19t78.5 -50t36.5 -84q3 -38 -7.5 -69.5t-30 -57t-45 -45.5t-52.5 -34zM355 542
q3 49 -21.5 75.5t-63.5 38.5t-85.5 14t-86.5 2q5 -33 5.5 -71.5t0.5 -78.5t1 -79t6 -71q46 2 88 12.5t74.5 31.5t54 52t27.5 74zM111 59q32 -17 69.5 -23t73 -2t64.5 18.5t44 38.5q14 27 17.5 56.5t-2 56.5t-18 48.5t-31.5 32.5q-18 18 -44 28t-55.5 14.5t-60 5.5t-57.5 1
v-275z" />
    <glyph glyph-name="C" unicode="C" horiz-adv-x="448" 
d="M409 644q-15 -4 -24.5 -1t-16.5 9t-13.5 13.5t-16.5 12.5q-21 14 -43.5 19t-44 2t-40.5 -15t-31 -31q-27 -24 -47.5 -61t-34 -82t-19.5 -95.5t-5 -101.5t9.5 -99.5t24.5 -89.5q7 -11 19.5 -27t27.5 -31.5t30.5 -28t27.5 -16.5q19 -5 38 -3.5t35.5 5.5t30 9t22.5 7
q4 6 9.5 17t11.5 22t12.5 19t12.5 8q19 0 19 -11.5t-8 -26t-18.5 -28.5t-11.5 -18q-14 -11 -37 -21.5t-48.5 -16.5t-52 -5t-48.5 15q-14 6 -29.5 21t-30.5 34t-28 39t-22 37q-19 46 -27.5 103t-7 117t12 120t30.5 112t49 92.5t66 62.5q34 7 70.5 3t67.5 -16.5t52.5 -32
t26.5 -41.5z" />
    <glyph glyph-name="D" unicode="D" horiz-adv-x="444" 
d="M63 278q-5 48 -6 91t-1 84t-1 82t-6 86q0 9 -1.5 22.5t-1 28t4 26.5t12.5 17q13 4 28 1t30 -8.5l30 -11t29 -5.5q31 -18 63.5 -42t61 -55t52 -69t36.5 -83q18 -52 21 -110t-8.5 -112.5t-37 -101.5t-65.5 -78t-94.5 -42.5t-122.5 5.5q0 10 -3.5 13.5t-8 5t-8 2.5t-3.5 5
v249zM359 420q-9 48 -32.5 89.5t-58 73.5t-78.5 54t-93 31h-11q8 -162 9.5 -318t1.5 -309q56 -15 100.5 -6t78 35.5t55 67t32 87.5t9.5 97.5t-13 97.5z" />
    <glyph glyph-name="E" unicode="E" horiz-adv-x="450" 
d="M430 690q-35 -12 -74 -16.5t-79.5 -5t-81.5 -0.5t-81 -3q0 -38 -1 -73l-2 -70t-2 -71.5t-1 -76.5q39 -5 81 -6t84 -1t82 -1t75 -6q0 -15 -11.5 -22t-27 -9.5t-32.5 -1.5t-28 1q-49 0 -109 3.5t-114 3.5q0 -70 -3 -141.5t3 -157.5q42 -3 81 -1l78 4t79 2.5t84 -5.5
q3 -9 -1.5 -14.5t-12 -9t-16 -5t-14.5 -1.5q-24 -7 -57 -3.5t-63 3.5q-54 -7 -102 -10t-93 10q-11 45 -12.5 95t3.5 98q0 57 0.5 122.5t1 132.5t2.5 133t5 126h308q8 0 18 1t18.5 -0.5t13 -6.5t1.5 -17z" />
    <glyph glyph-name="F" unicode="F" horiz-adv-x="456" 
d="M453 691q-6 -14 -19 -19.5t-28.5 -7t-32.5 -0.5t-31 1q-30 0 -59.5 3t-59.5 5t-59.5 2.5t-58.5 -4.5q1 -38 1.5 -71.5t0.5 -66t-0.5 -66t-1.5 -70.5q32 -9 71.5 -7.5t81.5 1.5q13 0 35 3t43 4t36.5 -2t17.5 -15q1 -12 -8 -18t-21.5 -8t-25.5 -2h-20h-55.5t-50.5 -0.5
t-50 -1.5t-54 -2q7 -76 4 -155t0 -151q0 -12 4 -25.5t-8 -21.5q-18 -3 -26 2.5t-11 15.5t-2 23.5t1 27.5q2 37 0.5 77t-3.5 81t-4.5 82t-2.5 80q0 84 3.5 161.5t-3.5 160.5q8 5 15.5 6t16.5 4q75 -3 155.5 -6.5t155.5 -3.5q17 0 30.5 -2t22.5 -14z" />
    <glyph glyph-name="G" unicode="G" horiz-adv-x="564" 
d="M424 670q-8 -2 -14.5 -0.5t-12.5 4t-12.5 5t-14.5 2.5q-20 0 -39.5 -7.5t-38 -17.5t-34.5 -21t-28 -18q-36 -30 -69.5 -76.5t-56 -102.5t-30 -117.5t9.5 -121.5q12 -41 42.5 -76.5t73.5 -58.5t95 -29.5t108 10.5q31 10 44.5 45.5t17.5 81.5t2.5 93.5t0.5 81.5
q-25 4 -46 2t-42 -2q-11 0 -24.5 -0.5t-25.5 1t-19 6.5t-4 16q2 10 14 14t28.5 5.5t34.5 1t31 -0.5t29 0.5t30 0t25 -4t15 -11.5q4 -5 3.5 -13.5t-2.5 -19t-4.5 -21.5t-2.5 -20q-2 -33 -2.5 -67.5t-3.5 -66.5t-9 -61t-18 -50q-3 -6 -9 -14t-13.5 -15.5t-15 -13t-13.5 -7.5
q-35 -13 -77 -13t-82 8.5t-74 23t-53 31.5q-47 37 -72 94.5t-29 123t12 134t52 128.5q20 33 48.5 62.5t57.5 49.5q18 14 40.5 30t48 27t53 13.5t54.5 -11.5q9 -3 17 -10t4 -27z" />
    <glyph glyph-name="H" unicode="H" horiz-adv-x="529" 
d="M476 716q-4 -77 -5.5 -167.5t-1.5 -183.5t0.5 -182.5t-0.5 -164.5q-11 -6 -19 -2.5t-13 11.5t-7 19t-2 20v283q-92 -4 -167 -5.5t-152 0.5q-5 -66 -2 -136t6 -142q0 -9 2 -22.5t2 -26.5t-4 -21.5t-17 -7.5q-11 0 -15.5 10t-6 24.5t-1 31.5t0.5 31q-5 69 -7.5 148.5
t-3 160.5t0.5 158.5t3 141.5q10 6 20.5 2.5t18.5 -5.5q6 -36 5.5 -74.5t-2.5 -77.5t-4 -77.5t1 -74.5q71 -4 155 -4t163 4q5 90 6 170.5t10 158.5q0 5 7 9q8 -2 14.5 -5.5t14.5 -3.5z" />
    <glyph glyph-name="I" unicode="I" horiz-adv-x="236" 
d="M198 689q-5 -10 -21.5 -8.5t-30.5 0.5q2 -76 0.5 -153.5t-3.5 -157t-2 -161t5 -164.5q10 -1 22 1t22 2.5t17.5 -2.5t9.5 -14q-3 -7 -9.5 -10.5t-15.5 -4.5t-19 -1.5t-19 -1.5q-14 -2 -29.5 -7t-30.5 -8t-29 -1t-25 13q2 9 9 12.5t17 4t20.5 1t18.5 3.5q1 46 -0.5 96.5
t-2.5 104t-1 108t4 108.5q4 52 4.5 112.5t-2.5 114.5q-12 0 -27.5 -1.5t-29.5 -1t-24 5t-12 17.5q15 8 45.5 12.5t61.5 6.5q12 1 25 2t24.5 -1.5t19 -8.5t8.5 -18z" />
    <glyph glyph-name="J" unicode="J" horiz-adv-x="550" 
d="M321 663q-5 -78 -5.5 -160t-2.5 -161.5t-9 -155t-25 -139.5q-10 -30 -40.5 -44.5t-66.5 -15.5t-70 10t-52 33q-24 29 -34 70.5t5 83.5q9 3 20.5 2.5t17.5 -5.5q-9 -35 -2.5 -68.5t22.5 -54.5q10 -12 28 -22.5t39 -15.5t41.5 -3t34.5 16q17 16 25.5 44t12.5 61t5 68t3 65
q4 56 5 111t1 105.5t-0.5 95t0.5 80.5q-26 1 -57 0t-61 -3q-16 -1 -33 -3.5t-32 -2t-26 6.5t-15 21q4 7 11 10t15.5 3t18 -1t18.5 -1q36 2 77.5 4t83.5 4.5t82 5.5t72 6q9 0 21.5 0.5t23 -1t17 -6.5t3.5 -16q-2 -7 -11.5 -10.5t-22.5 -4.5t-26.5 -1h-23.5q-28 -2 -48 -4
t-40 -7z" />
    <glyph glyph-name="K" unicode="K" horiz-adv-x="511" 
d="M94 721q8 -33 11 -73.5t3.5 -84t0.5 -89t3 -89.5q78 51 144 114t129 129q13 7 22.5 19l19 24t22.5 21.5t34 10.5q15 -8 13.5 -19t-10.5 -23t-21.5 -23t-19.5 -19q-42 -45 -90.5 -90t-88.5 -80q54 -91 108 -186.5t120 -181.5q7 -8 16.5 -21.5t13 -25.5t-2.5 -19.5
t-29 -4.5q-8 1 -19 13t-22.5 27t-21.5 29.5t-15 20.5q-26 37 -49.5 77.5t-46 81.5t-45 80t-46.5 73q-15 -9 -27.5 -20.5t-25.5 -23t-27.5 -21t-32.5 -15.5q2 -78 3 -161.5t-8 -174.5q-8 -5 -19.5 -6.5t-19.5 6.5q3 140 -2.5 277t-8.5 269q-2 45 -3.5 90.5t0.5 85.5
q5 5 16.5 5t21.5 -2z" />
    <glyph glyph-name="L" unicode="L" horiz-adv-x="454" 
d="M68 717q5 -1 12.5 0.5t8.5 -3.5q8 -9 11.5 -22.5t5 -29t1.5 -31v-28.5q0 -69 -3 -139.5t-5.5 -141t-2 -140.5t7.5 -138q23 -11 53.5 -14.5t63.5 -3t66 3.5t61 5q21 2 43.5 2.5t35.5 -11.5q0 -14 -9 -20.5t-21.5 -8.5t-27.5 -1t-27 1q-26 -1 -54.5 -5t-54.5 -4
q-19 0 -44.5 1t-50.5 4.5t-45.5 10.5t-29.5 19q-5 5 -6.5 22t-2.5 37.5t-0.5 41.5t0.5 35q-2 64 0.5 136.5t5.5 145t4.5 142t-1.5 126.5q-2 6 5 8z" />
    <glyph glyph-name="M" unicode="M" horiz-adv-x="678" 
d="M625 -1q-6 -9 -17.5 -10t-22.5 1q-15 76 -24.5 156.5t-19 163t-20.5 166.5t-29 166q-17 -32 -33 -73t-31 -84t-28.5 -83.5t-25.5 -71.5q-2 -4 -5.5 -14.5t-8 -21.5t-10 -20t-12.5 -10q-12 -2 -20.5 6t-14.5 21t-10.5 27t-8.5 24q-25 72 -53.5 149t-57.5 141
q-10 -61 -18 -128.5t-15 -137.5t-14 -140.5t-16 -138.5q-2 -14 -2 -31t-3.5 -30.5t-12.5 -20.5t-28 0q-3 38 4.5 80t12.5 88q8 65 14 134.5t12 138.5t14 136t19 126q17 7 31 -1.5t24.5 -24t18.5 -33.5t13 -31q16 -38 28 -73.5t23 -70t24 -68.5t31 -70q38 96 71 194t75 189
q5 5 9 6.5t12 0.5q11 -2 19.5 -25t15 -52.5t10.5 -57.5t6 -40q10 -68 19.5 -140t18.5 -143t18 -139.5t18 -129.5z" />
    <glyph glyph-name="N" unicode="N" horiz-adv-x="575" 
d="M465 129q-7 156 -11.5 302.5t-7.5 277.5q8 6 22 4.5t21 -4.5q11 -177 15 -341.5t15 -310.5q0 -14 4 -27.5t-2 -26.5q-15 -8 -27 -3.5t-20.5 14.5t-14.5 22.5t-10 20.5q-11 22 -22.5 48t-22.5 44q-25 42 -46.5 85t-46.5 85q-23 43 -49 90t-52 89q3 -5 -2 2.5t-15 21.5
t-22.5 32.5t-24 35t-20.5 28.5t-11 14q2 -24 3 -61t2 -81.5t0.5 -92.5t-0.5 -93t-1 -83.5t-2 -63.5v-35.5t-2 -53.5q-1 -11 -0.5 -25t-1 -26t-7 -20t-17.5 -8q-9 1 -13.5 9.5t-6 20t-1 24.5t0.5 22q3 91 7 182t2 200q0 33 -2 68t-4.5 69.5t-4.5 68t-2 63.5q22 8 40 -3.5
t31 -26.5q47 -55 89.5 -125.5t84.5 -145.5q41 -74 80.5 -149.5t74.5 -136.5z" />
    <glyph glyph-name="O" unicode="O" horiz-adv-x="591" 
d="M299 728q45 1 86 -8.5t74 -36.5q14 -13 29.5 -32t26.5 -38q12 -19 24 -44.5t16 -40.5q8 -36 5 -78t-5 -80q-3 -50 -9.5 -101.5t-19 -98t-31.5 -84.5t-46 -62q-15 -13 -32.5 -21t-35.5 -12.5t-34.5 -6.5t-28.5 -2q-62 -2 -110 19t-83 59.5t-57 91t-32 114.5
q-6 44 -2.5 91.5t13.5 93.5t26 87t35 72q13 21 31.5 41.5t42.5 37t53 27.5t64 12zM129 119q14 -23 36 -44.5t51.5 -36t65.5 -19.5t78 5q43 10 70.5 45t43.5 84t23 105.5t10 109.5q2 42 6.5 82t-3.5 71q-6 25 -18.5 51t-29 48.5t-35.5 39.5t-38 25q-21 7 -43.5 8.5
t-44.5 -1.5t-42 -9t-36 -14q-34 -23 -61 -60.5t-45.5 -84.5t-28.5 -100t-9 -106.5t13 -104.5t37 -94z" />
    <glyph glyph-name="P" unicode="P" horiz-adv-x="431" 
d="M109 250q0 -34 2.5 -67t4.5 -64.5t2.5 -62t-3.5 -58.5q-22 -5 -32 8t-13 33.5t-2 43t1 37.5q-1 40 -4 84t-5 86q-2 54 -0.5 109t3 108.5t1.5 105.5t-4 100q16 -2 30.5 -0.5t29.5 3.5t31 4t34 1q33 -3 65 -16.5t59.5 -34t49.5 -47t35 -55.5q24 -58 19.5 -111.5t-29 -96
t-66.5 -71t-93 -37.5q-26 -4 -57 -3t-59 1zM370 476q-2 48 -25.5 91t-60.5 72t-84 39.5t-96 -5.5q4 -51 4.5 -97t0 -91.5t-1.5 -94t0 -103.5q52 -6 100.5 5t85 36.5t58 63t19.5 84.5z" />
    <glyph glyph-name="Q" unicode="Q" horiz-adv-x="588" 
d="M493 84q7 -15 19 -25t24.5 -19t23 -20t14.5 -29q-20 -15 -33.5 -8.5t-26.5 17.5q-5 4 -11.5 11l-13 14t-12 12t-8.5 5q-4 0 -9.5 -4.5t-11 -10t-10.5 -11t-8 -7.5q-21 -12 -47.5 -18.5t-56 -8t-59 3t-56.5 14.5q-23 8 -39.5 16t-30 18.5t-25.5 24t-25 31.5
q-9 12 -18.5 24.5t-14.5 23.5q-15 35 -20.5 82t-3.5 92q2 59 15 128.5t45 129.5q17 33 38.5 64t50.5 54t66.5 35t87.5 6q29 -4 60 -17.5t51 -30.5q33 -29 55.5 -72t35.5 -94t16 -107.5t-3 -113.5t-21 -111t-38 -99zM454 603q-14 21 -26.5 36t-28 25t-35.5 15.5t-48 7.5
q-6 0 -16.5 0.5t-19.5 -0.5q-34 -5 -65 -33t-56 -67.5t-42 -83.5t-23 -80q-5 -30 -9.5 -62t-5.5 -58q-2 -36 4.5 -72.5t18.5 -68t28.5 -56.5t35.5 -40q24 -20 62 -32t77 -13t73.5 12t51.5 45q-19 22 -38 43t-37 44q-18 21 -38.5 43t-27.5 53q16 8 29.5 4.5t24.5 -13
t20.5 -22.5t18.5 -23q20 -23 38.5 -48t39.5 -36q20 52 32.5 117t13 131t-11.5 127t-40 105z" />
    <glyph glyph-name="R" unicode="R" horiz-adv-x="456" 
d="M305 368q33 -7 53.5 -28t32 -51.5t16 -67t6.5 -75.5q2 -40 5 -78.5t-2 -68.5q-22 -9 -31.5 -2t-12 22t-1.5 34.5t0 35.5q-1 28 -3 58.5t-5.5 59t-9.5 53.5t-15 42q-9 6 -16 14t-17 13q-29 3 -52.5 0t-45.5 -8t-44.5 -10t-49.5 -6q-2 -33 -2.5 -71.5t-1 -78.5t-1 -80.5
t-1.5 -78.5q-9 -5 -19 -3t-20 3q-5 66 -5.5 139t0.5 150t1.5 155.5t-2.5 155.5q-2 30 -6 60.5t6 59.5q22 0 41.5 3.5t38.5 7.5t37.5 6.5t38.5 0.5q43 -4 78.5 -29t58.5 -61.5t32 -79t-1 -82.5q-9 -36 -32 -62t-49 -52zM344 515q3 22 -2 46.5t-16 47t-26.5 41.5t-33.5 30
q-18 9 -38.5 12t-42 0.5t-42.5 -8.5t-39 -13q6 -81 8 -157.5t1 -163.5q42 4 81.5 15.5t71 31t52.5 49t26 69.5z" />
    <glyph glyph-name="S" unicode="S" horiz-adv-x="544" 
d="M424 645q-27 5 -45 16t-35.5 21t-39 14.5t-54.5 -3.5q-25 -6 -47.5 -24.5t-39 -43.5t-25 -53.5t-5.5 -56t18.5 -50.5t47.5 -36q28 -11 55.5 -12t52.5 -6q50 -11 96 -41.5t73.5 -75.5t30.5 -100.5t-32 -115.5q-21 -35 -66 -59t-97.5 -33.5t-106 -3.5t-90.5 30
q-11 6 -21.5 18.5t-20.5 29t-17 34.5t-10 35q-1 6 -2 13.5t-0.5 15.5t3 15.5t8.5 12.5q17 2 24 -5.5t9 -19t1.5 -23t1.5 -18.5q5 -20 16.5 -42t25.5 -33q25 -18 60 -21t60 -3q67 -1 115.5 29t71.5 75t17 98t-48 98q-23 24 -60 36t-77 20.5t-77 18.5t-59 30q-11 9 -20.5 24.5
t-17 34.5t-11 39.5t-2.5 39.5q3 50 31.5 89t71 60t92.5 21.5t96 -26.5q9 -5 19 -11.5t17.5 -14.5t11.5 -17.5t0 -19.5z" />
    <glyph glyph-name="T" unicode="T" horiz-adv-x="458" 
d="M247 676q-1 -52 0.5 -105.5t3 -109t2 -114t-2.5 -121.5q-2 -26 -5 -54.5t-1 -58.5q0 -16 1.5 -39t-0.5 -42t-10.5 -29t-27.5 -1q-11 38 -10.5 80t2.5 84q4 121 7.5 250t-7.5 257q-25 3 -57.5 3.5t-58.5 -0.5q-14 -1 -30.5 -2.5t-30.5 0t-22.5 8t-7.5 22.5q12 8 27.5 11
t33.5 3t38 -1t40 -1q36 0 81 -1.5t83 -4.5q15 -1 36.5 1t41.5 2t33.5 -4.5t12.5 -18.5q0 -14 -22.5 -18t-52 -3t-57.5 4t-40 3z" />
    <glyph glyph-name="U" unicode="U" horiz-adv-x="570" 
d="M473 726q22 3 31.5 -11.5t12.5 -36t1 -46t-3 -41.5q-3 -104 -12 -191.5t-24 -177.5q-11 -63 -30.5 -115t-53.5 -86q-23 -24 -57 -35t-69 -9.5t-67.5 16t-52.5 43.5q-18 26 -30.5 67t-23.5 83q-15 60 -22 128t-9.5 138.5t-2 140t0.5 133.5q27 13 38 -4.5t14 -48.5t1 -67
t-2 -60q1 -48 -0.5 -89t-0.5 -81t6 -81.5t19 -90.5q6 -21 12 -43t12 -42t13.5 -37t16.5 -28q9 -10 23.5 -19t31 -15t35 -7t36.5 5q19 7 35.5 24t30 40t23.5 50t16 54q26 106 38 219.5t7 233.5q0 10 -2 21t-2.5 22.5t1 23t9.5 20.5z" />
    <glyph glyph-name="V" unicode="V" horiz-adv-x="444" 
d="M-14 691q19 7 30 1t18 -19t10.5 -29t7.5 -28q9 -28 20 -58t19 -56q30 -106 59.5 -211.5t57.5 -214.5q28 77 51.5 158t45.5 163.5t43.5 165.5t45.5 164q28 9 36.5 1t6.5 -24.5t-9.5 -37.5t-12.5 -38q-11 -39 -19.5 -73.5t-17 -68t-17.5 -67.5t-21 -73q-21 -72 -38 -139.5
t-43 -139.5q-3 -9 -7 -24t-10.5 -28.5t-17 -22t-25.5 -3.5q-10 3 -19.5 26t-17.5 51.5t-14 55.5t-9 38q-34 115 -65 225t-67 219q-7 20 -14.5 42t-6.5 45z" />
    <glyph glyph-name="W" unicode="W" horiz-adv-x="771" 
d="M222 66q31 50 58 111.5t56 120.5q4 9 9.5 23.5t13 27.5t18 20t25.5 1q7 -3 13.5 -14.5t11.5 -25.5t8.5 -27t5.5 -20q9 -28 18 -59t19 -60.5t22.5 -55t29.5 -43.5q33 126 63.5 251t72.5 246q13 39 22.5 78.5t31.5 74.5q10 4 19 -1.5t17 -10.5q-21 -74 -45 -146.5
t-47.5 -145.5t-43.5 -146.5t-32 -149.5q-2 -12 -5.5 -32.5t-9.5 -40t-14.5 -33.5t-21.5 -14q-14 0 -28 16.5t-26 38.5t-21.5 44t-14.5 33q-20 45 -33.5 89t-23.5 83q-23 -33 -42 -72.5t-37 -80t-37 -79.5t-43 -72q-18 -4 -27 1t-14 16t-7.5 25.5t-8.5 29.5q-41 113 -73 240
t-71 255q-6 18 -11.5 39.5l-11 43t-9 40t-4.5 30.5q21 12 34 -5t22 -46.5t15.5 -62.5t15.5 -51q15 -63 32 -126.5t35 -125.5t36.5 -120.5t37.5 -111.5z" />
    <glyph glyph-name="X" unicode="X" horiz-adv-x="482" 
d="M489 -8q-15 -7 -28.5 0.5t-25.5 22t-22.5 31.5t-19.5 30q-22 31 -43.5 66.5t-42.5 70.5t-42 68.5t-42 61.5q-15 -25 -30.5 -56.5t-30.5 -66t-30 -71t-29 -70.5q-5 -12 -10.5 -31t-13 -34t-19 -21t-29.5 8q0 4 -3 6q35 103 76 199.5t89 190.5q-38 60 -73 121t-77 119
q-6 9 -14.5 18t-15.5 18.5t-11 20.5t-1 24q15 7 27 2.5t22 -15.5t18.5 -25t16.5 -25q32 -48 66.5 -102t62.5 -99q21 35 38 74t33.5 79t35 77.5t42.5 69.5q19 -2 25.5 -8t5.5 -15t-7 -19.5t-12 -20.5q-17 -32 -31 -70.5t-32 -76.5q-8 -17 -17.5 -33t-17.5 -36q-4 -8 -9 -18.5
t-9.5 -21t-8 -19.5t-3.5 -13q0 -11 7 -25t17 -28.5t20.5 -28t17.5 -23.5q24 -36 43.5 -67.5t38.5 -62l38 -61t42 -64.5q4 -5 9.5 -10.5t9 -12t4.5 -13.5t-5 -15z" />
    <glyph glyph-name="Y" unicode="Y" horiz-adv-x="397" 
d="M411 718q-9 -57 -27.5 -106.5t-40.5 -100.5q-10 -22 -22 -46t-23 -47q-11 -21 -21.5 -36t-19 -31t-14 -36.5t-5.5 -52.5q0 -24 0.5 -52t2 -57t3 -57t3.5 -50q1 -15 4.5 -29t-10.5 -25q-7 -5 -14.5 -1t-15.5 4q-7 31 -10.5 65.5t-5 71t-2 72.5t-0.5 70q0 12 1 27.5
t-1 26.5q-4 21 -22.5 47.5t-31.5 48.5q-15 26 -29 49.5t-25 43.5q-28 51 -55 94.5t-50 88.5q0 6 4 8t9.5 3t11.5 1.5t11 2.5q57 -76 104 -162t97 -171q28 36 48.5 78.5t38.5 88.5t35.5 92.5t39.5 88.5q12 2 18 -3t14 -9z" />
    <glyph glyph-name="Z" unicode="Z" horiz-adv-x="426" 
d="M56 44q63 -8 138.5 -14t156.5 -1q10 1 24.5 2t26 -0.5t17 -7.5t-1.5 -19q-5 -14 -20 -12.5t-39 1.5q-61 -4 -124.5 -1.5t-121.5 4.5q-17 1 -37 1.5t-37.5 2.5t-30 6.5t-14.5 14.5q-2 7 2.5 18.5t11.5 23.5t14.5 24t11.5 20q40 71 77 143.5t74.5 144.5t76.5 142.5
t83 138.5q-30 3 -62.5 4t-65 1h-63t-57.5 2q-11 0 -22.5 0.5t-21.5 4t-16 11.5t-5 24h6q27 1 62 0t73.5 -2t77 -1.5t72.5 1.5q16 0 33 0.5t30.5 -1t22.5 -7t9 -16.5q0 -12 -12.5 -23t-19.5 -18q-23 -32 -42 -71.5t-42 -78.5q-31 -54 -62.5 -113t-62.5 -119t-61 -118.5
t-59 -111.5z" />
    <glyph glyph-name="bracketleft" unicode="[" horiz-adv-x="241" 
d="M127 694q-1 -3 -1 -11q-5 -85 0.5 -172t4.5 -177q-1 -84 0.5 -164.5t-3.5 -158.5q23 1 45.5 1t39.5 -7q3 -6 5.5 -12.5t0.5 -17.5q-12 -2 -29.5 -4.5t-36 -3.5t-35.5 0.5t-27 7.5q-1 0 -7 2q-7 10 -8 21t0.5 22t4.5 21.5t4 21.5q2 23 0 45t-2 46q-1 45 2.5 90t4.5 94
q0 25 -4.5 51t-6.5 53q-1 28 -0.5 52t2 47t2 47t-0.5 52q0 13 -1.5 28t-1 28.5t5 24t17.5 14.5h2v1h3q8 2 13 0q29 -1 60.5 0.5t52.5 -6.5q2 -7 5 -13t1 -17q-9 -2 -23.5 -4t-30 -3.5t-31 -1.5t-27.5 3z" />
    <glyph glyph-name="backslash" unicode="\" horiz-adv-x="333" 
d="M343 15q-5 -8 -16.5 -8.5t-25.5 -0.5q-42 75 -75.5 154.5t-71.5 160.5q-38 82 -68 163.5t-70 157.5q-3 6 -9 14.5t-9 17.5t0 16t18 9q13 1 22 -6.5t15 -19.5t10.5 -26t9.5 -26q10 -26 20.5 -47.5t21.5 -42.5t21.5 -42.5t20.5 -47.5q11 -25 17 -50.5t16 -48.5
q20 -45 42 -85t39 -80q10 -23 17.5 -43.5t18.5 -40.5q6 -9 13 -18t13 -18t9 -19.5t1 -22.5z" />
    <glyph glyph-name="bracketright" unicode="]" horiz-adv-x="241" 
d="M160 324q-1 -91 0.5 -177t-5.5 -171q-3 -1 -5.5 -2t-4.5 -2q-1 -1 -1 -4q-17 -3 -44.5 -6.5t-51.5 -1.5t-37.5 11.5t-1.5 32.5q23 -2 48 0t48 0q1 13 4 25t5 24q2 23 0.5 45t-2.5 46q-1 45 2.5 90t4.5 94q0 25 -4.5 51t-6.5 53q-1 28 -0.5 52t2 47t2 47t-0.5 52
q0 14 -2 29.5t0 29.5q-19 -2 -38 -2t-32.5 4.5t-19 14t3.5 26.5q16 -1 33.5 -0.5t34.5 0.5t33 -1t28 -5q0 -2 0.5 -2t0.5 -1t1 -1q1 -2 2 -4.5t2 -5.5q1 -6 0 -16q-1 -7 -2 -13t-1 -10q-5 -85 0.5 -172t4.5 -177z" />
    <glyph glyph-name="asciicircum" unicode="^" horiz-adv-x="600" 
d="M304 697q14 -5 21.5 -17.5t14.5 -24.5q42 -66 96 -131.5t114 -126.5q10 -10 18.5 -20t11.5 -20t-1 -19.5t-20 -18.5q-70 78 -137 155.5t-130 162.5q-26 -17 -51 -40.5t-48.5 -52t-46 -59.5t-43.5 -61q-6 -9 -15.5 -24.5t-21.5 -27.5t-25 -16t-25 11q109 201 288 330z" />
    <glyph glyph-name="underscore" unicode="_" horiz-adv-x="500" 
d="M408 -113q-40 -1 -82.5 -2.5t-91.5 -6.5q-14 -2 -29 -4.5t-29 -4.5t-25.5 -2.5t-18.5 2.5q-5 2 -11 9.5t-4 17.5q2 8 7.5 11t13 3t16.5 -1t17 -1q21 1 48 4.5t57 7t60 5.5t57 1q6 -7 13 -17t2 -22z" />
    <glyph glyph-name="grave" unicode="`" 
d="M144 603q-5 -7 -9 -17t-15 -11q-16 8 -22.5 21t-20.5 29q-16 17 -37 32t-37.5 30t-22.5 30.5t9 33.5q18 -7 39.5 -22.5t42.5 -36t40 -44t33 -45.5z" />
    <glyph glyph-name="a" unicode="a" horiz-adv-x="396" 
d="M309 355q2 -8 9.5 -10.5t11.5 -9.5q1 -6 -1.5 -8.5l-5 -5t-4.5 -5t-1 -8.5q15 -61 33 -123t37 -121q6 -18 13 -37.5t2 -38.5q-9 -5 -18.5 -3t-19.5 3q-26 80 -49.5 160.5t-44.5 165.5q-35 4 -75 1t-72 -10q-20 -57 -37 -126.5t-39 -131.5q-3 -8 -6 -19t-8.5 -20
t-14 -12.5t-21.5 4.5q-1 23 9.5 43t16.5 42q19 68 36.5 136t34.5 135.5t36 135t43 134.5q8 22 17.5 45.5t17.5 36.5q13 9 22 3t15.5 -19t11 -30t7.5 -30q7 -32 13 -69t11 -73.5t10 -71.5t10 -63zM133 344q32 2 63 4t66 2q-8 71 -17.5 140.5t-26.5 132.5q-26 -66 -45 -137.5
t-40 -141.5z" />
    <glyph glyph-name="b" unicode="b" horiz-adv-x="476" 
d="M77 717q34 3 69.5 1t68.5 -8.5t62 -17.5t49 -26q28 -21 43 -57.5t13.5 -75t-21 -72t-59.5 -47.5q44 -7 75.5 -30.5t49.5 -59t22 -81t-6 -96.5q-18 -79 -79 -118t-152 -47q-42 -4 -86.5 4t-72.5 32q-2 90 0.5 178.5t6 175.5t6.5 172t2 167q2 2 4 3t5 3zM347 555
q-1 10 -6 22t-12 24t-15 22t-15 16q-32 26 -82 35t-104 10q-6 -2 -6 -9q2 -32 2 -62.5t-0.5 -60.5t-1 -61t-0.5 -65q44 0 88.5 4.5t79.5 18.5t55.5 39.5t16.5 66.5zM347 60q16 12 29 35t21.5 50.5t12 58t0.5 57.5q-6 45 -34.5 73t-70.5 41.5t-93.5 15.5t-104.5 -4
q-2 -36 -5 -78.5t-6 -88.5t-4.5 -93.5t0.5 -93.5q31 -9 66 -12.5t69.5 -0.5t65.5 13t54 27z" />
    <glyph glyph-name="c" unicode="c" horiz-adv-x="465" 
d="M411 639q-15 -1 -24.5 3t-16.5 10t-13 12.5t-15 10.5q-15 6 -33 7t-37 -1.5t-36.5 -8t-31.5 -12.5q-37 -18 -63.5 -58.5t-42 -94t-21 -114.5t0 -119.5t20.5 -110t40 -85.5q16 -22 41 -36.5t54 -19t59 2.5t56 29q20 18 29.5 44t27.5 49q23 -11 25 -28.5t-6 -34.5
t-21.5 -32t-21.5 -22q-26 -22 -62.5 -37t-78.5 -11q-66 7 -108 43.5t-65.5 93.5t-30.5 130t-2 153q3 44 11.5 88t24 82t38 68t54.5 47q21 11 47 19t53 10.5t54 -1.5t50 -16q18 -10 33.5 -23.5t11.5 -36.5z" />
    <glyph glyph-name="d" unicode="d" horiz-adv-x="505" 
d="M54 726q11 -2 16.5 -7t13.5 -8q43 -10 84 -21.5t78 -27t69.5 -36.5t59.5 -50q42 -43 64.5 -111.5t13.5 -146.5q-2 -17 -8.5 -41.5t-15.5 -50t-19.5 -49t-19.5 -39.5q-20 -39 -56.5 -72.5t-83 -53.5t-100.5 -22t-108 22q-6 86 -6.5 175t1 179t4.5 179t4 175q4 4 9 6z
M90 660q-2 -82 -5.5 -161t-5 -157t-0.5 -154t8 -152q39 -9 78 -7t72 16q34 14 65 48t54.5 76.5t38 87t16.5 79.5q3 31 -1 62t-13 58.5t-21.5 51t-27.5 41.5q-45 51 -112.5 78t-142.5 42q-3 -2 -3 -9z" />
    <glyph glyph-name="e" unicode="e" horiz-adv-x="457" 
d="M424 712q-6 -8 -14.5 -11t-19 -4t-21.5 -0.5t-20 0.5q-29 -1 -61.5 -2t-64.5 -2.5t-62 -4.5t-55 -9q1 -143 -3 -309q45 -4 95.5 -5.5t99.5 2.5q15 1 31.5 4t31.5 4t27.5 -3t20.5 -17q-14 -14 -37.5 -15t-46.5 -3q-51 -5 -108 -6.5t-111 0.5q-3 -44 -6 -83t-6 -76.5
t-4.5 -75.5t-1.5 -80q30 -5 62 -4.5t64 2.5t64 5t62 3q25 0 50.5 -3.5t42.5 -14.5q-6 -15 -17.5 -19t-25 -3.5t-28.5 4t-28 3.5q-33 0 -70 -3.5t-74.5 -5.5t-73.5 -1t-67 10q-3 87 -0.5 179.5t6 185.5t5.5 183t-2 172q25 10 59 14.5t72 6t77 1.5t74 2q10 0 25 2t28.5 1
t22.5 -6t8 -18z" />
    <glyph glyph-name="f" unicode="f" horiz-adv-x="431" 
d="M428 692q-31 -17 -74.5 -20t-91.5 -1.5t-95 2.5t-85 -9q8 -69 6.5 -138.5t-0.5 -147.5q37 -4 73.5 -9.5t73.5 -7.5q15 0 32.5 2.5t35 3.5t33.5 -1t29 -11q-3 -9 -10.5 -14.5t-17.5 -8.5t-20 -4t-19 -2q-26 -2 -52.5 0t-53.5 5t-53 6t-51 3q-5 -41 -4 -84.5t2.5 -88
t1.5 -87.5t-6 -83q-8 -6 -18.5 -2.5t-19.5 5.5q-3 87 -2.5 176.5l1 179t-0.5 177.5t-7 174q2 3 4 3.5t5 2.5q31 -1 71.5 -1h83t83.5 0.5t74 0.5q20 0 41 -1t31 -20z" />
    <glyph glyph-name="g" unicode="g" horiz-adv-x="579" 
d="M442 666q-11 -3 -19 -2t-14.5 4t-12.5 6t-14 4q-35 3 -66 -7.5t-58 -29t-50 -41.5t-42 -45q-33 -38 -55.5 -94t-28.5 -116t8 -116t55 -94q9 -8 22.5 -15.5t25.5 -17.5t21.5 -21.5t20.5 -17.5q12 -7 36.5 -16.5t53 -16t56.5 -8t46 7.5q15 7 26.5 27.5t20 47t14 55.5
t8.5 53q3 30 2.5 57t-5.5 51q-24 -1 -50.5 -5t-51.5 -6t-48 1t-39 16q2 13 11 17.5t21.5 5.5t26 -0.5t25.5 -1.5q19 1 40.5 4t41.5 5t38 0.5t30 -9.5q6 -33 7 -71.5t-2.5 -76t-11.5 -72.5t-20 -62q-16 -33 -40.5 -55t-73.5 -20q-28 1 -57 6t-56 12.5t-50.5 17.5t-40.5 21
q-13 8 -23 20.5t-22 21.5q-14 10 -27.5 18t-23.5 18q-39 39 -52.5 93t-10.5 112t20 112.5t40 93.5q7 13 18 27.5t24 29t27 27.5t27 24q28 23 65.5 42.5t69.5 23.5q42 5 72.5 -2.5t44.5 -42.5z" />
    <glyph glyph-name="h" unicode="h" horiz-adv-x="509" 
d="M449 27q-10 -2 -13.5 -1t-14.5 1q-11 94 -16 196t1 196q-43 4 -83 0.5t-78.5 -10t-75.5 -15t-75 -14.5q-1 -47 1.5 -95.5t6 -97t6.5 -96.5t3 -95q-5 -4 -18.5 -4.5t-15.5 6.5q-23 152 -27 319t4 334q1 17 -1 33t7 26q18 -2 31 -8q4 -33 4.5 -66.5t-0.5 -69t-2 -73
t1 -77.5q74 15 150 31t160 15q8 24 9 59t0.5 71.5t0 70t7.5 53.5q2 5 3 7t8 4q11 1 16 -8t6.5 -22.5t1 -29t-0.5 -27.5q0 -85 -7.5 -167t-7.5 -161q0 -36 3 -75.5t5.5 -77.5t3.5 -72.5t-3 -59.5z" />
    <glyph glyph-name="i" unicode="i" horiz-adv-x="182" 
d="M112 706q-4 -135 -9 -272.5t0 -284.5q3 -42 5.5 -79t-7.5 -69q-6 -2 -15.5 -4.5t-13.5 4.5q-12 7 -9.5 20t2.5 24q-4 84 -4.5 168.5t-2.5 169.5q0 81 -1 163.5t10 160.5q3 5 9.5 7t13.5 1.5t13 -3t9 -6.5z" />
    <glyph glyph-name="j" unicode="j" horiz-adv-x="577" 
d="M562 712q-6 -13 -20 -14t-27 -3q-36 -5 -79.5 -10t-86.5 -6q7 -50 11.5 -105.5t6 -113t-0.5 -116t-6 -114.5q-3 -37 -8.5 -71.5t-16 -64.5t-26.5 -53.5t-40 -37.5q-18 -10 -40 -12.5t-43.5 0.5t-42 11t-35.5 18q-21 15 -34.5 39t-19 53t-2.5 60.5t15 60.5
q17 -7 21.5 -22.5t4 -35t-2 -40t3.5 -37.5q6 -22 18 -33.5t24 -28.5q46 -24 87 -12.5t62 47.5q15 24 22.5 56.5t11.5 71t5 80.5t3 85q4 88 0 169t-8 144q-28 4 -61 0t-63.5 -6.5t-55.5 2t-37 25.5q17 11 35.5 9.5t36.5 -0.5q81 4 167 9.5t161 12.5q8 0 17.5 1t18 0.5
t15 -4.5t9.5 -14z" />
    <glyph glyph-name="k" unicode="k" horiz-adv-x="455" 
d="M83 709q10 -35 13 -77.5t3 -88.5t-1.5 -93.5t0.5 -91.5q63 46 124.5 99.5t121.5 107.5q8 7 17.5 18.5t20 20t23 10.5t26.5 -10q1 -15 -12 -24t-24 -18q-32 -26 -63.5 -58.5t-65.5 -58.5q24 -60 48.5 -126t56.5 -126q25 -47 54 -93q14 -23 27 -47.5t21 -51.5
q-18 -7 -31.5 -0.5t-23 19t-16.5 27.5t-13 26q-45 78 -85.5 164.5t-70.5 174.5q-38 -22 -67.5 -52t-64.5 -56q1 -36 5 -74.5t7 -77.5t4 -77t-4 -74q-11 -1 -15.5 -1.5t-14.5 1.5q-10 13 -9 30t0 33q-2 44 -6 89.5t-8 92t-6.5 93.5t-0.5 94q3 64 1 134t-7 139q0 7 4.5 8.5
t10.5 1t12 -3t9 -3.5z" />
    <glyph glyph-name="l" unicode="l" horiz-adv-x="444" 
d="M96 714q14 -28 13 -62.5t-1 -69.5q0 -36 4 -71t2 -67q-8 -103 -9.5 -199.5t6.5 -202.5q26 -2 55 -6t59 -6q27 -2 54.5 0t52.5 2t46 -5t36 -21q-11 -9 -25 -11.5t-29 -2t-30.5 2.5t-29.5 2q-57 2 -114 5.5t-114 15.5q-9 83 -9.5 170t2 175t3.5 175t-5 170q-1 6 3 8t10 1.5
t11.5 -2t8.5 -1.5z" />
    <glyph glyph-name="m" unicode="m" horiz-adv-x="678" 
d="M643 -6q-20 -13 -32 0t-18.5 36t-10 50t-5.5 42q-8 58 -18 120.5t-20.5 124.5t-21.5 121t-21 109q-7 -29 -22.5 -76t-34 -95t-36.5 -89.5t-30 -60.5q-14 -1 -24.5 5.5t-18.5 16.5t-14 22t-12 22q-35 66 -68.5 140t-64.5 143q-10 -30 -15.5 -65.5t-8.5 -74.5t-5 -81
t-5 -84q-5 -45 -7.5 -84.5t-9.5 -90.5q-3 -17 -6.5 -48.5t-10 -59.5t-19 -43t-33.5 0q10 81 23 169t21 182q4 46 7 93t7 92.5t10 89t17 83.5q15 4 27 -1t21.5 -15t16.5 -22t12 -22q14 -23 24 -50t20 -50q23 -51 50 -103.5t50 -97.5q13 15 25 43t23.5 63t22 74t20.5 75
t18.5 66.5t16.5 48.5q15 9 22.5 7t11 -10.5t5 -21.5t4.5 -27q10 -37 19 -78.5t15 -86.5q5 -42 13.5 -81t15.5 -84q16 -91 31.5 -176t22.5 -160z" />
    <glyph glyph-name="n" unicode="n" horiz-adv-x="526" 
d="M457 719q6 -81 9.5 -172.5t6.5 -185.5t7.5 -185.5t14.5 -172.5q-14 -8 -24 -5.5t-17.5 10t-13 18.5t-9.5 20q-15 31 -29 67t-28 72.5t-29 71.5t-32 65q-44 82 -91.5 162t-97.5 149q0 -18 -2.5 -69t-6.5 -118t-8 -141t-8 -138t-6.5 -109.5t-2.5 -55.5q-9 -3 -21 -5t-21 2
q3 81 6.5 163t8.5 160q7 100 11.5 196.5t6.5 187.5q16 4 31 -1.5t27 -16t22 -23.5t18 -23q-2 1 10.5 -20t30 -51.5t37.5 -64t34.5 -57.5t19.5 -31.5t-7 13.5q15 -27 34 -64.5t37.5 -78t36 -79.5t29.5 -69q2 61 -1 136.5t-8 154.5t-9.5 155t-5.5 138q23 12 40 -5z" />
    <glyph glyph-name="o" unicode="o" horiz-adv-x="577" 
d="M253 723q6 1 17.5 1.5t25 -0.5t26.5 -2.5t22 -4.5q28 -7 57 -24t55 -39.5t47.5 -49t34.5 -53.5q26 -52 25 -115.5t-19 -138.5q-9 -40 -21.5 -81.5t-29 -79t-38 -68t-49.5 -49.5q-54 -34 -107 -35t-99 20.5t-81.5 60t-54.5 83.5q-22 53 -31 113t-5.5 120t19 117t43 103.5
t67 78.5t90.5 43q2 1 3 0.5t3 -0.5zM101 164q7 -19 22 -43t34.5 -46t40.5 -38t41 -20q21 -4 44 -0.5t44.5 11t40 17.5t29.5 20q43 41 66 103.5t37 131.5q4 19 8.5 40.5t8 42.5t5 41t0.5 37q-2 26 -10.5 49.5t-21.5 44t-27.5 38t-28.5 32.5q-35 36 -77 51t-107 7
q-60 -20 -101 -75t-60.5 -129t-17 -157t29.5 -158z" />
    <glyph glyph-name="p" unicode="p" horiz-adv-x="422" 
d="M102 296q-2 -37 -0.5 -77.5t0.5 -70.5q-1 -21 0.5 -41.5t2.5 -41t-0.5 -40t-8.5 -37.5q-9 -1 -16 0.5t-15 2.5q-7 86 -7.5 174t1.5 177t6 178t6 176q7 9 20.5 14t30 8t33.5 3.5t32 0.5q34 0 64 -10.5t54.5 -28t43 -41t29.5 -48.5q12 -29 13.5 -68.5t-5.5 -79.5
t-22.5 -74.5t-37.5 -53.5q-18 -15 -45 -26t-58 -15.5t-63 -0.5t-58 20zM306 350q18 17 28 43.5t14 57.5t1.5 63t-11 61t-23 53t-34.5 37q-32 20 -74 19t-93 -2q2 -97 -5 -184t-10 -174q31 -8 60 -12.5t55 -3t49.5 11.5t42.5 30z" />
    <glyph glyph-name="q" unicode="q" horiz-adv-x="588" 
d="M416 681q2 -8 -1 -12.5t1 -8.5q12 -17 27.5 -32.5t30.5 -32.5t29 -36.5t24 -42.5q18 -46 24 -108t-2 -119q-8 -54 -27 -105.5t-42 -93.5q6 -11 15 -19t17.5 -16.5t15 -18.5t8.5 -25q-14 -10 -25.5 -4.5t-20.5 16.5t-16 22t-13 11q-3 0 -9.5 -6t-14 -13t-14 -13.5
t-10.5 -7.5q-18 -9 -46.5 -16t-60 -9.5t-63 0.5t-56.5 14q-14 5 -29 13.5t-29.5 17.5t-25.5 17.5t-17 14.5q-18 18 -28 41.5t-15 51.5t-7 59t-4 64q-2 36 -5.5 71t-0.5 69q3 37 13 77t24.5 76t32.5 64t38 40q23 13 60.5 26t69.5 17q43 5 82 -7t70 -36zM489 513
q-17 38 -42 66t-49 56q-12 14 -21 23.5t-18.5 15.5t-22.5 8.5t-34 1.5q-21 -2 -44.5 -6.5t-45 -12t-40 -17t-29.5 -21.5q-30 -35 -46 -84.5t-22.5 -106t-5.5 -117.5t6 -118q2 -34 13 -68.5t27 -51.5q5 -6 16.5 -14t25.5 -16t28 -14.5t25 -9.5q28 -7 61.5 -8.5t65 5t57 22.5
t37.5 44q-13 25 -30 46.5t-34.5 42.5t-33 43.5t-25.5 49.5q16 6 27.5 1t20.5 -15.5t16 -23.5t14 -22q15 -23 35 -43.5t34 -40.5q19 36 33 85t20 101.5t2 104.5t-21 94z" />
    <glyph glyph-name="r" unicode="r" horiz-adv-x="441" 
d="M318 351q14 -45 23 -89t20 -92q11 -45 25 -88.5t18 -85.5q-16 -4 -25 1.5t-14.5 15.5t-8 22.5t-5.5 22.5q-9 31 -18 65.5t-17.5 69.5t-17.5 69t-18 64q-23 -7 -44 -16.5t-42.5 -18t-44.5 -14t-50 -4.5q-4 -29 -3.5 -65t2.5 -73.5t3.5 -72.5t0.5 -60q-8 -7 -17 -1.5
t-17 7.5q-10 85 -14.5 171.5t-5.5 173.5t0 174.5t1 174.5q30 12 65 17.5t69.5 5t66.5 -8.5t55 -23q27 -17 46.5 -44t30.5 -59.5t13 -67.5t-5.5 -67t-25 -59.5t-46.5 -44.5zM351 490q7 58 -11 101t-54 67.5t-86.5 30t-109.5 -10.5q1 -39 0.5 -85.5t-1 -96t0.5 -98t6 -91.5
q42 7 85.5 20.5t79.5 35.5t60.5 53.5t29.5 73.5z" />
    <glyph glyph-name="s" unicode="s" horiz-adv-x="526" 
d="M394 650q-14 3 -24.5 8.5t-20 11.5t-20 11.5t-24.5 7.5q-31 6 -68 -0.5t-59 -20.5q-14 -8 -29 -24.5t-26 -38.5t-16 -47.5t1 -50.5q7 -26 25.5 -42.5t38.5 -26.5q27 -14 61.5 -23.5t70.5 -20t70.5 -23.5t60.5 -33q25 -19 41.5 -49t21.5 -64.5t-2.5 -70.5t-30.5 -67
q-24 -34 -72 -61t-106 -33q-38 -4 -79 3t-77.5 22t-64 36.5t-37.5 46.5q-3 6 -6 18.5t-3.5 25t2 23.5t10.5 15q16 7 22.5 -0.5t9 -21.5t2.5 -29.5t3 -24.5q6 -18 22 -30.5t36.5 -21.5t43.5 -14t43 -8q46 -9 92 2t81.5 37.5t56 65t15.5 85.5q-4 36 -20.5 58t-41 36.5t-56 25
t-66.5 23.5q-36 13 -79 30t-77 43t-50.5 64t0.5 92q9 30 26.5 55.5t44 43.5t61 27t77.5 5q19 -2 39 -7t36.5 -14t27.5 -22.5t13 -32.5z" />
    <glyph glyph-name="t" unicode="t" horiz-adv-x="422" 
d="M411 683q-4 -7 -11.5 -9.5t-16 -3t-18 0.5t-18.5 1q-28 0 -52.5 -1t-53.5 1q4 -63 5 -138t0 -154t-2.5 -158t-2.5 -150q-1 -18 1 -36.5t-7 -34.5q-15 -4 -22 0t-9 12.5t-1.5 19t0.5 18.5q3 85 4 163t0.5 153t-2.5 150t-5 155q-23 9 -57.5 6.5t-67.5 -3t-58.5 5.5
t-31.5 32q37 4 71 4.5t68 -1t70.5 -3.5t78.5 -3q19 -1 40.5 0.5t41 1t34.5 -6.5t22 -22z" />
    <glyph glyph-name="u" unicode="u" horiz-adv-x="535" 
d="M56 718q19 1 26 -5t7.5 -16.5t-2.5 -25t-4 -29.5q-2 -28 0 -61t5 -67t6.5 -68.5t5.5 -65.5q5 -72 13.5 -134t25.5 -110q6 -19 18.5 -42t28.5 -37q10 -9 28.5 -18t40.5 -14.5t46 -5t46 10.5q16 7 28.5 26t22 45t17 56.5t12 61.5t7.5 60t4 51q3 54 0.5 119t-8.5 131
q-2 16 -5.5 33t-5.5 33.5t-1.5 32.5t6.5 30q15 1 22 -4.5t10 -14.5t3.5 -19.5t2.5 -19.5q8 -44 13 -96.5t7 -109t0 -113.5t-9 -109.5t-20 -97.5t-32 -77q-17 -26 -47 -41t-66 -17.5t-74 7.5t-69 33q-30 22 -49 59t-31 83t-18.5 98t-10.5 104q-7 78 -12 150t1 144
q1 13 3.5 27.5t7.5 22.5z" />
    <glyph glyph-name="v" unicode="v" horiz-adv-x="427" 
d="M413 736q-9 -53 -22.5 -100.5t-29 -93t-32 -91.5t-31.5 -95q-14 -43 -30.5 -93.5t-30.5 -92.5q-7 -22 -10.5 -48t-12.5 -52q-4 -11 -9.5 -23.5t-11.5 -24t-13 -19.5t-14 -9q-16 -1 -27 19t-19 47t-13 54t-8 40q-29 116 -48.5 231.5t-41.5 238.5q-5 23 -13 44.5t-6 44.5
q24 -2 36.5 -17t18.5 -36.5t7.5 -45t4.5 -41.5q9 -63 22 -127.5t27 -127.5t29 -125t28 -121q16 38 28 80.5t26 85.5q26 84 52 167t53 168q14 45 24.5 89t29.5 77q2 2 2.5 7t6.5 6q12 1 16 -5.5t12 -10.5z" />
    <glyph glyph-name="w" unicode="w" horiz-adv-x="620" 
d="M33 709q31 -166 56.5 -331.5t63.5 -324.5q23 70 44 145.5t41 156.5q2 7 4.5 23t5.5 32t7.5 29.5t10.5 16.5q13 7 22.5 0t17 -19.5t12.5 -27.5l8 -24q14 -35 29.5 -73.5t31.5 -78.5t30.5 -79t26.5 -75q27 124 51.5 254t50.5 263q3 13 6.5 32t7.5 37t9.5 31.5t12.5 15.5
q16 4 22 -2.5t6.5 -18.5t-2 -26.5t-4.5 -25.5q-35 -159 -68.5 -317t-68.5 -314q-16 -2 -27 3.5t-19.5 15.5t-14 22t-9.5 23q-15 36 -27.5 73.5t-25 75.5t-26 74.5t-28.5 69.5q-28 -74 -47 -152t-45 -160q-3 -9 -7 -22.5t-8.5 -27t-9.5 -23.5t-11 -12q-18 -4 -30 14t-20 45
t-12.5 55t-7.5 45l-37 189q-10 54 -14.5 103.5t-13.5 97.5q-8 51 -18.5 97.5t-14.5 97.5q2 8 7.5 9t11.5 -1t11.5 -5.5t8.5 -5.5z" />
    <glyph glyph-name="x" unicode="x" horiz-adv-x="374" 
d="M172 403q29 64 62 126.5t65 125.5q8 19 18.5 42.5t33.5 31.5q8 -12 8 -24.5t-4.5 -25.5t-11 -25.5t-11.5 -22.5q-21 -49 -45 -91t-47 -94q-4 -10 -11 -22.5t-14 -25.5t-12 -25.5t-5 -21.5q0 -8 4 -19.5t9.5 -24t11.5 -24.5t11 -21q23 -43 43.5 -81.5t41.5 -81.5
q5 -9 11 -19.5t10.5 -21.5t5 -22.5t-6.5 -22.5q-12 0 -21 6t-15.5 15t-11 19t-8.5 19q-26 54 -55.5 110t-55.5 110q-38 -75 -73 -153.5t-77 -150.5q-9 2 -14.5 6.5t-12.5 6.5q10 36 23.5 68.5t28.5 64t31.5 63t32.5 65.5q4 9 10.5 21t12.5 24.5t10 24t4 19.5q0 7 -4 18
t-10 23t-12.5 24t-10.5 21q-9 23 -17 44t-15 42t-13.5 44t-12.5 51q-6 27 -16 54t-6 48q3 6 10 9q12 1 19.5 -8t12 -22.5t7.5 -30t7 -29.5q15 -66 37 -128.5t48 -107.5z" />
    <glyph glyph-name="y" unicode="y" horiz-adv-x="418" 
d="M412 706q-17 -66 -44 -135t-50 -135q-10 -29 -23.5 -54.5t-17.5 -57.5q-6 -42 -6.5 -84.5t-2.5 -85.5q-2 -42 -1 -85t-14 -80q-16 0 -22.5 6t-8 15t0 20t1.5 21q1 31 0.5 68.5t2.5 75.5q2 35 7.5 75t-1.5 72q-2 10 -13 22.5t-20 24.5q-23 30 -46 70.5t-42 70.5
q-16 25 -32 47.5t-33 43.5q-8 9 -17.5 19t-18 21t-15 23t-7.5 25q14 2 25.5 -3.5t21 -15t17.5 -20.5t15 -20q48 -60 91 -126t85 -129q20 37 34.5 79.5t28 86t28.5 85.5t36 78q11 4 22.5 -3t18.5 -15z" />
    <glyph glyph-name="z" unicode="z" horiz-adv-x="387" 
d="M366 696q-32 -92 -72.5 -175.5t-85 -163.5t-90 -159t-87.5 -161q63 5 133.5 7.5t137.5 10.5q16 2 35.5 5.5t37 3.5t30.5 -6t17 -24q-12 -14 -28.5 -13t-38.5 -1q-43 -5 -96 -9t-107 -6q-33 -2 -64 -6.5t-57 -2.5q-30 2 -40 12t-7.5 25.5t12 34t18.5 37.5q30 61 66.5 121
t68.5 114q49 81 88 167.5t74 164.5q-54 -2 -110.5 -10t-122.5 -10q-12 0 -25.5 -1t-24.5 0.5t-18.5 8t-7.5 21.5q16 7 33 9.5t35.5 3t37.5 0.5t38 2q35 3 70.5 9t67.5 8q11 1 23 2.5t23 0.5t20.5 -5.5t15.5 -14.5z" />
    <glyph glyph-name="braceleft" unicode="{" horiz-adv-x="376" 
d="M334 708q-4 -8 -10 -9.5t-12.5 0t-13 4t-12.5 2.5q-17 -1 -32 -9.5t-28 -21t-22 -28t-14 -31.5q-10 -33 -12 -71t-5.5 -74t-12.5 -66t-33 -47q11 -17 25 -30t23 -33q11 -22 14.5 -50t4 -57.5t1 -58.5t5 -53t15 -40t32.5 -20q9 -2 20 -1.5t21 0t17 -4t8 -12.5
q1 -10 -8.5 -14t-22.5 -4.5t-26 1t-18 2.5q-9 2 -25.5 9t-22.5 12q-17 14 -25 39t-11.5 55t-4.5 63.5t-4.5 64.5t-12 57t-26.5 42q-3 2 -10 4.5t-14.5 6t-13.5 8.5t-7 11q0 5 8 13.5t18.5 18.5t20.5 19.5t13 17.5q4 9 6 21.5t3 20.5q3 32 5 66t7 65.5t15 58.5t30 47
q19 18 46 31.5t65 7.5q6 -1 13.5 -2.5t13.5 -5t9 -9.5t0 -16z" />
    <glyph glyph-name="bar" unicode="|" horiz-adv-x="222" 
d="M92 -20q-7 10 -8 21t0.5 22t4.5 21.5t4 21.5q2 23 0.5 45t-1.5 46q-1 45 2.5 90t3.5 94q0 24 -4.5 50.5t-5.5 53.5q-1 28 -0.5 52t2 47t2 47t-0.5 52q0 13 -1.5 28t-1 28.5t5 24t17.5 14.5q15 4 20.5 -1t6 -14t-1.5 -19.5t-2 -17.5q-5 -87 1 -173t5 -177q-2 -90 0 -176
t-6 -171q-11 -5 -22.5 -9.5t-19.5 0.5z" />
    <glyph glyph-name="braceright" unicode="}" horiz-adv-x="333" 
d="M252 319q-10 -12 -21.5 -22t-21.5 -22t-17.5 -27t-8.5 -37q-2 -24 0 -50.5t2 -52t-5 -48t-21 -38.5q-4 -4 -13 -10.5t-17 -10.5q-12 -5 -29.5 -8.5t-33.5 -2t-26 8.5t-7 23q9 5 21.5 6l25 2t24 4t19.5 12q11 13 14.5 30.5t3.5 37.5t-1.5 42.5t-1.5 45.5q1 42 15.5 68.5
t32.5 45.5q-14 10 -26 20.5t-25 21.5q-16 31 -17 75t0.5 90t-1 88.5t-21.5 70.5q-18 3 -35 7t-22 20q7 13 22 13.5t31.5 -6t31 -16.5t20.5 -18q12 -17 15.5 -44.5t3 -60.5t-2 -67.5t0.5 -66t10 -56.5t27 -38q9 -6 14.5 -7l11 -2t12 -5t16.5 -16z" />
    <glyph glyph-name="asciitilde" unicode="~" horiz-adv-x="640" 
d="M579 351q11 -17 10.5 -36t-8 -38.5t-20 -37.5t-24.5 -32q-10 -11 -21.5 -22t-25.5 -19t-30.5 -11.5t-36.5 1.5q-33 8 -57.5 30t-53.5 48q-11 9 -25.5 18t-31.5 21q-15 11 -28 25t-26 14q-9 0 -18.5 -6t-18.5 -14t-16 -16.5t-10 -14.5q-5 -8 -8 -23l-6 -30t-7.5 -27
t-11.5 -13q-17 -3 -21 11.5t-1 34t8.5 37.5t7.5 22q7 13 19.5 28.5t28.5 26.5t36 15.5t42 -4.5q18 -8 40.5 -28.5t46.5 -37.5q15 -11 29 -25.5t29 -27.5t31 -22t34 -9q21 0 42 16.5t37.5 40t27.5 50t13 46.5q-2 9 7 9h17z" />
    <glyph glyph-name="Euro" unicode="&#x20ac;" horiz-adv-x="621" 
d="M566 653q-18 1 -35.5 5t-35.5 8.5t-37 7t-40 0.5q-51 -5 -87.5 -27.5t-66.5 -45.5q-21 -32 -43 -63.5t-33 -75.5q28 -4 67.5 -3.5t77.5 0.5q18 0 37.5 1.5t36.5 0t27.5 -10t10.5 -27.5q-15 -6 -33 -8.5t-37 -2.5t-38.5 1t-36.5 1q-29 0 -59 -2.5t-62 -0.5
q-5 -29 -7 -51.5t-2 -54.5q30 -5 63 -3.5t67 4t67.5 4t65.5 -4.5q2 -12 -1 -18.5t-5 -14.5q-26 -8 -60 -10t-69 -2t-68 -0.5t-57 -3.5q1 -48 12 -91t32.5 -78.5t52.5 -61.5t72 -38q54 -16 109.5 -7.5t108.5 25.5q7 -6 14 -11.5t10 -15.5q-11 -12 -27.5 -20.5t-35.5 -13.5
t-39.5 -7.5t-39.5 -3.5q-59 -2 -102.5 16t-78.5 44q-17 13 -35 25t-29 27q-15 21 -26 46t-18.5 52t-13 55t-11.5 55q-12 4 -27.5 5t-31.5 1t-31.5 -0.5t-27.5 0.5q-4 7 -9.5 18t0.5 19q10 8 25 9t31.5 -0.5t34 -3t33.5 0.5q4 25 4 53t2 56q-27 2 -46.5 -3.5t-41.5 -8.5
q-9 7 -13.5 18t-7.5 24q9 7 24 10t31.5 4t32.5 1.5t27 2.5q14 52 40.5 102t67 87.5t94.5 57.5t124 13q17 -2 34.5 -5t32 -10.5t24.5 -19.5t12 -31z" />
    <glyph glyph-name="quotesinglbase" unicode="&#x201a;" horiz-adv-x="204" 
d="M65 -94q0 12 5.5 23l11.5 23t9 25.5t-2 30.5q-27 -1 -32.5 13.5t1 29.5t22 23.5t30.5 -3.5q10 -8 16 -24.5t7 -36.5t-2.5 -41t-12 -36.5t-22 -23.5t-31.5 -3z" />
    <glyph glyph-name="florin" unicode="&#x192;" horiz-adv-x="601" 
d="M562 685q-49 4 -82.5 -7.5t-55.5 -34t-35 -55t-20 -69.5q14 -6 36.5 -5t43.5 0t37.5 -8.5t18.5 -31.5q-17 -6 -35.5 -6t-38 1.5t-38.5 2t-36 -3.5q-21 -51 -41.5 -109.5t-41.5 -119.5t-43.5 -120.5t-46.5 -113.5q-17 -38 -34.5 -75.5t-37.5 -63.5q-6 -8 -19 -21t-21 -15
q-15 -4 -30 -1t-26 10.5t-16.5 19t-2.5 25.5q6 4 11.5 2t11.5 -6.5t13 -8t15 -2.5q12 1 25 17.5t24.5 37.5t21 42.5t14.5 32.5q25 54 49 113t46.5 119.5t43.5 120t39 113.5q-16 3 -35.5 0.5t-39.5 -5t-39 -2t-34 9.5q-1 8 -4.5 13.5t-1.5 16.5q19 4 40.5 6t43.5 3.5l44 3
t41 5.5q9 22 17.5 50t19.5 54.5t26 49t37 34.5q11 6 32.5 11.5t43.5 6t39.5 -7.5t20.5 -29z" />
    <glyph glyph-name="quotedblbase" unicode="&#x201e;" horiz-adv-x="315" 
d="M193 -94q0 12 5.5 23l11.5 23t9 25.5t-2 30.5q-27 -1 -32.5 13.5t1 29.5t22 23.5t30.5 -3.5q10 -8 16 -24.5t7 -36.5t-2.5 -41t-12 -36.5t-22 -23.5t-31.5 -3zM65 -94q0 12 5.5 23l11.5 23t9 25.5t-2 30.5q-27 -1 -32.5 13.5t1 29.5t22 23.5t30.5 -3.5q10 -8 16 -24.5
t7 -36.5t-2.5 -41t-12 -36.5t-22 -23.5t-31.5 -3z" />
    <glyph glyph-name="ellipsis" unicode="&#x2026;" horiz-adv-x="1000" 
 />
    <glyph glyph-name="dagger" unicode="&#x2020;" horiz-adv-x="478" 
d="M238 714q4 -20 4 -45.5t-1.5 -52.5t-2.5 -53t3 -45q43 -6 87 0.5t86 8.5q3 -7 10.5 -16t1.5 -17q-8 -13 -27 -14.5t-37 -3.5q-29 -3 -59.5 -5t-61.5 2q-2 -39 -2 -89.5t1 -107.5t3 -117t3.5 -117t2.5 -108t1 -90q-21 -13 -30 -0.5t-12 35t-2.5 48.5t-0.5 41
q-3 46 -5 112.5t-3 138t-1 139v115.5q-15 12 -39 10t-46.5 -3.5t-38 4.5t-15.5 34q19 4 35 5.5t32 1.5t32.5 -1.5t36.5 -2.5q1 19 2 44.5t2 52t2 51t3 42.5q0 7 4.5 8.5t10.5 0.5t12 -3z" />
    <glyph glyph-name="daggerdbl" unicode="&#x2021;" horiz-adv-x="497" 
d="M302 692q-1 -40 0.5 -85.5t-3.5 -90.5q19 -6 41.5 -5t44 0t38.5 -6.5t24 -24.5q-16 -6 -32.5 -7.5t-34.5 -1t-37.5 2t-40.5 0.5q-1 -26 -2 -79t-1 -113v-117v-93q16 -6 36.5 -4.5t39.5 2.5t34 -2.5t20 -19.5q-11 -8 -27 -11t-34.5 -4t-37 -1t-34.5 -3q-3 -44 -5.5 -97.5
t2.5 -110.5q-8 -5 -19.5 -6.5t-20.5 3.5q-5 27 -5.5 52.5t0.5 51t2 52t0 55.5q-11 3 -28 5t-36 3t-38 1.5t-34 0.5q-5 0 -14 -1t-18 -0.5t-15.5 4t-6.5 12.5q-1 11 17.5 15.5t43.5 5t50.5 -0.5t39.5 -2q11 -1 19.5 -2.5t19.5 -0.5q1 36 2.5 91.5t2.5 114t0.5 112t-2.5 84.5
q-15 6 -35 6.5t-42 -0.5t-45 -1t-44 4q-5 1 -11.5 3.5t-11 6t-7 8.5t-0.5 12q10 8 22.5 10t26 0.5t27 -4t26.5 -3.5q24 -1 48 3t46 -3q6 45 5 94t4 94q10 9 22 4t18 -13z" />
    <glyph glyph-name="circumflex" unicode="&#x2c6;" 
d="M90 735q5 -2 8 -6.5t5 -9.5q16 -25 36.5 -49.5t42.5 -47.5q8 -8 2 -14.5t-18 -13.5q-13 15 -23.5 26t-20 22t-19 23t-21.5 28q-20 -12 -33.5 -30t-29.5 -41q-2 -3 -6.5 -7.5t-10 -7.5t-11.5 -2.5t-10 6.5q43 77 109 124z" />
    <glyph glyph-name="perthousand" unicode="&#x2030;" horiz-adv-x="1059" 
d="M497 785q24 -2 27 -14.5t-4.5 -29t-20.5 -34.5t-21 -31q-45 -72 -82.5 -146t-72.5 -145q-26 -53 -53.5 -103t-54.5 -98.5t-52 -96t-44 -95.5q-23 4 -28 16t-2 26.5t11 29t12 23.5q35 78 76 150.5t79 147.5q27 52 54 107t55 107.5t58 100t63 85.5zM135 695q35 5 70 -10
t58 -44q10 -12 19 -31t13.5 -39.5t4.5 -41t-7 -36.5q-9 -20 -33.5 -35t-56 -22t-65 -5.5t-60.5 14.5q-23 11 -35 37.5t-14.5 56.5t2.5 59t16 46q16 24 37 35t51 16zM240 611q-13 20 -39 26.5t-47 6.5q-24 1 -42.5 -12t-29 -34t-12.5 -48.5t8 -56.5q35 -18 74 -15.5
t66.5 20.5t36.5 47.5t-15 65.5zM551 460q32 0 53 -13t32.5 -34.5t14.5 -48.5t-1.5 -53.5t-15.5 -49.5t-28 -38q-7 -7 -17 -14t-20.5 -13.5t-20.5 -11.5t-16 -7q-38 -11 -70 -3.5t-54.5 28.5t-33 53.5t-4.5 72.5q2 16 11.5 37.5t23.5 43t32 39.5t37.5 27.5t39 7t37.5 -22.5z
M500 430q-20 -13 -37.5 -30.5t-30 -39.5t-18 -49.5t-0.5 -61.5q24 -20 51 -24t52.5 4t47 26t34 42.5t13 53t-16.5 57.5q-20 9 -45.5 12t-49.5 10zM701 268q-2 43 7.5 83.5t34.5 67.5q12 13 32 26.5t43.5 22.5t47 12t42.5 -5q18 -7 37 -23.5t35 -37.5t27 -43.5t12 -42.5
q1 -36 -19.5 -71t-53 -59.5t-73 -35.5t-78.5 0q-18 6 -31 17t-24 25.5t-20.5 31t-18.5 32.5zM972 342q-1 13 -8 27.5t-16.5 27.5t-21 22t-21.5 11q-26 7 -57 -6t-56 -37.5t-39 -58t-7 -67.5q15 -28 38.5 -40t49.5 -11t51.5 12.5t45.5 30t31.5 41.5t9.5 48z" />
    <glyph glyph-name="Scaron" unicode="&#x160;" horiz-adv-x="547" 
d="M424 645q-27 5 -45 16t-35.5 21t-39 14.5t-54.5 -3.5q-25 -6 -47.5 -24.5t-39 -43.5t-25 -53.5t-5.5 -56t18.5 -50.5t47.5 -36q28 -11 55.5 -12t52.5 -6q50 -11 96 -41.5t73.5 -75.5t30.5 -100.5t-32 -115.5q-21 -35 -66 -59t-97.5 -33.5t-106 -3.5t-90.5 30
q-11 6 -21.5 18.5t-20.5 29t-17 34.5t-10 35q-1 6 -2 13.5t-0.5 15.5t3 15.5t8.5 12.5q17 2 24 -5.5t9 -19t1.5 -23t1.5 -18.5q5 -20 16.5 -42t25.5 -33q25 -18 60 -21t60 -3q67 -1 115.5 29t71.5 75t17 98t-48 98q-23 24 -60 36t-77 20.5t-77 18.5t-59 30q-11 9 -20.5 24.5
t-17 34.5t-11 39.5t-2.5 39.5q3 50 31.5 89t71 60t92.5 21.5t96 -26.5q9 -5 19 -11.5t17.5 -14.5t11.5 -17.5t0 -19.5zM279 772q-5 2 -8 6.5t-5 9.5q-16 25 -37 49t-43 47q-8 8 -2 14.5t18 13.5q13 -15 23.5 -26t20 -22t19.5 -22.5t22 -27.5q19 12 32.5 30t29.5 42
q2 3 6.5 7.5t10 7.5t11 2.5t10.5 -6.5q-21 -38 -47.5 -69.5t-60.5 -55.5z" />
    <glyph glyph-name="guilsinglleft" unicode="&#x2039;" horiz-adv-x="259" 
d="M54 280q2 5 6.5 8t9.5 5q24 17 48.5 38t46.5 43q8 8 14.5 2.5t13.5 -17.5q-14 -14 -25.5 -24.5t-22 -20t-22.5 -19.5t-27 -22q13 -20 31 -33t41 -29q4 -2 8.5 -6.5t7.5 -9.5t2.5 -11t-6.5 -10q-38 20 -69.5 46.5t-56.5 59.5z" />
    <glyph glyph-name="OE" unicode="&#x152;" horiz-adv-x="902" 
d="M885 702q-41 -3 -88 -1t-96.5 3.5t-99.5 1t-96 -8.5q-11 -72 -13.5 -152.5t-6.5 -158.5q33 0 66.5 2t67.5 4t67.5 1.5t65.5 -4.5q4 -1 11.5 -1.5t14 -3t10.5 -7t3 -12.5q-2 -9 -17.5 -11.5t-37 -1.5t-44 3t-37.5 1q-48 -2 -89 -5t-83 -3q-3 -78 -4.5 -150t-3.5 -152
q61 -2 126.5 -11t136.5 -13q19 -1 40 0t40 -1.5t35 -9t25 -22.5q-19 -14 -49.5 -12.5t-67.5 3.5q-63 4 -129.5 8t-124.5 8q-10 1 -20.5 0t-20.5 -1.5t-19 1.5t-16 9q-23 -26 -58.5 -34t-73.5 -4.5t-74 16.5t-59 31q-17 13 -28.5 23t-20.5 20.5t-17 22.5t-19 28
q-16 24 -34 55.5t-23 69.5q-3 32 -1.5 67.5t3.5 67.5q3 28 11 58.5t19.5 60t25.5 57t30 50.5q14 21 31.5 41.5t36.5 38.5t37.5 31.5t35.5 20.5q25 11 53.5 12.5t55.5 -4t50 -17t38 -26.5q1 13 -0.5 29.5t7.5 22.5q29 4 69.5 4.5t84.5 0t87.5 -1.5t78.5 -1q19 0 39 0.5t36 -3
t25.5 -12.5t7.5 -28zM446 498q2 34 6 69.5t-4 64.5q-3 11 -12 19t-21 14t-24.5 10.5t-21.5 7.5q-51 17 -89.5 5.5t-64.5 -37.5q-38 -38 -70 -88t-53 -106t-27.5 -116t7.5 -117q5 -19 14 -38.5t19.5 -37t22 -33t21.5 -27.5q14 -15 33 -29.5t39.5 -25.5t41.5 -18t41 -8
q31 -1 49 5t30 17.5t21.5 27.5t22.5 34q6 50 8 100.5t3 101t2.5 102t5.5 103.5z" />
    <glyph glyph-name="quoteleft" unicode="&#x2018;" horiz-adv-x="204" 
d="M145 672q2 -15 -7 -23t-14 -22q-7 -17 -7.5 -34.5t1 -35.5t2.5 -35t-2 -33q-20 3 -32 21t-15.5 42.5t0 51t13.5 45.5t25.5 27t35.5 -4z" />
    <glyph glyph-name="quoteright" unicode="&#x2019;" horiz-adv-x="204" 
d="M67 493q-1 15 2.5 33.5t6.5 38.5t3.5 41t-6.5 43q-4 12 -11.5 20.5t-9.5 21.5q23 8 39 -4t24.5 -35t10 -51t-4.5 -53t-19.5 -41t-34.5 -14z" />
    <glyph glyph-name="quotedblleft" unicode="&#x201c;" horiz-adv-x="315" 
d="M207 709q9 -51 22 -96.5t38 -80.5q-5 -8 -13.5 -12.5t-22.5 -2.5q-31 33 -47.5 84.5t-18.5 104.5q1 6 6.5 8t12.5 1.5t13.5 -2.5t9.5 -4zM96 709q4 -17 5.5 -36.5t3 -39.5t4.5 -39.5t11 -37.5q3 -8 8 -14.5t9 -12.5t6.5 -12.5t0.5 -14.5q-15 -12 -26.5 -8.5t-20.5 15
t-15 28t-10 31.5q-10 35 -13.5 72t-4.5 66q5 8 19 6.5t23 -3.5z" />
    <glyph glyph-name="quotedblright" unicode="&#x201d;" horiz-adv-x="315" 
d="M255 703q-3 -26 -12.5 -52t-21.5 -52.5t-24.5 -52t-22.5 -50.5q-17 -4 -24.5 2.5t-14.5 12.5q22 51 44.5 100.5t39.5 106.5q11 -1 21 -3.5t15 -11.5zM141 691q-2 -23 -7.5 -55t-13.5 -62l-7.5 -27.5t-10 -32t-11 -27t-10.5 -12.5q-8 -2 -15 2.5t-12 6.5q0 29 7.5 55
t15.5 52t14.5 53t4.5 59q11 9 24.5 4t20.5 -16z" />
    <glyph glyph-name="bullet" unicode="&#x2022;" horiz-adv-x="500" 
d="M248 465q22 0 46 -12t41 -33t23.5 -50.5t-5.5 -65.5q-3 -10 -13.5 -21.5t-23.5 -21.5t-26.5 -17t-23.5 -9q-36 -6 -64.5 4.5t-47 31.5t-25.5 50t1 59q8 34 40.5 59.5t77.5 25.5z" />
    <glyph glyph-name="endash" unicode="&#x2013;" horiz-adv-x="500" 
d="M355 292q2 -8 7.5 -17.5t-1.5 -18.5q-16 -7 -30.5 -3t-35.5 3q-24 -1 -49 -7.5t-47 -9t-37.5 3t-19.5 28.5q17 9 43 15t55 8.5t59 2t56 -4.5z" />
    <glyph glyph-name="emdash" unicode="&#x2014;" horiz-adv-x="1000" 
d="M284 240q-8 6 -14 18.5t2 26.5q35 1 76.5 2.5t84.5 3.5t85.5 3.5t80.5 2.5q4 0 25 1.5t43.5 0t39 -8.5t12.5 -23q-3 -10 -11.5 -13.5t-19.5 -4t-22 1t-19 1.5q-78 2 -169.5 -6t-193.5 -6z" />
    <glyph glyph-name="tilde" unicode="&#x2dc;" 
d="M229 727q14 -21 9.5 -45.5t-20.5 -41.5q-6 -7 -15 -16t-19.5 -16t-22 -11t-23.5 -1q-21 5 -45.5 20.5t-41.5 31.5q-8 5 -11 11.5t-14 13.5q-9 7 -16 10.5t-16 3.5q-10 0 -19 -9t-12 -16q-3 -5 -5.5 -13t-5 -15.5t-5.5 -13t-7 -6.5q-11 -2 -15 7.5t-4.5 21.5t1.5 23t3 13
q4 8 13.5 18.5t21.5 19t25.5 12.5t27.5 -2q11 -5 25 -18t28 -24q9 -6 18 -15t18.5 -17t19.5 -13.5t22 -5.5q13 0 25 9t22 22.5t16.5 29t7.5 27.5q-1 5 4 5h10z" />
    <glyph glyph-name="trademark" unicode="&#x2122;" horiz-adv-x="440" 
d="M174 701q-1 -12 -6.5 -19.5t-13.5 -13t-17 -9.5t-17 -9q3 -34 3.5 -71t-3.5 -73q-10 -1 -17 1t-13 5q-6 12 -7 28t-0.5 32.5l1 33t-2.5 29.5q-14 0 -27.5 0.5t-17.5 11.5q6 11 20.5 20t32.5 16t36 13t31 11q5 2 9 -1t9 -5zM267 647q11 9 15.5 24.5t14.5 26.5h27
q9 -17 17.5 -40.5t14.5 -50t9 -53.5t1 -51q-12 -2 -18 2.5t-15 6.5q-8 27 -12 57.5t-12 56.5q-6 -6 -9 -15t-5.5 -18.5t-4.5 -19.5t-5 -19q-17 0 -26 7t-14 18.5t-7.5 24.5t-6.5 25q-16 -28 -22 -65t-14 -73q-11 -3 -19.5 -1t-16.5 7q-1 12 3.5 31.5t11.5 41t14.5 43.5
t12.5 40q2 9 3.5 18.5t5 16.5t9.5 10.5t18 -0.5q14 -5 18.5 -20t11.5 -31z" />
    <glyph glyph-name="scaron" unicode="&#x161;" horiz-adv-x="539" 
d="M409 650q-14 3 -24.5 8.5t-20 11.5t-20 11.5t-24.5 7.5q-31 6 -68 -0.5t-59 -20.5q-14 -8 -29 -24.5t-26 -38.5t-16 -47.5t1 -50.5q7 -26 25.5 -42.5t38.5 -26.5q27 -14 61.5 -23.5t70.5 -20t70.5 -23.5t60.5 -33q25 -19 41.5 -49t21.5 -64.5t-2.5 -70.5t-30.5 -67
q-24 -34 -72 -61t-106 -33q-38 -4 -79 3t-77.5 22t-64 36.5t-37.5 46.5q-3 6 -6 18.5t-3.5 25t2 23.5t10.5 15q16 7 22.5 -0.5t9 -21.5t2.5 -29.5t3 -24.5q6 -18 22 -30.5t36.5 -21.5t43.5 -14t43 -8q46 -9 92 2t81.5 37.5t56 65t15.5 85.5q-4 36 -20.5 58t-41 36.5t-56 25
t-66.5 23.5q-36 13 -79 30t-77 43t-50.5 64t0.5 92q9 30 26.5 55.5t44 43.5t61 27t77.5 5q19 -2 39 -7t36.5 -14t27.5 -22.5t13 -32.5zM263 772q-5 2 -8 6.5t-5 9.5q-16 25 -37 49t-43 47q-8 8 -2 14.5t18 13.5q13 -15 23.5 -26t20 -22t19.5 -22.5t22 -27.5q19 12 32.5 30
t29.5 42q2 3 6.5 7.5t10 7.5t11 2.5t10.5 -6.5q-21 -38 -47.5 -69.5t-60.5 -55.5z" />
    <glyph glyph-name="guilsinglright" unicode="&#x203a;" horiz-adv-x="259" 
d="M204 269q-2 -5 -6.5 -8t-9.5 -5q-24 -17 -48 -38.5t-46 -43.5q-8 -9 -14.5 -3.5t-13.5 17.5l25 25t21.5 20.5t22 20t26.5 22.5q-13 19 -31 32t-42 29q-4 1 -8.5 5.5t-7.5 9.5t-2.5 10.5t6.5 10.5q38 -20 70 -45.5t58 -58.5z" />
    <glyph glyph-name="oe" unicode="&#x153;" horiz-adv-x="889" 
d="M103 168q7 -19 22 -43t34.5 -46t40.5 -38t41 -20q21 -4 44 -0.5t44.5 11t40 17.5t29.5 20q43 41 66 103.5t37 131.5q4 19 8.5 40.5t8 42.5t5 41t0.5 37q-2 26 -10.5 49.5t-21.5 44t-27.5 38t-28.5 32.5q-35 36 -77 51t-107 7q-60 -20 -101 -75t-60.5 -129t-17 -157
t29.5 -158zM802 25q25 0 50.5 -3.5t42.5 -14.5q-6 -15 -17.5 -19t-25 -3.5t-28.5 4t-28 3.5q-33 0 -70 -3.5t-74.5 -5.5t-73.5 -1t-67 10q-3 90 0 187q-18 -50 -43.5 -92t-60.5 -65q-54 -34 -107 -35t-99 20.5t-81.5 60t-54.5 83.5q-22 53 -31 113t-5.5 120t19 117t43 103.5
t67 78.5t90.5 43q2 1 3 0.5t3 -0.5q6 1 17.5 1.5t25 -0.5t26.5 -2.5t22 -4.5q25 -6 50 -19.5t48.5 -32t44 -40.5t35.5 -45q0 67 -3 129q25 10 59 14.5t72 6t77 1.5t74 2q10 0 25 2t28.5 1t22.5 -6t8 -18q-6 -8 -14.5 -11t-19 -4t-21.5 -0.5t-20 0.5q-29 -1 -61.5 -2
t-64.5 -2.5t-62 -4.5t-55 -9q1 -143 -3 -309q45 -4 95.5 -5.5t99.5 2.5q15 1 31.5 4t31.5 4t27.5 -3t20.5 -17q-14 -14 -37.5 -15t-46.5 -3q-51 -5 -108 -6.5t-111 0.5q-3 -44 -6 -83t-6 -76.5t-4.5 -75.5t-1.5 -80q30 -5 62 -4.5t64 2.5t64 5t62 3z" />
    <glyph glyph-name="Ydieresis" unicode="&#x178;" horiz-adv-x="392" 
d="M411 718q-9 -57 -27.5 -106.5t-40.5 -100.5q-10 -22 -22 -46t-23 -47q-11 -21 -21.5 -36t-19 -31t-14 -36.5t-5.5 -52.5q0 -24 0.5 -52t2 -57t3 -57t3.5 -50q1 -15 4.5 -29t-10.5 -25q-7 -5 -14.5 -1t-15.5 4q-7 31 -10.5 65.5t-5 71t-2 72.5t-0.5 70q0 12 1 27.5
t-1 26.5q-4 21 -22.5 47.5t-31.5 48.5q-15 26 -29 49.5t-25 43.5q-28 51 -55 94.5t-50 88.5q0 6 4 8t9.5 3t11.5 1.5t11 2.5q57 -76 104 -162t97 -171q28 36 48.5 78.5t38.5 88.5t35.5 92.5t39.5 88.5q12 2 18 -3t14 -9zM100 794q-5 27 4.5 39.5t22.5 13.5t25.5 -8t13.5 -24
q0 -11 -7 -20t-17 -13t-21.5 -1.5t-20.5 13.5zM259 800q-5 27 4.5 39.5t22.5 13.5t25.5 -8t13.5 -24q0 -11 -7 -20t-17 -13t-21.5 -1.5t-20.5 13.5z" />
    <glyph glyph-name="uni00A0" unicode="&#xa0;" horiz-adv-x="278" 
 />
    <glyph glyph-name="exclamdown" unicode="&#xa1;" horiz-adv-x="259" 
d="M117 415q16 2 25 -2t17 -9q-2 -67 0 -141t2.5 -148.5t-1 -147t-8.5 -137.5q-8 -11 -21.5 -8.5t-20.5 10.5q-8 10 -4.5 27t5.5 33q2 19 -1.5 37.5t-1.5 40.5q2 46 4.5 98t0.5 103q-1 34 -3.5 67t-3 64t1 59.5t9.5 53.5zM110 534q20 1 34 -6t15 -22q1 -19 -13.5 -23.5
t-28 1t-19.5 19.5t12 31z" />
    <glyph glyph-name="cent" unicode="&#xa2;" horiz-adv-x="543" 
d="M320 640q-2 -21 -4.5 -32.5t-1.5 -30.5q21 -3 45 -5.5t44 -8.5t32.5 -17.5t11.5 -32.5q-12 3 -28 8.5t-34 9t-37 4t-37 -6.5q-4 -63 -3 -127t3.5 -127t4.5 -125t1 -120q44 -4 82 13q12 6 24 16t24 17.5t24 8t24 -14.5q-22 -30 -66.5 -53.5t-105.5 -25.5q-5 -7 -4.5 -19
l1 -24t-1 -23t-10.5 -16q-15 -1 -21 7t-7.5 20t-0.5 26t-1 26q-55 6 -101.5 30.5t-78 64.5t-45 93t-2.5 115q9 51 26.5 96.5t45 82t65 62.5t87.5 37q-1 24 1 45.5t8 38.5q5 5 10 5.5t9.5 -2.5t9 -7t7.5 -8zM120 386q-2 -8 -3.5 -19.5t-5.5 -22.5q-3 -10 -8 -19t-7 -17
q-14 -58 -7 -107.5t31.5 -86.5t64.5 -60t93 -28q0 56 -1 118.5t-3 127t-4 127.5t-5 120q-19 -7 -40.5 -19t-41.5 -28.5t-37 -38t-26 -47.5z" />
    <glyph glyph-name="sterling" unicode="&#xa3;" horiz-adv-x="492" 
d="M455 678q-7 -9 -15 -9.5t-17.5 2t-19.5 6.5t-20 4q-29 1 -56.5 -8.5t-51.5 -26t-43 -38t-31 -45.5q-21 -45 -29 -97t-19 -103q13 -3 32 -4t40.5 -1t44 1t43.5 1q12 0 24.5 0.5t22.5 -1.5t16.5 -8t6.5 -18q-7 -9 -19.5 -12t-27.5 -4t-32 0t-33 1q-33 -1 -65 -2t-59 -4
q-7 -78 -22.5 -145t-32.5 -133q35 -2 72.5 1t77.5 7t81.5 7t83.5 0q10 -1 21.5 -2t22 -4t17.5 -9.5t8 -18.5q-9 -8 -20 -10t-23.5 -1t-25 3t-24.5 2q-63 2 -117 -4t-116 -11q-14 -1 -28.5 -4t-28.5 -4.5t-26.5 0.5t-22.5 11q1 39 9.5 75t18 73t17.5 75.5t9 82.5
q-23 -3 -37 6t-15 20.5t12.5 20t45.5 4.5q7 40 15 83.5t20 84t29.5 75.5t44.5 59q10 9 24.5 19.5t31.5 19.5t34.5 16t33.5 9q18 2 37 1t36 -5.5t29 -13.5t16 -24z" />
    <glyph glyph-name="currency" unicode="&#xa4;" horiz-adv-x="585" 
d="M527 453q26 -64 17 -135.5t-45 -130.5q17 -17 27.5 -35t24.5 -32q-5 -6 -8.5 -15.5t-14.5 -9.5q-8 4 -9.5 5t-1.5 2.5t-1.5 4t-7.5 10.5q-9 11 -18 19t-17 15q-30 -36 -68.5 -58.5t-83.5 -24.5q-33 -1 -64.5 5t-60 17.5t-52 28.5t-39.5 38q-14 -4 -25.5 -16.5
t-21.5 -21.5t-19.5 -8t-18.5 23q9 13 15.5 19t12.5 10.5t13 10.5t16 18q-22 40 -30 87t-4.5 94t18.5 90.5t39 77.5q-14 15 -26 24.5t-18.5 18t-4.5 18.5t16 26q20 -13 33 -28t24 -30q6 4 11 9q33 28 79 40.5t92.5 9t88 -23t66.5 -55.5q10 1 18 10.5t16 20t16.5 19.5t18.5 10
q11 2 20 -2t11 -15t-7.5 -21t-22.5 -19.5t-24.5 -18.5t-13.5 -18q4 -19 16 -33t18 -30zM315 106q38 3 70.5 24t56.5 53.5t39 72.5t18.5 81t-5.5 80t-33 70q-9 13 -12.5 19t-13.5 18q-12 23 -34 38.5t-49 23.5t-57.5 8t-60.5 -9q-46 -14 -80 -53.5t-52 -92t-17.5 -110.5
t23.5 -108q4 -8 6 -12.5t3.5 -8t4.5 -8t10 -12.5q13 -20 34 -34.5t46 -24t51.5 -13.5t51.5 -2z" />
    <glyph glyph-name="yen" unicode="&#xa5;" horiz-adv-x="423" 
d="M249 328q-5 -14 -7.5 -30.5t-2.5 -39.5v-22q12 1 25 1t27 1q4 0 25 1.5t43.5 0t39 -8.5t12.5 -23q-3 -10 -11.5 -13.5t-19.5 -4t-22 1t-19 1.5q-29 1 -52.5 0t-46.5 -3q2 -38 4 -77.5t4 -70.5q1 -15 4.5 -29t-10.5 -25q-7 -5 -14.5 -1t-15.5 4q-10 44 -13 94t-5 101
q-29 -2 -63 -4t-80 -1q-8 6 -14 18.5t2 26.5q45 2 81 4t74 4v36q0 12 1 27t-1 26q-29 -2 -63 -4t-80 -1q-8 6 -14 18.5t2 26.5q38 2 70 3.5t64 3.5q-8 13 -17 26t-16 24q-15 26 -29 49.5t-25 43.5q-28 51 -55 94.5t-50 88.5q0 6 4 8t9.5 3t11.5 1.5t11 2.5q57 -76 104 -162
t97 -171q28 36 48.5 78.5t38.5 88.5t35.5 92.5t39.5 88.5q12 2 18 -3t14 -9q-9 -57 -27.5 -106.5t-40.5 -100.5q-10 -22 -22 -46t-23 -47q-11 -20 -24 -40q5 1 16 1q4 0 25 1.5t43.5 0t39 -8.5t12.5 -23q-3 -10 -11.5 -13.5t-19.5 -4t-22 1t-19 1.5q-26 1 -47.5 0.5
t-42.5 -2.5z" />
    <glyph glyph-name="brokenbar" unicode="&#xa6;" horiz-adv-x="222" 
d="M91 158q6 8 18.5 13.5t26.5 -2.5v-36v-19t-0.5 -11.5t-0.5 -12.5v-21.5v-38.5q0 -4 0.5 -25t-1.5 -43.5t-9.5 -39t-23.5 -11.5q-9 3 -12.5 11.5t-3.5 19.5t1.5 22t1.5 19q1 26 1.5 39.5t0.5 22t-0.5 14.5t-1 17t0 29.5t2.5 52.5zM91 649q6 8 18.5 13.5t26.5 -2.5v-36v-19
t-0.5 -11.5t-0.5 -12.5v-21.5v-38.5q0 -4 0.5 -25t-1.5 -43.5t-9.5 -39t-23.5 -11.5q-9 3 -12.5 11.5t-3.5 19.5t1.5 22t1.5 19q1 26 1.5 39.5t0.5 22t-0.5 14.5t-1 17t0 29.5t2.5 52.5z" />
    <glyph glyph-name="section" unicode="&#xa7;" horiz-adv-x="556" 
d="M445 740q-15 0 -27.5 6.5t-24.5 15t-25.5 16t-31.5 10.5q-29 4 -52 -5t-39.5 -26.5t-26 -41.5t-11.5 -50t4.5 -51.5t22.5 -46.5q9 -12 20 -20.5t22 -18.5q12 -11 23.5 -17.5t24.5 -15.5q13 -10 27 -27.5t31 -33.5q27 -26 48 -50t30 -62q7 -27 3.5 -54t-12.5 -52.5
t-22 -48t-26 -38.5q-22 -8 -37.5 -18.5t-38.5 -12.5q21 -16 39 -42.5t27.5 -59t8.5 -69t-17 -70.5q-9 -18 -21 -34.5t-26 -30.5t-28.5 -26.5t-27.5 -23.5q-7 -3 -26.5 -7t-39.5 -4.5t-34 4.5t-9 22q2 7 11.5 9t21.5 3t24.5 1.5t21.5 4.5q27 12 53.5 45t40.5 74t11 83.5
t-36 75.5q-17 17 -37.5 28.5t-41.5 21.5t-40.5 21t-34.5 26q-6 6 -16 18t-20 26t-18.5 27.5t-11.5 22.5q-15 39 -12 84t19.5 85.5t43.5 71t60 40.5q-3 11 -8.5 20t-11.5 17.5t-12 17.5t-10 20q-17 53 -5 101.5t43 81t77 43t97 -13.5q11 -5 23 -12t22 -16t15.5 -20t2.5 -24z
M140 259q4 -15 18.5 -36t34 -40.5t41 -34t39.5 -16.5q41 -5 72.5 14t50.5 50t23.5 69t-7.5 72q-8 21 -29.5 47t-47 48.5t-50.5 38t-39 15.5q-29 -2 -52 -25t-38 -57t-19.5 -73t3.5 -72z" />
    <glyph glyph-name="dieresis" unicode="&#xa8;" 
d="M-30 627q-5 27 4.5 39.5t22.5 13.5t25.5 -8t13.5 -24q0 -11 -7 -20t-17 -13t-21.5 -1.5t-20.5 13.5zM129 633q-5 27 4.5 39.5t22.5 13.5t25.5 -8t13.5 -24q0 -11 -7 -20t-17 -13t-21.5 -1.5t-20.5 13.5z" />
    <glyph glyph-name="copyright" unicode="&#xa9;" horiz-adv-x="463" 
d="M230 564q22 2 37.5 -0.5t29 -7.5t26.5 -13t30 -18q27 -16 47 -34.5t30.5 -43t11 -55.5t-11.5 -71q-20 -70 -67.5 -117.5t-129.5 -56.5q-51 -5 -95 14t-73 54t-38.5 83.5t8.5 103.5q8 24 25.5 52t42 52.5t55.5 41t66 16.5h6zM167 507q-18 -12 -38 -34.5t-36 -50.5
t-26 -58.5t-8 -57.5q1 -17 8.5 -33.5t17.5 -30.5t21.5 -24.5t21.5 -16.5q28 -17 63.5 -18t70 10.5t64 33t45.5 49.5q5 9 11.5 26.5t12 36.5t9 37t2.5 29q-1 24 -17.5 46.5t-40.5 39.5t-53 27t-56 10q-21 0 -39.5 -6t-32.5 -15zM125 348q-2 21 6.5 44t22.5 42.5t32.5 33.5
t36.5 17t33.5 -7.5t24.5 -39.5q-12 -9 -24 -3t-15 18q-14 -6 -28.5 -16.5t-26 -24t-17.5 -30t-3 -34.5t17.5 -25.5t32 -6.5t35 9t26.5 20q8 -8 13 -18.5t5 -26.5q-23 -15 -50.5 -19.5t-52.5 1.5t-44 22.5t-24 43.5z" />
    <glyph glyph-name="ordfeminine" unicode="&#xaa;" horiz-adv-x="249" 
d="M223 454q-8 -6 -15 -5.5t-13 4.5t-11 9t-9 10q-12 -8 -33 -12t-43 -4t-41.5 5.5t-27.5 16.5q-18 24 -11.5 49.5t27 44.5t50 27.5t58.5 -3.5q2 13 -5 29.5t-10 31.5q-18 2 -29 -3.5t-20 -13t-19 -14t-26 -6.5q-3 5 -6 8.5t-6 7.5q6 15 18.5 27.5t29.5 20t37 9t42 -5.5
q4 -9 11.5 -25t15 -34.5t13.5 -37.5t8 -33t-1.5 -27.5t-1.5 -27.5q1 -7 5 -12.5t7.5 -11t5.5 -11.5t0 -13zM60 499q12 -5 27.5 -6t30.5 0.5t28 6.5t20 12q-2 6 -2.5 10.5t0.5 8t1.5 8t0.5 12.5q-13 11 -32.5 12.5t-36.5 -5.5t-28.5 -22t-8.5 -37z" />
    <glyph glyph-name="guillemotleft" unicode="&#xab;" horiz-adv-x="389" 
 />
    <glyph glyph-name="logicalnot" unicode="&#xac;" horiz-adv-x="600" 
d="M553 360q4 -19 4 -42t-1.5 -47t-2.5 -47.5t0 -41.5q0 -5 2 -14t2.5 -18t-1.5 -16t-9 -9q-15 -5 -22.5 3.5t-10.5 23t-3 30.5v27q0 33 3 59.5t0 49.5q-127 2 -266 0q-31 0 -47 0.5t-29 1.5t-28 0.5t-45 -3.5q-12 -1 -23.5 -2t-20.5 2t-14 12.5t-3 28.5q67 -1 123 -0.5
t110 2t111 3.5t126 3q11 1 23.5 3t21.5 -9z" />
    <glyph glyph-name="uni00AD" unicode="&#xad;" horiz-adv-x="352" 
d="M60 247q-8 6 -14 18.5t2 26.5q23 1 35.5 1h19.5h11.5h12.5h21.5t38.5 1q4 0 25 1.5t43.5 0t39 -8.5t12.5 -23q-3 -10 -11.5 -13.5t-19.5 -4t-22 1t-19 1.5q-26 1 -39.5 1t-22 -0.5t-14.5 -1.5t-17 -1.5t-29.5 -0.5t-52.5 1z" />
    <glyph glyph-name="registered" unicode="&#xae;" horiz-adv-x="437" 
d="M186 534q6 0 19 -2.5t27.5 -6t28 -7.5t21.5 -8q30 -15 62 -42t53 -62.5t25 -78t-23 -87.5q-9 -15 -25.5 -29.5t-36 -26.5t-40.5 -21t-39 -13q-30 -7 -61 -4t-58.5 14t-50 30t-36.5 44q-26 46 -29 99t15 98.5t55.5 75t92.5 27.5zM88 243q20 -33 59 -45.5t80.5 -8t78.5 24
t54 50.5q18 32 18 63t-13 58.5t-36 49.5t-50.5 37t-57.5 21.5t-56 1.5q-33 -6 -57 -33t-35.5 -64t-8.5 -78.5t24 -76.5zM252 393q-2 -10 -9.5 -17.5t-14.5 -21.5q6 -9 18 -15t23 -12.5t17.5 -16t1.5 -25.5q-16 0 -26 6.5t-19 14t-19.5 13.5t-28.5 5q-6 -6 -1.5 -15.5
t-1.5 -17.5q-19 -2 -27.5 7t-12 22.5t-4 28.5t-4.5 26q7 6 10.5 13.5t5.5 15.5l4 16t7 15q12 16 27.5 19t28.5 -3.5t21 -21.5t4 -36zM195 372q2 6 6 11t8 10.5t5.5 11t-1.5 12.5q-3 -3 -8 -9t-8.5 -12.5t-4.5 -13t3 -10.5z" />
    <glyph glyph-name="macron" unicode="&#xaf;" 
d="M183 666q2 -8 7.5 -17.5t-1.5 -18.5q-16 -7 -30.5 -3t-35.5 3q-24 -1 -49 -7.5t-47 -9t-37.5 3t-19.5 28.5q17 9 43 15t55 8.5t59 2t56 -4.5z" />
    <glyph glyph-name="degree" unicode="&#xb0;" horiz-adv-x="400" 
d="M188 665q14 0 35 -7.5t40.5 -20t34.5 -30t17 -36.5q2 -20 -6.5 -42t-23.5 -40.5t-33.5 -31.5t-36.5 -16q-31 -5 -58 4.5t-46 27.5t-28 43t-4 52q3 18 12 35t22.5 30.5t32 22t42.5 9.5zM218 486q9 5 19 16.5t17.5 25t11.5 27t3 22.5q-2 10 -10.5 20t-21 17t-27.5 10.5
t-28 1.5q-15 -3 -28.5 -17t-21.5 -32.5t-9 -38.5t7 -36q21 -13 43 -20t45 4z" />
    <glyph glyph-name="plusminus" unicode="&#xb1;" horiz-adv-x="600" 
d="M325 342q14 -6 35.5 -5.5t45 3.5t46 5.5t39 0t25 -12t3.5 -31.5q-42 -8 -87 -8t-104 -1q-9 -12 -8 -34.5t3.5 -44.5t1.5 -39.5t-15 -20.5q-17 -3 -22.5 13t-5.5 39t1.5 47t-0.5 37q-21 3 -45.5 4t-50 2t-51 2.5t-47.5 6.5q-4 9 -9.5 19.5t0.5 23.5q49 -3 98 -5.5
t102 -0.5q7 11 5.5 25t-6 28t-8.5 26.5t0 19.5q10 22 33 6q7 -5 11 -17t6.5 -27.5t3 -31.5t0.5 -29zM35 33q112 12 223.5 11t239.5 -2q13 0 26.5 -1.5t23.5 -5.5t13.5 -11t-3.5 -18q-4 -6 -30 -7.5t-58 -1.5t-62.5 1.5t-42.5 1.5q-53 0 -107 -1t-93 -2q-17 0 -39 -2
t-42 -0.5t-34 10t-15 28.5z" />
    <glyph glyph-name="twosuperior" unicode="&#xb2;" horiz-adv-x="274" 
d="M94 337q12 -5 38.5 -4t54 1t49 -4.5t22.5 -18.5q1 -15 -14 -21t-35.5 -7t-41.5 1t-30 4q-17 3 -35 2t-33 0t-24.5 7t-7.5 23q4 36 22.5 69t40 66t40.5 67.5t24 73.5q2 17 -0.5 26t-8 14t-12.5 8t-13 9q-23 1 -33.5 -6.5t-17 -14.5t-13 -9.5t-21.5 9.5q4 26 24 40
t44.5 17.5t47.5 -3t34 -22.5q14 -22 11 -53t-10 -60q-8 -30 -22 -59.5t-30 -56.5t-30 -52t-20 -46z" />
    <glyph glyph-name="threesuperior" unicode="&#xb3;" horiz-adv-x="289" 
d="M156 519q39 2 64 -16.5t36 -48t8.5 -63.5t-18 -61.5t-44.5 -43t-71 -7.5q-10 8 -22 14t-23.5 12.5t-20.5 15.5t-14 22q15 7 28 5t24 -8t21.5 -13.5t20.5 -11t21.5 -0.5t24.5 18q12 12 19.5 35t8 46.5t-7 42t-26.5 23.5q-20 6 -36 2t-29.5 -6.5t-24.5 1.5t-20 26
q13 22 30 40t35.5 35t36 34.5t32.5 37.5q-18 4 -39 4.5t-42.5 -0.5t-41.5 -1.5t-36 2.5t-25.5 12t-9.5 26q12 3 32.5 4.5t45.5 1.5t51 -1.5t47 -4.5q13 -2 27.5 -5t27.5 -8t22 -11t11 -12q1 -9 -6.5 -18.5t-18 -19t-21.5 -17.5t-17 -13q-20 -20 -33 -35t-27 -35z" />
    <glyph glyph-name="acute" unicode="&#xb4;" 
d="M158 746q8 -5 18.5 -7t12.5 -13q-7 -17 -18.5 -25t-25.5 -24q-15 -18 -27.5 -41t-25 -41t-27.5 -26t-34 4q5 19 17.5 42t30 46.5t38 45.5t41.5 39z" />
    <glyph glyph-name="mu" unicode="&#xb5;" horiz-adv-x="536" 
d="M110 514q-2 -47 -6.5 -93t-8 -94t-5 -98t1.5 -105q2 -26 5.5 -48.5t18.5 -39.5q30 -33 70 -53t80.5 -21.5t77.5 18t61 65.5q7 12 12 30.5t9 39.5t7.5 43t6.5 42q6 42 9 79.5t5 75t3.5 76.5t4.5 83q23 5 39 -6q10 -72 5 -141.5t-14 -138t-17 -137.5t-4 -140q-6 -3 -8.5 -5
t-3.5 -2.5t-2.5 0.5t-6.5 4q-1 19 -0.5 41.5t0.5 40.5q-13 -15 -28 -31.5t-33 -31t-40 -25.5t-50 -15q-46 -6 -76 -1t-52 17t-41 29.5t-44 36.5q-4 -27 -4.5 -53t-1.5 -51t-3 -47.5t-9 -42.5q-12 -1 -22 0t-18 6q5 66 8.5 139.5t6.5 149.5t6.5 152.5t9.5 148.5q1 12 0 27
t-1 29t2 27.5t8 22.5t21 5.5t21 -8.5z" />
    <glyph glyph-name="mu" unicode="&#x3bc;" horiz-adv-x="536" 
d="M110 514q-2 -47 -6.5 -93t-8 -94t-5 -98t1.5 -105q2 -26 5.5 -48.5t18.5 -39.5q30 -33 70 -53t80.5 -21.5t77.5 18t61 65.5q7 12 12 30.5t9 39.5t7.5 43t6.5 42q6 42 9 79.5t5 75t3.5 76.5t4.5 83q23 5 39 -6q10 -72 5 -141.5t-14 -138t-17 -137.5t-4 -140q-6 -3 -8.5 -5
t-3.5 -2.5t-2.5 0.5t-6.5 4q-1 19 -0.5 41.5t0.5 40.5q-13 -15 -28 -31.5t-33 -31t-40 -25.5t-50 -15q-46 -6 -76 -1t-52 17t-41 29.5t-44 36.5q-4 -27 -4.5 -53t-1.5 -51t-3 -47.5t-9 -42.5q-12 -1 -22 0t-18 6q5 66 8.5 139.5t6.5 149.5t6.5 152.5t9.5 148.5q1 12 0 27
t-1 29t2 27.5t8 22.5t21 5.5t21 -8.5z" />
    <glyph glyph-name="paragraph" unicode="&#xb6;" horiz-adv-x="556" 
d="M456 703q-1 -49 -1 -110.5v-129.5v-140t1 -141.5t2.5 -135t3.5 -120.5q1 -18 2.5 -36t2 -36.5t-1.5 -37t-9 -35.5q-19 -5 -26.5 2t-9 19t0.5 26t2 25q1 29 0 76.5t-2.5 98t-3 97t-0.5 74.5v23.5v37v36.5v23q-3 43 -4.5 84.5t-3 83.5t-2.5 86t-2 91q-24 5 -54.5 3t-57.5 0
q-3 -48 -4.5 -110.5t-1 -133t2 -145t3.5 -145t4.5 -134.5t4.5 -113q1 -18 1.5 -35.5t-1 -31t-7 -21t-17.5 -5.5q-14 2 -19 16t-5.5 32.5t1 37.5t1.5 32q0 19 -1 52t-2.5 73t-3.5 83t-4 82.5t-4 72t-3 51.5q-28 10 -58.5 21t-53.5 31q-19 16 -33 41.5t-20 55.5t-3 63.5
t17 66.5q3 7 12 19t19.5 24.5t21 23t17.5 14.5q15 9 35.5 14.5t43.5 8.5t47 4.5t46 3.5q32 2 67 1t60 -14z" />
    <glyph glyph-name="periodcentered" unicode="&#xb7;" horiz-adv-x="278" 
d="M107 296q-5 27 4.5 39.5t22.5 13.5t25.5 -8t13.5 -24q0 -11 -7 -20t-17 -13t-21.5 -1.5t-20.5 13.5z" />
    <glyph glyph-name="cedilla" unicode="&#xb8;" 
d="M93 -3q-5 -26 -3 -57q32 2 51.5 -14.5t26 -39.5t-1 -48.5t-28.5 -41.5q-31 -7 -57.5 2t-29.5 37q6 3 9 9q9 1 13 -1.5t7 -6.5t6 -7t10 -3q11 0 19 7t12.5 18t5 23.5t-3.5 23.5q-10 4 -17.5 3t-14 -4t-12.5 -6.5t-13 -4.5q-8 3 -13 8t-11 10q2 12 1.5 27t-0.5 29.5t1.5 28
t6.5 23.5q15 2 21.5 -4t14.5 -11z" />
    <glyph glyph-name="onesuperior" unicode="&#xb9;" horiz-adv-x="279" 
d="M173 692q2 -13 3 -50.5t2 -85.5t1 -100t0.5 -93.5t0.5 -66t0 -16.5q-16 -4 -23 2t-17 9q-6 82 -4.5 161.5t-2.5 170.5q-11 3 -19.5 -5.5t-17.5 -20t-19.5 -20.5t-23.5 -8q-12 0 -20.5 5t-9.5 16q0 4 16 20.5t36.5 35t39.5 33.5t25 16q8 3 18 2t15 -5z" />
    <glyph glyph-name="ordmasculine" unicode="&#xba;" horiz-adv-x="212" 
d="M86 702q5 5 18 4t18 -4q15 -12 30 -25.5t26 -29.5t16.5 -34.5t3.5 -40.5t-17 -40t-36 -29t-45.5 -13.5t-46.5 6.5q-21 8 -32 25.5t-13.5 39t2 44.5t15.5 43t26.5 34.5t34.5 19.5zM38 563q3 -24 18.5 -31.5t35 -6t37.5 10.5t24 18q10 15 9 35.5t-10 38.5t-24.5 28.5
t-32.5 6.5q-10 -3 -21 -14.5t-19.5 -27t-13.5 -31.5t-3 -27z" />
    <glyph glyph-name="guillemotright" unicode="&#xbb;" horiz-adv-x="389" 
 />
    <glyph glyph-name="onequarter" unicode="&#xbc;" horiz-adv-x="663" 
d="M446 728q-17 -75 -41 -146t-50.5 -140.5t-52.5 -138.5t-47 -139q-14 -48 -27.5 -95.5t-32.5 -95.5q-22 -1 -28.5 8.5t-5 22.5t7.5 27t9 23q24 75 46.5 146.5t49.5 142.5q26 72 51.5 140.5t46.5 140.5q8 26 16.5 57t17.5 49q3 7 8.5 9.5t11.5 1t11.5 -5t8.5 -7.5zM114 708
q4 -47 2 -98t-1 -98t0 -95t-4 -86q-17 -2 -25 3.5t-10 16t-1.5 23.5t0.5 25q-3 33 -3 73.5t0.5 82t1.5 81t1 71.5q5 9 18.5 8t20.5 -7zM587 450q-1 -42 -11 -91t-11 -100q6 -2 13 -3t13.5 -3t11.5 -5t6 -10q-1 -8 -6.5 -12t-13 -6t-15.5 -3.5t-13 -5.5q-8 -55 -6.5 -111.5
t-1.5 -100.5q-20 -5 -28.5 4.5t-10.5 27.5t0 42t5 48t4.5 46t-3.5 36q-11 0 -31 -6.5t-40.5 -10.5t-38 -1.5t-23.5 20.5q-1 6 1.5 16t7 21.5t9.5 22.5t9 19q3 6 11.5 20t19 31.5t23 36.5t24 35t22 28t16.5 15q7 4 15.5 5.5t17 1.5t15 -2t9.5 -5zM445 236q21 7 42 11t35 15
q-3 17 -0.5 34.5t6 34t6.5 33t1 31.5q-24 -33 -51.5 -73t-38.5 -86z" />
    <glyph glyph-name="onehalf" unicode="&#xbd;" horiz-adv-x="684" 
d="M408 736q1 -15 -3 -28.5t-11 -26l-14 -25t-11 -25.5q-32 -80 -59.5 -167t-52 -177t-47 -181t-44.5 -179q-11 -6 -20.5 0.5t-15.5 14.5q12 72 30.5 148t40 153t45 154t44.5 150q7 26 14.5 51.5t16.5 49.5t20 45t25 38q5 9 19 8t23 -3zM97 702q14 -96 25.5 -199.5
t11.5 -200.5q-19 -8 -28.5 -3t-14 16.5t-5.5 27.5t-2 31q-3 35 -7.5 77t-9 85.5t-8 86t-5.5 77.5q0 9 5.5 11.5t12.5 1t14 -5zM471 42q10 -3 26 -1t34 4.5t36.5 4.5t34 0.5t26.5 -7.5t14 -20q0 -12 -5 -15.5t-12.5 -3t-17 2.5t-19.5 2q-23 0 -48.5 -4t-49.5 -5.5t-44 3.5
t-30 23q11 39 29 78t34.5 77t28.5 76t12 75q-15 1 -27.5 -6t-23 -16.5t-20 -19t-18 -14t-17.5 -1.5t-19 19q4 12 17 27t31 28.5t38 23.5t37.5 12t31 -7t17.5 -32q7 -36 -6 -76t-32 -79.5t-37 -77.5t-21 -71z" />
    <glyph glyph-name="threequarters" unicode="&#xbe;" horiz-adv-x="563" 
d="M160 545q43 -7 74 -30t31 -62q0 -21 -20 -45t-48.5 -42.5t-61.5 -26.5t-58 2q-7 4 -14.5 15t-4.5 22q6 4 11.5 4.5t11.5 -0.5t12 -2.5t14 -1.5q21 1 43.5 10.5t39.5 23.5t26 32t5 35q-5 19 -20 24.5t-34.5 3t-39.5 -9.5t-33 -12q-16 12 -15.5 24t9 24.5t22 25t24.5 25.5
q17 21 31 38t21 34q-12 11 -28.5 12.5t-34 -1t-35 -6t-31.5 -2.5t-23.5 8.5t-11.5 27.5q19 3 44.5 9t57.5 4q13 -1 32 -3.5t37 -7t32 -11t16 -14.5q5 -18 -5.5 -35.5t-26.5 -34t-31 -31.5t-18 -26zM428 666q24 -5 25 -23t-9.5 -41t-26.5 -47.5t-25 -42.5q-35 -68 -62.5 -138
t-58.5 -133q-18 -35 -37 -64.5t-35 -60.5q-8 -15 -13.5 -33.5t-16.5 -38.5l-6 -15t-9.5 -20.5t-11.5 -18.5t-12 -8q-10 -1 -18 7t-9 13q-1 6 3 16.5t10.5 22.5t14 24t12.5 22q31 61 62 119t60 122q22 51 41.5 96.5t38.5 87t39 79.5t44 75zM496 365q9 -14 11 -32.5
t-0.5 -39.5t-6 -43.5t-4.5 -42.5q1 -6 5 -9t8 -5.5t7 -6.5t3 -11q1 -7 -2.5 -9.5t-8.5 -3t-9.5 -2t-5.5 -5.5q-5 -18 -4.5 -38.5l1 -41t0 -40t-6.5 -37.5q-25 1 -32 17t-7 38.5t3.5 48.5t-0.5 47q-19 3 -40.5 -6t-42.5 -16.5t-41 -8.5t-36 18q34 65 74 122t83 114q8 1 14 -1
t11.5 -4t11.5 -3t15 1zM355 171q26 5 49.5 10t46.5 13q1 15 3.5 30.5l5 31t3 32t-2.5 34.5q-57 -69 -105 -151z" />
    <glyph glyph-name="questiondown" unicode="&#xbf;" horiz-adv-x="441" 
d="M264 217q4 23 3 45.5t-3 45.5t-2 47t6 51q12 3 21 0.5t16 -4.5q5 -20 7.5 -46t3 -54.5t-0.5 -57.5t-2 -55q-30 -14 -62 -26.5t-60 -30t-48.5 -42t-26.5 -61.5q-6 -36 2.5 -74.5t30 -68t54.5 -43t75 1.5q11 5 19.5 10.5t20.5 13.5q15 12 30.5 19.5t36.5 -10.5
q-20 -37 -55 -54t-74 -18t-76.5 13t-61.5 39q-13 14 -23.5 34t-17.5 43.5t-10 49t0 51.5q7 39 27 66.5t47.5 48t59.5 36t63 30.5zM257 537q23 2 38.5 -7t15.5 -23q-2 -18 -16.5 -21.5t-28.5 2.5t-20 19.5t11 29.5z" />
    <glyph glyph-name="Agrave" unicode="&#xc0;" horiz-adv-x="414" 
d="M423 9q-14 -14 -23 -9t-15.5 17.5t-10.5 28t-7 21.5q-11 32 -25 68t-28.5 71t-27 66.5t-20.5 54.5q-18 6 -38.5 6.5t-40.5 -1t-38.5 -3.5t-31.5 -2q-23 -57 -39.5 -121t-40.5 -139q0 -5 -0.5 -16t-2.5 -23t-7 -21t-14 -9q-13 0 -16 9t-1.5 21t5 23t3.5 16
q38 162 85.5 323.5t86.5 317.5q16 9 24.5 4t13 -17.5t6.5 -29t4 -29.5q38 -121 71.5 -237t71.5 -219q5 -26 14 -46t18 -36q13 -23 18.5 -47t5.5 -42zM124 365q19 0 34.5 1.5t30 2.5t30 0.5t35.5 -4.5q-14 67 -26.5 127.5t-39.5 109.5q-5 -33 -13.5 -62t-17.5 -57t-18 -56.5
t-15 -61.5zM245 774q-5 -7 -9 -17t-15 -11q-16 8 -22.5 21t-20.5 29q-16 17 -37 32t-37.5 30t-22.5 30.5t9 33.5q18 -7 39.5 -22.5t42.5 -36t40 -44t33 -45.5z" />
    <glyph glyph-name="Aacute" unicode="&#xc1;" horiz-adv-x="416" 
d="M424 9q-14 -14 -23 -9t-15.5 17.5t-10.5 28t-7 21.5q-11 32 -25 68t-28.5 71t-27 66.5t-20.5 54.5q-18 6 -38.5 6.5t-40.5 -1t-38.5 -3.5t-31.5 -2q-23 -57 -39.5 -121t-40.5 -139q0 -5 -0.5 -16t-2.5 -23t-7 -21t-14 -9q-13 0 -16 9t-1.5 21t5 23t3.5 16
q38 162 85.5 323.5t86.5 317.5q16 9 24.5 4t13 -17.5t6.5 -29t4 -29.5q38 -121 71.5 -237t71.5 -219q5 -26 14 -46t18 -36q13 -23 18.5 -47t5.5 -42zM125 365q19 0 34.5 1.5t30 2.5t30 0.5t35.5 -4.5q-14 67 -26.5 127.5t-39.5 109.5q-5 -33 -13.5 -62t-17.5 -57t-18 -56.5
t-15 -61.5zM265 925q8 -5 18.5 -7t12.5 -13q-7 -17 -18.5 -25t-25.5 -24q-15 -18 -27.5 -41t-25 -41t-27.5 -26t-34 4q5 19 17.5 42t30 46.5t38 45.5t41.5 39z" />
    <glyph glyph-name="Acircumflex" unicode="&#xc2;" horiz-adv-x="416" 
d="M422 9q-14 -14 -23 -9t-15.5 17.5t-10.5 28t-7 21.5q-11 32 -25 68t-28.5 71t-27 66.5t-20.5 54.5q-18 6 -38.5 6.5t-40.5 -1t-38.5 -3.5t-31.5 -2q-23 -57 -39.5 -121t-40.5 -139q0 -5 -0.5 -16t-2.5 -23t-7 -21t-14 -9q-13 0 -16 9t-1.5 21t5 23t3.5 16
q38 162 85.5 323.5t86.5 317.5q16 9 24.5 4t13 -17.5t6.5 -29t4 -29.5q38 -121 71.5 -237t71.5 -219q5 -26 14 -46t18 -36q13 -23 18.5 -47t5.5 -42zM123 365q19 0 34.5 1.5t30 2.5t30 0.5t35.5 -4.5q-14 67 -26.5 127.5t-39.5 109.5q-5 -33 -13.5 -62t-17.5 -57t-18 -56.5
t-15 -61.5zM188 898q5 -2 8 -6.5t5 -9.5q16 -25 36.5 -49.5t42.5 -47.5q8 -8 2 -14.5t-18 -13.5q-13 15 -23.5 26t-20 22t-19 23t-21.5 28q-20 -12 -33.5 -30t-29.5 -41q-2 -3 -6.5 -7.5t-10 -7.5t-11.5 -2.5t-10 6.5q43 77 109 124z" />
    <glyph glyph-name="Atilde" unicode="&#xc3;" horiz-adv-x="418" 
d="M424 9q-14 -14 -23 -9t-15.5 17.5t-10.5 28t-7 21.5q-11 32 -25 68t-28.5 71t-27 66.5t-20.5 54.5q-18 6 -38.5 6.5t-40.5 -1t-38.5 -3.5t-31.5 -2q-23 -57 -39.5 -121t-40.5 -139q0 -5 -0.5 -16t-2.5 -23t-7 -21t-14 -9q-13 0 -16 9t-1.5 21t5 23t3.5 16
q38 162 85.5 323.5t86.5 317.5q16 9 24.5 4t13 -17.5t6.5 -29t4 -29.5q38 -121 71.5 -237t71.5 -219q5 -26 14 -46t18 -36q13 -23 18.5 -47t5.5 -42zM125 365q19 0 34.5 1.5t30 2.5t30 0.5t35.5 -4.5q-14 67 -26.5 127.5t-39.5 109.5q-5 -33 -13.5 -62t-17.5 -57t-18 -56.5
t-15 -61.5zM365 876q14 -21 9.5 -45.5t-20.5 -41.5q-6 -7 -15 -16t-19.5 -16t-22 -11t-23.5 -1q-21 5 -45.5 20.5t-41.5 31.5q-8 5 -11 11.5t-14 13.5q-9 7 -16 10.5t-16 3.5q-10 0 -19 -9t-12 -16q-3 -5 -5.5 -13t-5 -15.5t-5.5 -13t-7 -6.5q-11 -2 -15 7.5t-4.5 21.5
t1.5 23t3 13q4 8 13.5 18.5t21.5 19t25.5 12.5t27.5 -2q11 -5 25 -18t28 -24q9 -6 18 -15t18.5 -17t19.5 -13.5t22 -5.5q13 0 25 9t22 22.5t16.5 29t7.5 27.5q-1 5 4 5h10z" />
    <glyph glyph-name="Adieresis" unicode="&#xc4;" horiz-adv-x="416" 
d="M424 9q-14 -14 -23 -9t-15.5 17.5t-10.5 28t-7 21.5q-11 32 -25 68t-28.5 71t-27 66.5t-20.5 54.5q-18 6 -38.5 6.5t-40.5 -1t-38.5 -3.5t-31.5 -2q-23 -57 -39.5 -121t-40.5 -139q0 -5 -0.5 -16t-2.5 -23t-7 -21t-14 -9q-13 0 -16 9t-1.5 21t5 23t3.5 16
q38 162 85.5 323.5t86.5 317.5q16 9 24.5 4t13 -17.5t6.5 -29t4 -29.5q38 -121 71.5 -237t71.5 -219q5 -26 14 -46t18 -36q13 -23 18.5 -47t5.5 -42zM125 365q19 0 34.5 1.5t30 2.5t30 0.5t35.5 -4.5q-14 67 -26.5 127.5t-39.5 109.5q-5 -33 -13.5 -62t-17.5 -57t-18 -56.5
t-15 -61.5zM85 794q-5 27 4.5 39.5t22.5 13.5t25.5 -8t13.5 -24q0 -11 -7 -20t-17 -13t-21.5 -1.5t-20.5 13.5zM244 800q-5 27 4.5 39.5t22.5 13.5t25.5 -8t13.5 -24q0 -11 -7 -20t-17 -13t-21.5 -1.5t-20.5 13.5z" />
    <glyph glyph-name="Aring" unicode="&#xc5;" horiz-adv-x="415" 
d="M154 771q-8 10 -15 23.5t-7 30.5q0 24 15.5 32t38.5 8t39.5 -10t16.5 -31q0 -26 -23 -39.5t-56 -13.5h-9zM172 831q-4 -3 -4 -12q0 -6 0.5 -9.5t9.5 -3.5q22 0 27 25q-8 4 -17 4q-10 0 -16 -4zM422 9q-14 -14 -23 -9t-15.5 17.5t-10.5 28t-7 21.5q-11 32 -25 68t-28.5 71
t-27 66.5t-20.5 54.5q-18 6 -38.5 6.5t-40.5 -1t-38.5 -3.5t-31.5 -2q-23 -57 -39.5 -121t-40.5 -139q0 -5 -0.5 -16t-2.5 -23t-7 -21t-14 -9q-13 0 -16 9t-1.5 21t5 23t3.5 16q38 162 85.5 323.5t86.5 317.5q16 9 24.5 4t13 -17.5t6.5 -29t4 -29.5q38 -121 71.5 -237
t71.5 -219q5 -26 14 -46t18 -36q13 -23 18.5 -47t5.5 -42zM123 365q19 0 34.5 1.5t30 2.5t30 0.5t35.5 -4.5q-14 67 -26.5 127.5t-39.5 109.5q-5 -33 -13.5 -62t-17.5 -57t-18 -56.5t-15 -61.5z" />
    <glyph glyph-name="AE" unicode="&#xc6;" horiz-adv-x="781" 
d="M403 685q-2 -78 -3 -154.5t-3 -151.5q57 7 124.5 10t126.5 5q9 0 21.5 1.5t24.5 1.5t20.5 -3t9.5 -12q1 -13 -13.5 -18t-34.5 -5.5t-39 1t-25 1.5q-51 -2 -103 -11t-106 -10q-3 -37 -2.5 -79.5t2.5 -86.5t4.5 -87t2.5 -80q26 -5 55 -5t59 2t60.5 5.5t60.5 6.5q9 1 26 2.5
t33 1t27.5 -5t10.5 -16.5q-1 -9 -6.5 -12.5t-13 -4t-17 0.5t-17.5 1q-32 -2 -73.5 -7t-85 -9t-85 -4.5t-74.5 8.5q-4 75 -4 154t-8 151q-26 -5 -52 -2.5t-50 5t-45.5 2t-39.5 -10.5q-6 -3 -11.5 -12.5t-10.5 -20.5t-9.5 -21.5t-8.5 -17.5q-21 -42 -38 -75.5t-37 -73.5
q-4 -8 -8.5 -18.5t-10.5 -19.5t-14.5 -13.5t-21.5 0.5q0 20 9.5 39l18.5 37q25 52 54 104.5t45 115.5q17 24 30 51t25 55t23 56.5t25 55.5q13 26 27.5 51.5t30.5 51.5q15 26 30.5 53t32.5 47q3 1 4.5 3t4.5 3q31 -2 57.5 -2.5t52 -0.5t51.5 0.5t57 -0.5q13 0 35.5 0.5
t44 -0.5t37.5 -5t16 -13q0 -8 -6 -12.5t-15 -7.5t-18 -4t-15 -1q-24 -1 -57 0t-68 3t-69 4t-61 3zM186 313q43 1 88 -0.5t84 3.5q-2 41 -1 85t2.5 88.5t1.5 87t-3 80.5q-53 -76 -93.5 -164.5t-78.5 -179.5z" />
    <glyph glyph-name="Ccedilla" unicode="&#xc7;" horiz-adv-x="455" 
d="M409 644q-15 -4 -24.5 -1t-16.5 9t-13.5 13.5t-16.5 12.5q-21 14 -43.5 19t-44 2t-40.5 -15t-31 -31q-27 -24 -47.5 -61t-34 -82t-19.5 -95.5t-5 -101.5t9.5 -99.5t24.5 -89.5q7 -11 19.5 -27t27.5 -31.5t30.5 -28t27.5 -16.5q19 -5 38 -3.5t35.5 5.5t30 9t22.5 7
q4 6 9.5 17t11.5 22t12.5 19t12.5 8q19 0 19 -11.5t-8 -26t-18.5 -28.5t-11.5 -18q-14 -11 -37 -21.5t-48.5 -16.5t-52 -5t-48.5 15q-14 6 -29.5 21t-30.5 34t-28 39t-22 37q-19 46 -27.5 103t-7 117t12 120t30.5 112t49 92.5t66 62.5q34 7 70.5 3t67.5 -16.5t52.5 -32
t26.5 -41.5zM254 -9q-5 -26 -3 -57q32 2 51.5 -14.5t26 -39.5t-1 -48.5t-28.5 -41.5q-31 -7 -57.5 2t-29.5 37q6 3 9 9q9 1 13 -1.5t7 -6.5t6 -7t10 -3q11 0 19 7t12.5 18t5 23.5t-3.5 23.5q-10 4 -17.5 3t-14 -4t-12.5 -6.5t-13 -4.5q-8 3 -13 8t-11 10q2 12 1.5 27
t-0.5 29.5t1.5 28t6.5 23.5q15 2 21.5 -4t14.5 -11z" />
    <glyph glyph-name="Egrave" unicode="&#xc8;" horiz-adv-x="451" 
d="M430 690q-35 -12 -74 -16.5t-79.5 -5t-81.5 -0.5t-81 -3q0 -38 -1 -73l-2 -70t-2 -71.5t-1 -76.5q39 -5 81 -6t84 -1t82 -1t75 -6q0 -15 -11.5 -22t-27 -9.5t-32.5 -1.5t-28 1q-49 0 -109 3.5t-114 3.5q0 -70 -3 -141.5t3 -157.5q42 -3 81 -1l78 4t79 2.5t84 -5.5
q3 -9 -1.5 -14.5t-12 -9t-16 -5t-14.5 -1.5q-24 -7 -57 -3.5t-63 3.5q-54 -7 -102 -10t-93 10q-11 45 -12.5 95t3.5 98q0 57 0.5 122.5t1 132.5t2.5 133t5 126h308q8 0 18 1t18.5 -0.5t13 -6.5t1.5 -17zM307 778q-5 -7 -9 -17t-15 -11q-16 8 -22.5 21t-20.5 29
q-16 17 -37 32t-37.5 30t-22.5 30.5t9 33.5q18 -7 39.5 -22.5t42.5 -36t40 -44t33 -45.5z" />
    <glyph glyph-name="Eacute" unicode="&#xc9;" horiz-adv-x="455" 
d="M430 690q-35 -12 -74 -16.5t-79.5 -5t-81.5 -0.5t-81 -3q0 -38 -1 -73l-2 -70t-2 -71.5t-1 -76.5q39 -5 81 -6t84 -1t82 -1t75 -6q0 -15 -11.5 -22t-27 -9.5t-32.5 -1.5t-28 1q-49 0 -109 3.5t-114 3.5q0 -70 -3 -141.5t3 -157.5q42 -3 81 -1l78 4t79 2.5t84 -5.5
q3 -9 -1.5 -14.5t-12 -9t-16 -5t-14.5 -1.5q-24 -7 -57 -3.5t-63 3.5q-54 -7 -102 -10t-93 10q-11 45 -12.5 95t3.5 98q0 57 0.5 122.5t1 132.5t2.5 133t5 126h308q8 0 18 1t18.5 -0.5t13 -6.5t1.5 -17zM319 925q8 -5 18.5 -7t12.5 -13q-7 -17 -18.5 -25t-25.5 -24
q-15 -18 -27.5 -41t-25 -41t-27.5 -26t-34 4q5 19 17.5 42t30 46.5t38 45.5t41.5 39z" />
    <glyph glyph-name="Ecircumflex" unicode="&#xca;" horiz-adv-x="451" 
d="M430 690q-35 -12 -74 -16.5t-79.5 -5t-81.5 -0.5t-81 -3q0 -38 -1 -73l-2 -70t-2 -71.5t-1 -76.5q39 -5 81 -6t84 -1t82 -1t75 -6q0 -15 -11.5 -22t-27 -9.5t-32.5 -1.5t-28 1q-49 0 -109 3.5t-114 3.5q0 -70 -3 -141.5t3 -157.5q42 -3 81 -1l78 4t79 2.5t84 -5.5
q3 -9 -1.5 -14.5t-12 -9t-16 -5t-14.5 -1.5q-24 -7 -57 -3.5t-63 3.5q-54 -7 -102 -10t-93 10q-11 45 -12.5 95t3.5 98q0 57 0.5 122.5t1 132.5t2.5 133t5 126h308q8 0 18 1t18.5 -0.5t13 -6.5t1.5 -17zM235 898q5 -2 8 -6.5t5 -9.5q16 -25 36.5 -49.5t42.5 -47.5
q8 -8 2 -14.5t-18 -13.5q-13 15 -23.5 26t-20 22t-19 23t-21.5 28q-20 -12 -33.5 -30t-29.5 -41q-2 -3 -6.5 -7.5t-10 -7.5t-11.5 -2.5t-10 6.5q43 77 109 124z" />
    <glyph glyph-name="Edieresis" unicode="&#xcb;" horiz-adv-x="451" 
d="M140 794q-5 27 4.5 39.5t22.5 13.5t25.5 -8t13.5 -24q0 -11 -7 -20t-17 -13t-21.5 -1.5t-20.5 13.5zM299 800q-5 27 4.5 39.5t22.5 13.5t25.5 -8t13.5 -24q0 -11 -7 -20t-17 -13t-21.5 -1.5t-20.5 13.5zM430 690q-35 -12 -74 -16.5t-79.5 -5t-81.5 -0.5t-81 -3
q0 -38 -1 -73l-2 -70t-2 -71.5t-1 -76.5q39 -5 81 -6t84 -1t82 -1t75 -6q0 -15 -11.5 -22t-27 -9.5t-32.5 -1.5t-28 1q-49 0 -109 3.5t-114 3.5q0 -70 -3 -141.5t3 -157.5q42 -3 81 -1l78 4t79 2.5t84 -5.5q3 -9 -1.5 -14.5t-12 -9t-16 -5t-14.5 -1.5q-24 -7 -57 -3.5
t-63 3.5q-54 -7 -102 -10t-93 10q-11 45 -12.5 95t3.5 98q0 57 0.5 122.5t1 132.5t2.5 133t5 126h308q8 0 18 1t18.5 -0.5t13 -6.5t1.5 -17z" />
    <glyph glyph-name="Igrave" unicode="&#xcc;" horiz-adv-x="170" 
d="M143 778q-5 -7 -9 -17t-15 -11q-16 8 -22.5 21t-20.5 29q-16 17 -37 32t-37.5 30t-22.5 30.5t9 33.5q18 -7 39.5 -22.5t42.5 -36t40 -44t33 -45.5zM112 706q-4 -135 -9 -272.5t0 -284.5q3 -42 5.5 -79t-7.5 -69q-6 -2 -15.5 -4.5t-13.5 4.5q-12 7 -9.5 20t2.5 24
q-4 84 -4.5 168.5t-2.5 169.5q0 81 -1 163.5t10 160.5q3 5 9.5 7t13.5 1.5t13 -3t9 -6.5z" />
    <glyph glyph-name="Iacute" unicode="&#xcd;" horiz-adv-x="170" 
d="M152 925q8 -5 18.5 -7t12.5 -13q-7 -17 -18.5 -25t-25.5 -24q-15 -18 -27.5 -41t-25 -41t-27.5 -26t-34 4q5 19 17.5 42t30 46.5t38 45.5t41.5 39zM112 706q-4 -135 -9 -272.5t0 -284.5q3 -42 5.5 -79t-7.5 -69q-6 -2 -15.5 -4.5t-13.5 4.5q-12 7 -9.5 20t2.5 24
q-4 84 -4.5 168.5t-2.5 169.5q0 81 -1 163.5t10 160.5q3 5 9.5 7t13.5 1.5t13 -3t9 -6.5z" />
    <glyph glyph-name="Icircumflex" unicode="&#xce;" horiz-adv-x="170" 
d="M112 706q-4 -135 -9 -272.5t0 -284.5q3 -42 5.5 -79t-7.5 -69q-6 -2 -15.5 -4.5t-13.5 4.5q-12 7 -9.5 20t2.5 24q-4 84 -4.5 168.5t-2.5 169.5q0 81 -1 163.5t10 160.5q3 5 9.5 7t13.5 1.5t13 -3t9 -6.5zM103 898q5 -2 8 -6.5t5 -9.5q16 -25 36.5 -49.5t42.5 -47.5
q8 -8 2 -14.5t-18 -13.5q-13 15 -23.5 26t-20 22t-19 23t-21.5 28q-20 -12 -33.5 -30t-29.5 -41q-2 -3 -6.5 -7.5t-10 -7.5t-11.5 -2.5t-10 6.5q43 77 109 124z" />
    <glyph glyph-name="Idieresis" unicode="&#xcf;" horiz-adv-x="170" 
d="M-23 794q-5 27 4.5 39.5t22.5 13.5t25.5 -8t13.5 -24q0 -11 -7 -20t-17 -13t-21.5 -1.5t-20.5 13.5zM136 800q-5 27 4.5 39.5t22.5 13.5t25.5 -8t13.5 -24q0 -11 -7 -20t-17 -13t-21.5 -1.5t-20.5 13.5zM112 706q-4 -135 -9 -272.5t0 -284.5q3 -42 5.5 -79t-7.5 -69
q-6 -2 -15.5 -4.5t-13.5 4.5q-12 7 -9.5 20t2.5 24q-4 84 -4.5 168.5t-2.5 169.5q0 81 -1 163.5t10 160.5q3 5 9.5 7t13.5 1.5t13 -3t9 -6.5z" />
    <glyph glyph-name="Eth" unicode="&#xd0;" horiz-adv-x="667" 
d="M114 -15q-4 53 -3.5 106.5t2.5 107.5t3 108.5t-2 110.5q-13 1 -31.5 -1.5t-37 -3.5t-33.5 2.5t-22 17.5q3 16 17.5 20.5t33 5t38 -0.5t32.5 5q0 31 -2.5 65t-4.5 67.5t-1.5 66t5.5 61.5q30 -2 59 1t65 5q40 2 81 -6t79.5 -23t71 -36.5t55.5 -46.5q9 -9 16.5 -23t17.5 -25
q33 -39 55 -95.5t20 -131.5q-1 -35 -10.5 -76t-25.5 -79.5t-36.5 -71.5t-42.5 -51q-14 -12 -37.5 -23t-50.5 -21t-54.5 -17.5t-50.5 -11.5q-51 -9 -104.5 -13.5t-101.5 7.5zM389 52q23 7 46.5 14.5t38.5 18.5q26 18 47 53.5t35 79t19.5 91t1.5 91.5q-6 54 -33 105
t-67.5 91.5t-91.5 66.5t-104 30q-18 1 -34.5 -0.5t-32 -3.5t-32 -4t-35.5 -1q3 -25 4 -53t2.5 -56.5t4.5 -56.5t8 -52q20 2 54 0t64 -3q9 0 23 1t26.5 0.5t21 -5.5t7.5 -17q-1 -11 -10.5 -15t-23.5 -4.5t-29.5 0.5t-27.5 1q-32 0 -54 0.5t-51 -0.5q1 -54 -1.5 -107t-5 -104
t-2.5 -100.5t6 -96.5q67 2 121 11t105 25z" />
    <glyph glyph-name="Ntilde" unicode="&#xd1;" horiz-adv-x="570" 
d="M433 912q14 -21 9.5 -45.5t-20.5 -41.5q-6 -7 -15 -16t-19.5 -16t-22 -11t-23.5 -1q-21 5 -45.5 20.5t-41.5 31.5q-8 5 -11 11.5t-14 13.5q-9 7 -16 10.5t-16 3.5q-10 0 -19 -9t-12 -16q-3 -5 -5.5 -13t-5 -15.5t-5.5 -13t-7 -6.5q-11 -2 -15 7.5t-4.5 21.5t1.5 23t3 13
q4 8 13.5 18.5t21.5 19t25.5 12.5t27.5 -2q11 -5 25 -18t28 -24q9 -6 18 -15t18.5 -17t19.5 -13.5t22 -5.5q13 0 25 9t22 22.5t16.5 29t7.5 27.5q-1 5 4 5h10zM465 129q-4 156 -8.5 302.5t-10.5 277.5q8 6 22 4.5t21 -4.5q13 -176 16 -341t14 -311q0 -14 4 -27.5t-2 -26.5
q-15 -8 -27 -3.5t-20.5 14.5t-14.5 22.5t-10 20.5q-11 22 -24.5 48t-24.5 44q-25 42 -44.5 85t-44.5 85q-23 43 -50 89.5t-53 88.5q3 -5 -2 2.5t-14.5 22t-22 32.5t-23.5 35t-20 29t-11 14q2 -24 3.5 -61t2 -81.5t0.5 -92.5t-0.5 -93t-1.5 -83.5t-2 -63.5v-35.5t-2 -53.5
q-1 -11 -0.5 -25t-1 -26t-7 -20t-17.5 -8q-9 1 -13.5 9.5t-6 20t-1 24.5t0.5 22q3 91 7 182t2 200q0 33 -2.5 67.5l-5 69t-4.5 68.5t-1 64q22 8 40.5 -3.5t30.5 -26.5q44 -55 89 -125.5t87 -145.5q41 -73 78 -149t75 -137z" />
    <glyph glyph-name="Ograve" unicode="&#xd2;" horiz-adv-x="596" 
d="M344 778q-5 -7 -9 -17t-15 -11q-16 8 -22.5 21t-20.5 29q-16 17 -37 32t-37.5 30t-22.5 30.5t9 33.5q18 -7 39.5 -22.5t42.5 -36t40 -44t33 -45.5zM299 728q45 1 86 -8.5t74 -36.5q14 -13 29.5 -32t26.5 -38q12 -19 24 -44.5t16 -40.5q8 -36 5 -78t-5 -80
q-3 -50 -9.5 -101.5t-19 -98t-31.5 -84.5t-46 -62q-15 -13 -32.5 -21t-35.5 -12.5t-34.5 -6.5t-28.5 -2q-62 -2 -110 19t-83 59.5t-57 91t-32 114.5q-6 44 -2.5 91.5t13.5 93.5t26 87t35 72q13 21 31.5 41.5t42.5 37t53 27.5t64 12zM129 119q14 -23 36 -44.5t51.5 -36
t65.5 -19.5t78 5q43 10 70.5 45t43.5 84t23 105.5t10 109.5q2 42 6.5 82t-3.5 71q-6 25 -18.5 51t-29 48.5t-35.5 39.5t-38 25q-21 7 -43.5 8.5t-44.5 -1.5t-42 -9t-36 -14q-34 -23 -61 -60.5t-45.5 -84.5t-28.5 -100t-9 -106.5t13 -104.5t37 -94z" />
    <glyph glyph-name="Oacute" unicode="&#xd3;" horiz-adv-x="591" 
d="M404 925q8 -5 18.5 -7t12.5 -13q-7 -17 -18.5 -25t-25.5 -24q-15 -18 -27.5 -41t-25 -41t-27.5 -26t-34 4q5 19 17.5 42t30 46.5t38 45.5t41.5 39zM299 728q45 1 86 -8.5t74 -36.5q14 -13 29.5 -32t26.5 -38q12 -19 24 -44.5t16 -40.5q8 -36 5 -78t-5 -80
q-3 -50 -9.5 -101.5t-19 -98t-31.5 -84.5t-46 -62q-15 -13 -32.5 -21t-35.5 -12.5t-34.5 -6.5t-28.5 -2q-62 -2 -110 19t-83 59.5t-57 91t-32 114.5q-6 44 -2.5 91.5t13.5 93.5t26 87t35 72q13 21 31.5 41.5t42.5 37t53 27.5t64 12zM129 119q14 -23 36 -44.5t51.5 -36
t65.5 -19.5t78 5q43 10 70.5 45t43.5 84t23 105.5t10 109.5q2 42 6.5 82t-3.5 71q-6 25 -18.5 51t-29 48.5t-35.5 39.5t-38 25q-21 7 -43.5 8.5t-44.5 -1.5t-42 -9t-36 -14q-34 -23 -61 -60.5t-45.5 -84.5t-28.5 -100t-9 -106.5t13 -104.5t37 -94z" />
    <glyph glyph-name="Ocircumflex" unicode="&#xd4;" horiz-adv-x="589" 
d="M299 728q45 1 86 -8.5t74 -36.5q14 -13 29.5 -32t26.5 -38q12 -19 24 -44.5t16 -40.5q8 -36 5 -78t-5 -80q-3 -50 -9.5 -101.5t-19 -98t-31.5 -84.5t-46 -62q-15 -13 -32.5 -21t-35.5 -12.5t-34.5 -6.5t-28.5 -2q-62 -2 -110 19t-83 59.5t-57 91t-32 114.5
q-6 44 -2.5 91.5t13.5 93.5t26 87t35 72q13 21 31.5 41.5t42.5 37t53 27.5t64 12zM129 119q14 -23 36 -44.5t51.5 -36t65.5 -19.5t78 5q43 10 70.5 45t43.5 84t23 105.5t10 109.5q2 42 6.5 82t-3.5 71q-6 25 -18.5 51t-29 48.5t-35.5 39.5t-38 25q-21 7 -43.5 8.5
t-44.5 -1.5t-42 -9t-36 -14q-34 -23 -61 -60.5t-45.5 -84.5t-28.5 -100t-9 -106.5t13 -104.5t37 -94zM307 898q5 -2 8 -6.5t5 -9.5q16 -25 36.5 -49.5t42.5 -47.5q8 -8 2 -14.5t-18 -13.5q-13 15 -23.5 26t-20 22t-19 23t-21.5 28q-20 -12 -33.5 -30t-29.5 -41
q-2 -3 -6.5 -7.5t-10 -7.5t-11.5 -2.5t-10 6.5q43 77 109 124z" />
    <glyph glyph-name="Otilde" unicode="&#xd5;" horiz-adv-x="587" 
d="M299 728q45 1 86 -8.5t74 -36.5q14 -13 29.5 -32t26.5 -38q12 -19 24 -44.5t16 -40.5q8 -36 5 -78t-5 -80q-3 -50 -9.5 -101.5t-19 -98t-31.5 -84.5t-46 -62q-15 -13 -32.5 -21t-35.5 -12.5t-34.5 -6.5t-28.5 -2q-62 -2 -110 19t-83 59.5t-57 91t-32 114.5
q-6 44 -2.5 91.5t13.5 93.5t26 87t35 72q13 21 31.5 41.5t42.5 37t53 27.5t64 12zM129 119q14 -23 36 -44.5t51.5 -36t65.5 -19.5t78 5q43 10 70.5 45t43.5 84t23 105.5t10 109.5q2 42 6.5 82t-3.5 71q-6 25 -18.5 51t-29 48.5t-35.5 39.5t-38 25q-21 7 -43.5 8.5
t-44.5 -1.5t-42 -9t-36 -14q-34 -23 -61 -60.5t-45.5 -84.5t-28.5 -100t-9 -106.5t13 -104.5t37 -94zM456 876q14 -21 9.5 -45.5t-20.5 -41.5q-6 -7 -15 -16t-19.5 -16t-22 -11t-23.5 -1q-21 5 -45.5 20.5t-41.5 31.5q-8 5 -11 11.5t-14 13.5q-9 7 -16 10.5t-16 3.5
q-10 0 -19 -9t-12 -16q-3 -5 -5.5 -13t-5 -15.5t-5.5 -13t-7 -6.5q-11 -2 -15 7.5t-4.5 21.5t1.5 23t3 13q4 8 13.5 18.5t21.5 19t25.5 12.5t27.5 -2q11 -5 25 -18t28 -24q9 -6 18 -15t18.5 -17t19.5 -13.5t22 -5.5q13 0 25 9t22 22.5t16.5 29t7.5 27.5q-1 5 4 5h10z" />
    <glyph glyph-name="Odieresis" unicode="&#xd6;" horiz-adv-x="596" 
d="M299 728q45 1 86 -8.5t74 -36.5q14 -13 29.5 -32t26.5 -38q12 -19 24 -44.5t16 -40.5q8 -36 5 -78t-5 -80q-3 -50 -9.5 -101.5t-19 -98t-31.5 -84.5t-46 -62q-15 -13 -32.5 -21t-35.5 -12.5t-34.5 -6.5t-28.5 -2q-62 -2 -110 19t-83 59.5t-57 91t-32 114.5
q-6 44 -2.5 91.5t13.5 93.5t26 87t35 72q13 21 31.5 41.5t42.5 37t53 27.5t64 12zM129 119q14 -23 36 -44.5t51.5 -36t65.5 -19.5t78 5q43 10 70.5 45t43.5 84t23 105.5t10 109.5q2 42 6.5 82t-3.5 71q-6 25 -18.5 51t-29 48.5t-35.5 39.5t-38 25q-21 7 -43.5 8.5
t-44.5 -1.5t-42 -9t-36 -14q-34 -23 -61 -60.5t-45.5 -84.5t-28.5 -100t-9 -106.5t13 -104.5t37 -94zM182 794q-5 27 4.5 39.5t22.5 13.5t25.5 -8t13.5 -24q0 -11 -7 -20t-17 -13t-21.5 -1.5t-20.5 13.5zM341 800q-5 27 4.5 39.5t22.5 13.5t25.5 -8t13.5 -24q0 -11 -7 -20
t-17 -13t-21.5 -1.5t-20.5 13.5z" />
    <glyph glyph-name="multiply" unicode="&#xd7;" horiz-adv-x="600" 
d="M323 259q29 -44 59 -88t65 -82q9 -10 20 -17.5t21.5 -15.5t19.5 -16.5t14 -19.5q-4 -12 -13.5 -14.5t-20 -0.5t-20.5 7t-15 8q-24 16 -45 40.5t-41 52t-39 54t-38 46.5q-43 -42 -87 -91.5t-86 -98.5q-6 -7 -14.5 -16t-18 -14t-20 -3.5t-19.5 15.5q53 65 109 125t108 126
q-14 27 -29 49.5t-32 44t-35 42.5t-37 45q-4 5 -11 13.5t-14 18t-11.5 18t-2.5 14.5q3 10 12 11.5t18 -0.5t15.5 -5.5t5.5 -2.5q4 -3 9 -9t10.5 -14t10.5 -15.5t10 -13.5q21 -27 39.5 -47.5t41.5 -52.5q4 -5 8 -14t8.5 -17.5t9 -15.5t8.5 -7t10.5 7t13.5 16.5t13 18.5l8 12
q23 29 45.5 56t45.5 53q5 6 12 15t14.5 17.5t15.5 15t15 7.5q26 2 28 -8t-6.5 -24t-22 -28t-17.5 -19q-21 -24 -38.5 -44.5t-34.5 -41.5t-35 -43.5t-40 -48.5z" />
    <glyph glyph-name="Oslash" unicode="&#xd8;" horiz-adv-x="741" 
d="M613 581q14 5 23.5 17t18.5 23.5t20.5 19t31.5 3.5q8 -17 2 -31t-19 -26t-28 -22.5t-25 -20.5q12 -21 22 -40.5t17 -42t10 -48.5t-1 -59q-4 -38 -18.5 -70.5t-23.5 -65.5t-21.5 -65.5t-30.5 -61.5t-41.5 -52t-54.5 -36q-42 -18 -88.5 -21t-92 4.5t-87 23.5t-71.5 38
q-2 1 -7 7t-11 12.5t-11.5 12t-9.5 5.5q-11 0 -24 -14.5t-27.5 -28.5t-29 -19.5t-28.5 13.5q7 13 17.5 22.5t22 18.5t22.5 18t20 20q-28 40 -42.5 88t-17 99t6 102.5t26.5 100.5q11 31 22 60t29 52q48 59 118.5 89.5t168.5 22.5q24 -2 46 -8.5t45 -18.5q8 -5 13.5 -13
t13.5 -15q26 -20 50.5 -41t43.5 -52zM389 699q-5 -5 -12.5 -6t-16 -0.5t-17.5 2t-17 1.5q-17 -2 -37 -9t-40.5 -17t-39 -22.5t-32.5 -24.5q-25 -22 -44 -56.5t-32 -76.5t-18.5 -88.5t-3.5 -92t13 -87t31 -74.5q124 92 235.5 196.5t221.5 211.5q-32 52 -76 91.5t-115 51.5z
M419 21q42 5 77.5 29.5t55.5 58.5q11 18 23.5 45.5t24.5 58t21.5 62t15.5 58.5q12 54 1 100t-28 78q-2 0 -3 1.5t-3 1.5q-29 -19 -53.5 -41t-49.5 -47q-22 -21 -42 -45.5t-43 -44.5q-33 -29 -68 -54.5t-68 -54.5q-32 -29 -66.5 -55t-63.5 -60q18 -26 46.5 -44.5t64.5 -30.5
t76.5 -16t81.5 0z" />
    <glyph glyph-name="Ugrave" unicode="&#xd9;" horiz-adv-x="532" 
d="M307 778q-5 -7 -9 -17t-15 -11q-16 8 -22.5 21t-20.5 29q-16 17 -37 32t-37.5 30t-22.5 30.5t9 33.5q18 -7 39.5 -22.5t42.5 -36t40 -44t33 -45.5zM56 718q19 1 26 -5t7.5 -16.5t-2.5 -25t-4 -29.5q-2 -28 0 -61t5 -67t6.5 -68.5t5.5 -65.5q5 -72 13.5 -134t25.5 -110
q6 -19 18.5 -42t28.5 -37q10 -9 28.5 -18t40.5 -14.5t46 -5t46 10.5q16 7 28.5 26t22 45t17 56.5t12 61.5t7.5 60t4 51q3 54 0.5 119t-8.5 131q-2 16 -5.5 33t-5.5 33.5t-1.5 32.5t6.5 30q15 1 22 -4.5t10 -14.5t3.5 -19.5t2.5 -19.5q8 -44 13 -96.5t7 -109t0 -113.5
t-9 -109.5t-20 -97.5t-32 -77q-17 -26 -47 -41t-66 -17.5t-74 7.5t-69 33q-30 22 -49 59t-31 83t-18.5 98t-10.5 104q-7 78 -12 150t1 144q1 13 3.5 27.5t7.5 22.5z" />
    <glyph glyph-name="Uacute" unicode="&#xda;" horiz-adv-x="539" 
d="M319 925q8 -5 18.5 -7t12.5 -13q-7 -17 -18.5 -25t-25.5 -24q-15 -18 -27.5 -41t-25 -41t-27.5 -26t-34 4q5 19 17.5 42t30 46.5t38 45.5t41.5 39zM56 718q19 1 26 -5t7.5 -16.5t-2.5 -25t-4 -29.5q-2 -28 0 -61t5 -67t6.5 -68.5t5.5 -65.5q5 -72 13.5 -134t25.5 -110
q6 -19 18.5 -42t28.5 -37q10 -9 28.5 -18t40.5 -14.5t46 -5t46 10.5q16 7 28.5 26t22 45t17 56.5t12 61.5t7.5 60t4 51q3 54 0.5 119t-8.5 131q-2 16 -5.5 33t-5.5 33.5t-1.5 32.5t6.5 30q15 1 22 -4.5t10 -14.5t3.5 -19.5t2.5 -19.5q8 -44 13 -96.5t7 -109t0 -113.5
t-9 -109.5t-20 -97.5t-32 -77q-17 -26 -47 -41t-66 -17.5t-74 7.5t-69 33q-30 22 -49 59t-31 83t-18.5 98t-10.5 104q-7 78 -12 150t1 144q1 13 3.5 27.5t7.5 22.5z" />
    <glyph glyph-name="Ucircumflex" unicode="&#xdb;" horiz-adv-x="544" 
d="M56 718q19 1 26 -5t7.5 -16.5t-2.5 -25t-4 -29.5q-2 -28 0 -61t5 -67t6.5 -68.5t5.5 -65.5q5 -72 13.5 -134t25.5 -110q6 -19 18.5 -42t28.5 -37q10 -9 28.5 -18t40.5 -14.5t46 -5t46 10.5q16 7 28.5 26t22 45t17 56.5t12 61.5t7.5 60t4 51q3 54 0.5 119t-8.5 131
q-2 16 -5.5 33t-5.5 33.5t-1.5 32.5t6.5 30q15 1 22 -4.5t10 -14.5t3.5 -19.5t2.5 -19.5q8 -44 13 -96.5t7 -109t0 -113.5t-9 -109.5t-20 -97.5t-32 -77q-17 -26 -47 -41t-66 -17.5t-74 7.5t-69 33q-30 22 -49 59t-31 83t-18.5 98t-10.5 104q-7 78 -12 150t1 144
q1 13 3.5 27.5t7.5 22.5zM255 898q5 -2 8 -6.5t5 -9.5q16 -25 36.5 -49.5t42.5 -47.5q8 -8 2 -14.5t-18 -13.5q-13 15 -23.5 26t-20 22t-19 23t-21.5 28q-20 -12 -33.5 -30t-29.5 -41q-2 -3 -6.5 -7.5t-10 -7.5t-11.5 -2.5t-10 6.5q43 77 109 124z" />
    <glyph glyph-name="Udieresis" unicode="&#xdc;" horiz-adv-x="564" 
d="M473 726q22 3 31.5 -11.5t12.5 -36t1 -46t-3 -41.5q-3 -104 -12 -191.5t-24 -177.5q-11 -63 -30.5 -115t-53.5 -86q-23 -24 -57 -35t-69 -9.5t-67.5 16t-52.5 43.5q-18 26 -30.5 67t-23.5 83q-15 60 -22 128t-9.5 138.5t-2 140t0.5 133.5q27 13 38 -4.5t14 -48.5t1 -67
t-2 -60q1 -48 -0.5 -89t-0.5 -81t6 -81.5t19 -90.5q6 -21 12 -43t12 -42t13.5 -37t16.5 -28q9 -10 23.5 -19t31 -15t35 -7t36.5 5q19 7 35.5 24t30 40t23.5 50t16 54q26 106 38 219.5t7 233.5q0 10 -2 21t-2.5 22.5t1 23t9.5 20.5zM182 794q-5 27 4.5 39.5t22.5 13.5
t25.5 -8t13.5 -24q0 -11 -7 -20t-17 -13t-21.5 -1.5t-20.5 13.5zM341 800q-5 27 4.5 39.5t22.5 13.5t25.5 -8t13.5 -24q0 -11 -7 -20t-17 -13t-21.5 -1.5t-20.5 13.5z" />
    <glyph glyph-name="Yacute" unicode="&#xdd;" horiz-adv-x="408" 
d="M411 718q-9 -57 -27.5 -106.5t-40.5 -100.5q-10 -22 -22 -46t-23 -47q-11 -21 -21.5 -36t-19 -31t-14 -36.5t-5.5 -52.5q0 -24 0.5 -52t2 -57t3 -57t3.5 -50q1 -15 4.5 -29t-10.5 -25q-7 -5 -14.5 -1t-15.5 4q-7 31 -10.5 65.5t-5 71t-2 72.5t-0.5 70q0 12 1 27.5
t-1 26.5q-4 21 -22.5 47.5t-31.5 48.5q-15 26 -29 49.5t-25 43.5q-28 51 -55 94.5t-50 88.5q0 6 4 8t9.5 3t11.5 1.5t11 2.5q57 -76 104 -162t97 -171q28 36 48.5 78.5t38.5 88.5t35.5 92.5t39.5 88.5q12 2 18 -3t14 -9zM310 925q8 -5 18.5 -7t12.5 -13q-7 -17 -18.5 -25
t-25.5 -24q-15 -18 -27.5 -41t-25 -41t-27.5 -26t-34 4q5 19 17.5 42t30 46.5t38 45.5t41.5 39z" />
    <glyph glyph-name="Thorn" unicode="&#xde;" horiz-adv-x="593" 
d="M111 627q31 -1 76 2t92.5 3t91 -5t73.5 -21q10 -6 23.5 -16.5t27 -23.5t25 -25.5t17.5 -22.5q9 -13 17 -31.5t14 -39.5t8.5 -43t0.5 -43q-4 -27 -19 -46t-30 -39q-16 -20 -28 -41t-29 -35q-30 -26 -71 -34.5t-87 -9.5t-94 2t-93 0q-4 -26 -3.5 -50.5t2 -48.5t3.5 -48
t1 -49q-8 -8 -21.5 -9.5t-23.5 5.5q-11 89 -12 187.5t-1 197.5t-4 194t-20 177q14 15 26.5 10.5t21 -20t13 -37t3.5 -40.5zM438 231q11 8 25 23.5t27 34t22.5 37t12.5 32.5q4 21 2 43t-8.5 43.5t-16 40.5t-19.5 33q-5 6 -13.5 14t-18 16.5t-20 15.5t-18.5 11q-15 7 -44 11.5
t-61 6.5t-63.5 2t-51.5 -1q-18 -2 -38 -6.5t-38 -9.5q4 -46 4.5 -94.5t0.5 -97t0.5 -96t3.5 -90.5q41 1 84.5 -2t85 -2.5t78 7.5t64.5 28z" />
    <glyph glyph-name="germandbls" unicode="&#xdf;" horiz-adv-x="547" 
d="M323 377q33 -10 65.5 -23t59.5 -32t45.5 -45t23.5 -62q6 -49 -12 -94t-46 -75q-8 -8 -24 -19.5t-36 -23t-42.5 -20t-42.5 -10.5t-48 0t-53 7.5t-42.5 13.5t-16.5 19q1 13 9 15.5t18.5 -0.5t21.5 -8.5t17 -6.5q51 -11 98 -3t83 32t56 63t17 89q-2 30 -13 52.5t-29 39
t-41 27.5t-47 18q-16 5 -38 7t-41.5 4.5t-33.5 7t-14 15.5q0 6 7 11t17.5 9.5t22 8.5t20.5 7q25 10 50 28.5t41.5 43.5t20 56t-14.5 66q-6 11 -19.5 23.5t-30.5 24.5t-34.5 21.5t-30.5 14.5q-28 9 -53 8t-45 -9.5t-35 -24t-22 -34.5q-14 -41 -11 -94.5t5 -111.5
q3 -69 3 -130t-1.5 -122t-3.5 -124t-1 -136q0 -9 1 -21.5t-1.5 -24.5t-9.5 -21t-23 -9q-11 14 -11 32t-1 35q-3 62 -1.5 131t3.5 142.5t3 149t-2 151.5q-3 55 -1 100.5t15.5 78.5t42 52.5t79.5 24.5q28 2 62 -7t66 -25t58 -36.5t38 -40.5q21 -36 21 -72.5t-15 -68
t-42.5 -56.5t-60.5 -39z" />
    <glyph glyph-name="agrave" unicode="&#xe0;" horiz-adv-x="393" 
d="M304 355q2 -8 9.5 -10.5t11.5 -9.5q1 -6 -1.5 -8.5l-5 -5t-4.5 -5t-1 -8.5q15 -61 33 -123t37 -121q6 -18 13 -37.5t2 -38.5q-9 -5 -18.5 -3t-19.5 3q-26 80 -49.5 160.5t-44.5 165.5q-35 4 -75 1t-72 -10q-20 -57 -37 -126.5t-39 -131.5q-3 -8 -6 -19t-8.5 -20
t-14 -12.5t-21.5 4.5q-1 23 9.5 43t16.5 42q19 68 36.5 136t34.5 135.5t36 135t43 134.5q8 22 17.5 45.5t17.5 36.5q13 9 22 3t15.5 -19t11 -30t7.5 -30q7 -32 13 -69t11 -73.5t10 -71.5t10 -63zM128 344q32 2 63 4t66 2q-8 71 -17.5 140.5t-26.5 132.5q-26 -66 -45 -137.5
t-40 -141.5zM247 774q-5 -7 -9 -17t-15 -11q-16 8 -22.5 21t-20.5 29q-16 17 -37 32t-37.5 30t-22.5 30.5t9 33.5q18 -7 39.5 -22.5t42.5 -36t40 -44t33 -45.5z" />
    <glyph glyph-name="aacute" unicode="&#xe1;" horiz-adv-x="393" 
d="M304 355q2 -8 9.5 -10.5t11.5 -9.5q1 -6 -1.5 -8.5l-5 -5t-4.5 -5t-1 -8.5q15 -61 33 -123t37 -121q6 -18 13 -37.5t2 -38.5q-9 -5 -18.5 -3t-19.5 3q-26 80 -49.5 160.5t-44.5 165.5q-35 4 -75 1t-72 -10q-20 -57 -37 -126.5t-39 -131.5q-3 -8 -6 -19t-8.5 -20
t-14 -12.5t-21.5 4.5q-1 23 9.5 43t16.5 42q19 68 36.5 136t34.5 135.5t36 135t43 134.5q8 22 17.5 45.5t17.5 36.5q13 9 22 3t15.5 -19t11 -30t7.5 -30q7 -32 13 -69t11 -73.5t10 -71.5t10 -63zM128 344q32 2 63 4t66 2q-8 71 -17.5 140.5t-26.5 132.5q-26 -66 -45 -137.5
t-40 -141.5zM266 925q8 -5 18.5 -7t12.5 -13q-7 -17 -18.5 -25t-25.5 -24q-15 -18 -27.5 -41t-25 -41t-27.5 -26t-34 4q5 19 17.5 42t30 46.5t38 45.5t41.5 39z" />
    <glyph glyph-name="acircumflex" unicode="&#xe2;" horiz-adv-x="393" 
d="M305 355q2 -8 9.5 -10.5t11.5 -9.5q1 -6 -1.5 -8.5l-5 -5t-4.5 -5t-1 -8.5q15 -61 33 -123t37 -121q6 -18 13 -37.5t2 -38.5q-9 -5 -18.5 -3t-19.5 3q-26 80 -49.5 160.5t-44.5 165.5q-35 4 -75 1t-72 -10q-20 -57 -37 -126.5t-39 -131.5q-3 -8 -6 -19t-8.5 -20
t-14 -12.5t-21.5 4.5q-1 23 9.5 43t16.5 42q19 68 36.5 136t34.5 135.5t36 135t43 134.5q8 22 17.5 45.5t17.5 36.5q13 9 22 3t15.5 -19t11 -30t7.5 -30q7 -32 13 -69t11 -73.5t10 -71.5t10 -63zM129 344q32 2 63 4t66 2q-8 71 -17.5 140.5t-26.5 132.5q-26 -66 -45 -137.5
t-40 -141.5zM204 898q5 -2 8 -6.5t5 -9.5q16 -25 36.5 -49.5t42.5 -47.5q8 -8 2 -14.5t-18 -13.5q-13 15 -23.5 26t-20 22t-19 23t-21.5 28q-20 -12 -33.5 -30t-29.5 -41q-2 -3 -6.5 -7.5t-10 -7.5t-11.5 -2.5t-10 6.5q43 77 109 124z" />
    <glyph glyph-name="atilde" unicode="&#xe3;" horiz-adv-x="393" 
d="M305 355q2 -8 9.5 -10.5t11.5 -9.5q1 -6 -1.5 -8.5l-5 -5t-4.5 -5t-1 -8.5q15 -61 33 -123t37 -121q6 -18 13 -37.5t2 -38.5q-9 -5 -18.5 -3t-19.5 3q-26 80 -49.5 160.5t-44.5 165.5q-35 4 -75 1t-72 -10q-20 -57 -37 -126.5t-39 -131.5q-3 -8 -6 -19t-8.5 -20
t-14 -12.5t-21.5 4.5q-1 23 9.5 43t16.5 42q19 68 36.5 136t34.5 135.5t36 135t43 134.5q8 22 17.5 45.5t17.5 36.5q13 9 22 3t15.5 -19t11 -30t7.5 -30q7 -32 13 -69t11 -73.5t10 -71.5t10 -63zM129 344q32 2 63 4t66 2q-8 71 -17.5 140.5t-26.5 132.5q-26 -66 -45 -137.5
t-40 -141.5zM367 876q14 -21 9.5 -45.5t-20.5 -41.5q-6 -7 -15 -16t-19.5 -16t-22 -11t-23.5 -1q-21 5 -45.5 20.5t-41.5 31.5q-8 5 -11 11.5t-14 13.5q-9 7 -16 10.5t-16 3.5q-10 0 -19 -9t-12 -16q-3 -5 -5.5 -13t-5 -15.5t-5.5 -13t-7 -6.5q-11 -2 -15 7.5t-4.5 21.5
t1.5 23t3 13q4 8 13.5 18.5t21.5 19t25.5 12.5t27.5 -2q11 -5 25 -18t28 -24q9 -6 18 -15t18.5 -17t19.5 -13.5t22 -5.5q13 0 25 9t22 22.5t16.5 29t7.5 27.5q-1 5 4 5h10z" />
    <glyph glyph-name="adieresis" unicode="&#xe4;" horiz-adv-x="392" 
d="M304 355q2 -8 9.5 -10.5t11.5 -9.5q1 -6 -1.5 -8.5l-5 -5t-4.5 -5t-1 -8.5q15 -61 33 -123t37 -121q6 -18 13 -37.5t2 -38.5q-9 -5 -18.5 -3t-19.5 3q-26 80 -49.5 160.5t-44.5 165.5q-35 4 -75 1t-72 -10q-20 -57 -37 -126.5t-39 -131.5q-3 -8 -6 -19t-8.5 -20
t-14 -12.5t-21.5 4.5q-1 23 9.5 43t16.5 42q19 68 36.5 136t34.5 135.5t36 135t43 134.5q8 22 17.5 45.5t17.5 36.5q13 9 22 3t15.5 -19t11 -30t7.5 -30q7 -32 13 -69t11 -73.5t10 -71.5t10 -63zM128 344q32 2 63 4t66 2q-8 71 -17.5 140.5t-26.5 132.5q-26 -66 -45 -137.5
t-40 -141.5zM97 794q-5 27 4.5 39.5t22.5 13.5t25.5 -8t13.5 -24q0 -11 -7 -20t-17 -13t-21.5 -1.5t-20.5 13.5zM256 800q-5 27 4.5 39.5t22.5 13.5t25.5 -8t13.5 -24q0 -11 -7 -20t-17 -13t-21.5 -1.5t-20.5 13.5z" />
    <glyph glyph-name="aring" unicode="&#xe5;" horiz-adv-x="389" 
d="M304 355q2 -8 9.5 -10.5t11.5 -9.5q1 -6 -1.5 -8.5l-5 -5t-4.5 -5t-1 -8.5q15 -61 33 -123t37 -121q6 -18 13 -37.5t2 -38.5q-9 -5 -18.5 -3t-19.5 3q-26 80 -49.5 160.5t-44.5 165.5q-35 4 -75 1t-72 -10q-20 -57 -37 -126.5t-39 -131.5q-3 -8 -6 -19t-8.5 -20
t-14 -12.5t-21.5 4.5q-1 23 9.5 43t16.5 42q19 68 36.5 136t34.5 135.5t36 135t43 134.5q8 22 17.5 45.5t17.5 36.5q13 9 22 3t15.5 -19t11 -30t7.5 -30q7 -32 13 -69t11 -73.5t10 -71.5t10 -63zM128 344q32 2 63 4t66 2q-8 71 -17.5 140.5t-26.5 132.5q-26 -66 -45 -137.5
t-40 -141.5zM173 771q-11 13 -18.5 33t0.5 45q10 9 26.5 13t33 2.5t29.5 -9t16 -21.5q6 -32 -20.5 -48.5t-66.5 -14.5zM191 831q-4 -3 -3.5 -10t0.5 -14q14 -4 23.5 3t12.5 21q-5 4 -16.5 4t-16.5 -4z" />
    <glyph glyph-name="ae" unicode="&#xe6;" horiz-adv-x="769" 
d="M660 24q25 0 50.5 -3.5t42.5 -14.5q-6 -15 -17.5 -19t-25 -3.5t-28.5 4t-28 3.5q-33 0 -70 -3.5t-74.5 -5.5t-73.5 -1t-67 10q0 3 -1 4q-25 79 -48.5 158.5t-43.5 163.5q-35 4 -75 1t-72 -10q-20 -57 -37 -126.5t-39 -131.5q-3 -8 -6 -19t-8.5 -20t-14 -12.5t-21.5 4.5
q-1 23 9.5 43t16.5 42q19 68 36.5 136t34.5 135.5t36 135t43 134.5q8 22 17.5 45.5t17.5 36.5q13 9 22 3t15.5 -19t11 -30t7.5 -30q7 -32 13 -69t11 -73.5t10 -71.5t10 -63q2 -8 9.5 -10.5t11.5 -9.5q1 -6 -1.5 -8.5l-5 -5t-4.5 -5t-1 -8.5q10 -41 21.5 -81.5t23.5 -81.5
q1 72 4 145t5 144.5t3 140.5t-2 133q25 10 59 14.5t72 6t77 1.5t74 2q10 0 25 2t28.5 1t22.5 -6t8 -18q-6 -8 -14.5 -11t-19 -4t-21.5 -0.5t-20 0.5q-29 -1 -61.5 -2t-64.5 -2.5t-62 -4.5t-55 -9q1 -143 -3 -309q45 -4 95.5 -5.5t99.5 2.5q15 1 31.5 4t31.5 4t27.5 -3
t20.5 -17q-14 -14 -37.5 -15t-46.5 -3q-51 -5 -108 -6.5t-111 0.5q-3 -44 -6 -82.5t-6 -76t-4.5 -75t-1.5 -78.5v-3q30 -5 62 -4.5t64 2.5t64 5t62 3zM138 347q32 2 63 4t66 2q-8 71 -17.5 140.5t-26.5 132.5q-26 -66 -45 -137.5t-40 -141.5z" />
    <glyph glyph-name="ccedilla" unicode="&#xe7;" horiz-adv-x="439" 
d="M254 -9q-5 -26 -3 -57q32 2 51.5 -14.5t26 -39.5t-1 -48.5t-28.5 -41.5q-31 -7 -57.5 2t-29.5 37q6 3 9 9q9 1 13 -1.5t7 -6.5t6 -7t10 -3q11 0 19 7t12.5 18t5 23.5t-3.5 23.5q-10 4 -17.5 3t-14 -4t-12.5 -6.5t-13 -4.5q-8 3 -13 8t-11 10q2 12 1.5 27t-0.5 29.5
t1.5 28t6.5 23.5q15 2 21.5 -4t14.5 -11zM411 639q-15 -1 -24.5 3t-16.5 10t-13 12.5t-15 10.5q-15 6 -33 7t-37 -1.5t-36.5 -8t-31.5 -12.5q-37 -18 -63.5 -58.5t-42 -94t-21 -114.5t0 -119.5t20.5 -110t40 -85.5q16 -22 41 -36.5t54 -19t59 2.5t56 29q20 18 29.5 44
t27.5 49q23 -11 25 -28.5t-6 -34.5t-21.5 -32t-21.5 -22q-26 -22 -62.5 -37t-78.5 -11q-66 7 -108 43.5t-65.5 93.5t-30.5 130t-2 153q3 44 11.5 88t24 82t38 68t54.5 47q21 11 47 19t53 10.5t54 -1.5t50 -16q18 -10 33.5 -23.5t11.5 -36.5z" />
    <glyph glyph-name="egrave" unicode="&#xe8;" horiz-adv-x="451" 
d="M413 712q-6 -8 -14.5 -11t-19 -4t-21.5 -0.5t-20 0.5q-29 -1 -61.5 -2t-64.5 -2.5t-62 -4.5t-55 -9q1 -143 -3 -309q45 -4 95.5 -5.5t99.5 2.5q15 1 31.5 4t31.5 4t27.5 -3t20.5 -17q-14 -14 -37.5 -15t-46.5 -3q-51 -5 -108 -6.5t-111 0.5q-3 -44 -6 -83t-6 -76.5
t-4.5 -75.5t-1.5 -80q30 -5 62 -4.5t64 2.5t64 5t62 3q25 0 50.5 -3.5t42.5 -14.5q-6 -15 -17.5 -19t-25 -3.5t-28.5 4t-28 3.5q-33 0 -70 -3.5t-74.5 -5.5t-73.5 -1t-67 10q-3 87 -0.5 179.5t6 185.5t5.5 183t-2 172q25 10 59 14.5t72 6t77 1.5t74 2q10 0 25 2t28.5 1
t22.5 -6t8 -18zM307 778q-5 -7 -9 -17t-15 -11q-16 8 -22.5 21t-20.5 29q-16 17 -37 32t-37.5 30t-22.5 30.5t9 33.5q18 -7 39.5 -22.5t42.5 -36t40 -44t33 -45.5z" />
    <glyph glyph-name="eacute" unicode="&#xe9;" horiz-adv-x="453" 
d="M413 712q-6 -8 -14.5 -11t-19 -4t-21.5 -0.5t-20 0.5q-29 -1 -61.5 -2t-64.5 -2.5t-62 -4.5t-55 -9q1 -143 -3 -309q45 -4 95.5 -5.5t99.5 2.5q15 1 31.5 4t31.5 4t27.5 -3t20.5 -17q-14 -14 -37.5 -15t-46.5 -3q-51 -5 -108 -6.5t-111 0.5q-3 -44 -6 -83t-6 -76.5
t-4.5 -75.5t-1.5 -80q30 -5 62 -4.5t64 2.5t64 5t62 3q25 0 50.5 -3.5t42.5 -14.5q-6 -15 -17.5 -19t-25 -3.5t-28.5 4t-28 3.5q-33 0 -70 -3.5t-74.5 -5.5t-73.5 -1t-67 10q-3 87 -0.5 179.5t6 185.5t5.5 183t-2 172q25 10 59 14.5t72 6t77 1.5t74 2q10 0 25 2t28.5 1
t22.5 -6t8 -18zM319 925q8 -5 18.5 -7t12.5 -13q-7 -17 -18.5 -25t-25.5 -24q-15 -18 -27.5 -41t-25 -41t-27.5 -26t-34 4q5 19 17.5 42t30 46.5t38 45.5t41.5 39z" />
    <glyph glyph-name="ecircumflex" unicode="&#xea;" horiz-adv-x="444" 
d="M413 712q-6 -8 -14.5 -11t-19 -4t-21.5 -0.5t-20 0.5q-29 -1 -61.5 -2t-64.5 -2.5t-62 -4.5t-55 -9q1 -143 -3 -309q45 -4 95.5 -5.5t99.5 2.5q15 1 31.5 4t31.5 4t27.5 -3t20.5 -17q-14 -14 -37.5 -15t-46.5 -3q-51 -5 -108 -6.5t-111 0.5q-3 -44 -6 -83t-6 -76.5
t-4.5 -75.5t-1.5 -80q30 -5 62 -4.5t64 2.5t64 5t62 3q25 0 50.5 -3.5t42.5 -14.5q-6 -15 -17.5 -19t-25 -3.5t-28.5 4t-28 3.5q-33 0 -70 -3.5t-74.5 -5.5t-73.5 -1t-67 10q-3 87 -0.5 179.5t6 185.5t5.5 183t-2 172q25 10 59 14.5t72 6t77 1.5t74 2q10 0 25 2t28.5 1
t22.5 -6t8 -18zM235 898q5 -2 8 -6.5t5 -9.5q16 -25 36.5 -49.5t42.5 -47.5q8 -8 2 -14.5t-18 -13.5q-13 15 -23.5 26t-20 22t-19 23t-21.5 28q-20 -12 -33.5 -30t-29.5 -41q-2 -3 -6.5 -7.5t-10 -7.5t-11.5 -2.5t-10 6.5q43 77 109 124z" />
    <glyph glyph-name="edieresis" unicode="&#xeb;" horiz-adv-x="435" 
d="M413 712q-6 -8 -14.5 -11t-19 -4t-21.5 -0.5t-20 0.5q-29 -1 -61.5 -2t-64.5 -2.5t-62 -4.5t-55 -9q1 -143 -3 -309q45 -4 95.5 -5.5t99.5 2.5q15 1 31.5 4t31.5 4t27.5 -3t20.5 -17q-14 -14 -37.5 -15t-46.5 -3q-51 -5 -108 -6.5t-111 0.5q-3 -44 -6 -83t-6 -76.5
t-4.5 -75.5t-1.5 -80q30 -5 62 -4.5t64 2.5t64 5t62 3q25 0 50.5 -3.5t42.5 -14.5q-6 -15 -17.5 -19t-25 -3.5t-28.5 4t-28 3.5q-33 0 -70 -3.5t-74.5 -5.5t-73.5 -1t-67 10q-3 87 -0.5 179.5t6 185.5t5.5 183t-2 172q25 10 59 14.5t72 6t77 1.5t74 2q10 0 25 2t28.5 1
t22.5 -6t8 -18zM125 794q-5 27 4.5 39.5t22.5 13.5t25.5 -8t13.5 -24q0 -11 -7 -20t-17 -13t-21.5 -1.5t-20.5 13.5zM284 800q-5 27 4.5 39.5t22.5 13.5t25.5 -8t13.5 -24q0 -11 -7 -20t-17 -13t-21.5 -1.5t-20.5 13.5z" />
    <glyph glyph-name="igrave" unicode="&#xec;" horiz-adv-x="229" 
d="M198 689q-5 -10 -21.5 -8.5t-30.5 0.5q2 -76 0.5 -153.5t-3.5 -157t-2 -161t5 -164.5q10 -1 22 1t22 2.5t17.5 -2.5t9.5 -14q-3 -7 -9.5 -10.5t-15.5 -4.5t-19 -1.5t-19 -1.5q-14 -2 -29.5 -7t-30.5 -8t-29 -1t-25 13q2 9 9 12.5t17 4t20.5 1t18.5 3.5q1 46 -0.5 96.5
t-2.5 104t-1 108t4 108.5q4 52 4.5 112.5t-2.5 114.5q-12 0 -27.5 -1.5t-29.5 -1t-24 5t-12 17.5q15 8 45.5 12.5t61.5 6.5q12 1 25 2t24.5 -1.5t19 -8.5t8.5 -18zM187 778q-5 -7 -9 -17t-15 -11q-16 8 -22.5 21t-20.5 29q-16 17 -37 32t-37.5 30t-22.5 30.5t9 33.5
q18 -7 39.5 -22.5t42.5 -36t40 -44t33 -45.5z" />
    <glyph glyph-name="iacute" unicode="&#xed;" horiz-adv-x="224" 
d="M198 689q-5 -10 -21.5 -8.5t-30.5 0.5q2 -76 0.5 -153.5t-3.5 -157t-2 -161t5 -164.5q10 -1 22 1t22 2.5t17.5 -2.5t9.5 -14q-3 -7 -9.5 -10.5t-15.5 -4.5t-19 -1.5t-19 -1.5q-14 -2 -29.5 -7t-30.5 -8t-29 -1t-25 13q2 9 9 12.5t17 4t20.5 1t18.5 3.5q1 46 -0.5 96.5
t-2.5 104t-1 108t4 108.5q4 52 4.5 112.5t-2.5 114.5q-12 0 -27.5 -1.5t-29.5 -1t-24 5t-12 17.5q15 8 45.5 12.5t61.5 6.5q12 1 25 2t24.5 -1.5t19 -8.5t8.5 -18zM158 914q8 -5 18.5 -7t12.5 -13q-7 -17 -18.5 -25t-25.5 -24q-15 -18 -27.5 -41t-25 -41t-27.5 -26t-34 4
q5 19 17.5 42t30 46.5t38 45.5t41.5 39z" />
    <glyph glyph-name="icircumflex" unicode="&#xee;" horiz-adv-x="231" 
d="M198 689q-5 -10 -21.5 -8.5t-30.5 0.5q2 -76 0.5 -153.5t-3.5 -157t-2 -161t5 -164.5q10 -1 22 1t22 2.5t17.5 -2.5t9.5 -14q-3 -7 -9.5 -10.5t-15.5 -4.5t-19 -1.5t-19 -1.5q-14 -2 -29.5 -7t-30.5 -8t-29 -1t-25 13q2 9 9 12.5t17 4t20.5 1t18.5 3.5q1 46 -0.5 96.5
t-2.5 104t-1 108t4 108.5q4 52 4.5 112.5t-2.5 114.5q-12 0 -27.5 -1.5t-29.5 -1t-24 5t-12 17.5q15 8 45.5 12.5t61.5 6.5q12 1 25 2t24.5 -1.5t19 -8.5t8.5 -18zM103 898q5 -2 8 -6.5t5 -9.5q16 -25 36.5 -49.5t42.5 -47.5q8 -8 2 -14.5t-18 -13.5q-13 15 -23.5 26t-20 22
t-19 23t-21.5 28q-20 -12 -33.5 -30t-29.5 -41q-2 -3 -6.5 -7.5t-10 -7.5t-11.5 -2.5t-10 6.5q43 77 109 124z" />
    <glyph glyph-name="idieresis" unicode="&#xef;" horiz-adv-x="231" 
d="M198 689q-5 -10 -21.5 -8.5t-30.5 0.5q2 -76 0.5 -153.5t-3.5 -157t-2 -161t5 -164.5q10 -1 22 1t22 2.5t17.5 -2.5t9.5 -14q-3 -7 -9.5 -10.5t-15.5 -4.5t-19 -1.5t-19 -1.5q-14 -2 -29.5 -7t-30.5 -8t-29 -1t-25 13q2 9 9 12.5t17 4t20.5 1t18.5 3.5q1 46 -0.5 96.5
t-2.5 104t-1 108t4 108.5q4 52 4.5 112.5t-2.5 114.5q-12 0 -27.5 -1.5t-29.5 -1t-24 5t-12 17.5q15 8 45.5 12.5t61.5 6.5q12 1 25 2t24.5 -1.5t19 -8.5t8.5 -18zM-3 794q-5 27 4.5 39.5t22.5 13.5t25.5 -8t13.5 -24q0 -11 -7 -20t-17 -13t-21.5 -1.5t-20.5 13.5zM156 800
q-5 27 4.5 39.5t22.5 13.5t25.5 -8t13.5 -24q0 -11 -7 -20t-17 -13t-21.5 -1.5t-20.5 13.5z" />
    <glyph glyph-name="eth" unicode="&#xf0;" horiz-adv-x="555" 
d="M334 654q10 -18 24 -33.5t28.5 -31t29.5 -31.5t28 -34q41 -57 64.5 -125t19.5 -153q-2 -36 -9.5 -66t-19 -57t-26 -51.5t-29.5 -48.5q-36 -29 -83.5 -39.5t-96 -4.5t-94.5 26.5t-80 54.5t-50.5 79.5t-7.5 100.5q3 15 9 34t14 36q16 39 42.5 79.5t62.5 70.5t82 44t100 1
q26 -7 45.5 -20t45.5 -29q-24 52 -59 91.5t-71 78.5q-10 -6 -23.5 -19.5t-27.5 -23.5t-28 -9.5t-25 21.5q16 16 34.5 29t38.5 27q-5 15 -18.5 22.5t-28 14t-26 15t-11.5 24.5q17 5 33 1t30 -12t27 -18.5t25 -18.5q15 7 32.5 18t35.5 22.5t35.5 21.5t31.5 14q7 2 14.5 -3.5
t8.5 -10.5q1 -6 -7 -13.5t-18.5 -14.5t-20.5 -12t-14 -8q-20 -13 -34.5 -21.5t-32.5 -17.5zM148 378q-15 -22 -32.5 -56t-28 -73t-9.5 -77.5t22 -69.5q16 -25 49 -46t72 -32.5t80.5 -10.5t74.5 19t59.5 62t40 97t10 106.5t-30.5 91.5q-8 12 -26.5 28t-42.5 29.5t-51.5 21
t-54.5 3.5q-21 -4 -41 -14t-37 -23t-31 -28t-23 -28z" />
    <glyph glyph-name="ntilde" unicode="&#xf1;" horiz-adv-x="519" 
d="M444 722q7 -81 12 -170.5t10.5 -180.5t11.5 -180.5t15 -170.5q-14 -8 -24 -5.5t-17.5 10t-13 18.5t-9.5 20q-29 63 -55.5 131t-60.5 128q-45 82 -93 162t-96 149q0 -82 -4.5 -162t-10 -159t-11 -156.5t-8.5 -153.5q-9 -3 -21 -5t-21 2q1 81 5 163t10 160q8 100 11 196.5
t7 187.5q16 4 31 -1.5t27 -16t22 -23.5t18 -23q35 -45 64 -100.5t61 -110.5q29 -54 59.5 -108t56.5 -114q4 61 1 126t-7.5 131t-8 132t-1.5 129q23 12 40 -5zM400 876q14 -21 9.5 -45.5t-20.5 -41.5q-6 -7 -15 -16t-19.5 -16t-22 -11t-23.5 -1q-21 5 -45.5 20.5t-41.5 31.5
q-8 5 -11 11.5t-14 13.5q-9 7 -16 10.5t-16 3.5q-10 0 -19 -9t-12 -16q-3 -5 -5.5 -13t-5 -15.5t-5.5 -13t-7 -6.5q-11 -2 -15 7.5t-4.5 21.5t1.5 23t3 13q4 8 13.5 18.5t21.5 19t25.5 12.5t27.5 -2q11 -5 25 -18t28 -24q9 -6 18 -15t18.5 -17t19.5 -13.5t22 -5.5q13 0 25 9
t22 22.5t16.5 29t7.5 27.5q-1 5 4 5h10z" />
    <glyph glyph-name="ograve" unicode="&#xf2;" horiz-adv-x="609" 
d="M253 723q6 1 17.5 1.5t25 -0.5t26.5 -2.5t22 -4.5q28 -7 57 -24t55 -39.5t47.5 -49t34.5 -53.5q26 -52 25 -115.5t-19 -138.5q-9 -40 -21.5 -81.5t-29 -79t-38 -68t-49.5 -49.5q-54 -34 -107 -35t-99 20.5t-81.5 60t-54.5 83.5q-22 53 -31 113t-5.5 120t19 117t43 103.5
t67 78.5t90.5 43q2 1 3 0.5t3 -0.5zM101 164q7 -19 22 -43t34.5 -46t40.5 -38t41 -20q21 -4 44 -0.5t44.5 11t40 17.5t29.5 20q43 41 66 103.5t37 131.5q4 19 8.5 40.5t8 42.5t5 41t0.5 37q-2 26 -10.5 49.5t-21.5 44t-27.5 38t-28.5 32.5q-35 36 -77 51t-107 7
q-60 -20 -101 -75t-60.5 -129t-17 -157t29.5 -158zM354 774q-5 -7 -9 -17t-15 -11q-16 8 -22.5 21t-20.5 29q-16 17 -37 32t-37.5 30t-22.5 30.5t9 33.5q18 -7 39.5 -22.5t42.5 -36t40 -44t33 -45.5z" />
    <glyph glyph-name="oacute" unicode="&#xf3;" horiz-adv-x="603" 
d="M253 723q6 1 17.5 1.5t25 -0.5t26.5 -2.5t22 -4.5q28 -7 57 -24t55 -39.5t47.5 -49t34.5 -53.5q26 -52 25 -115.5t-19 -138.5q-9 -40 -21.5 -81.5t-29 -79t-38 -68t-49.5 -49.5q-54 -34 -107 -35t-99 20.5t-81.5 60t-54.5 83.5q-22 53 -31 113t-5.5 120t19 117t43 103.5
t67 78.5t90.5 43q2 1 3 0.5t3 -0.5zM101 164q7 -19 22 -43t34.5 -46t40.5 -38t41 -20q21 -4 44 -0.5t44.5 11t40 17.5t29.5 20q43 41 66 103.5t37 131.5q4 19 8.5 40.5t8 42.5t5 41t0.5 37q-2 26 -10.5 49.5t-21.5 44t-27.5 38t-28.5 32.5q-35 36 -77 51t-107 7
q-60 -20 -101 -75t-60.5 -129t-17 -157t29.5 -158zM386 925q8 -5 18.5 -7t12.5 -13q-7 -17 -18.5 -25t-25.5 -24q-15 -18 -27.5 -41t-25 -41t-27.5 -26t-34 4q5 19 17.5 42t30 46.5t38 45.5t41.5 39z" />
    <glyph glyph-name="ocircumflex" unicode="&#xf4;" horiz-adv-x="603" 
d="M253 723q6 1 17.5 1.5t25 -0.5t26.5 -2.5t22 -4.5q28 -7 57 -24t55 -39.5t47.5 -49t34.5 -53.5q26 -52 25 -115.5t-19 -138.5q-9 -40 -21.5 -81.5t-29 -79t-38 -68t-49.5 -49.5q-54 -34 -107 -35t-99 20.5t-81.5 60t-54.5 83.5q-22 53 -31 113t-5.5 120t19 117t43 103.5
t67 78.5t90.5 43q2 1 3 0.5t3 -0.5zM101 164q7 -19 22 -43t34.5 -46t40.5 -38t41 -20q21 -4 44 -0.5t44.5 11t40 17.5t29.5 20q43 41 66 103.5t37 131.5q4 19 8.5 40.5t8 42.5t5 41t0.5 37q-2 26 -10.5 49.5t-21.5 44t-27.5 38t-28.5 32.5q-35 36 -77 51t-107 7
q-60 -20 -101 -75t-60.5 -129t-17 -157t29.5 -158zM305 898q5 -2 8 -6.5t5 -9.5q16 -25 36.5 -49.5t42.5 -47.5q8 -8 2 -14.5t-18 -13.5q-13 15 -23.5 26t-20 22t-19 23t-21.5 28q-20 -12 -33.5 -30t-29.5 -41q-2 -3 -6.5 -7.5t-10 -7.5t-11.5 -2.5t-10 6.5q43 77 109 124z
" />
    <glyph glyph-name="otilde" unicode="&#xf5;" horiz-adv-x="596" 
d="M253 723q6 1 17.5 1.5t25 -0.5t26.5 -2.5t22 -4.5q28 -7 57 -24t55 -39.5t47.5 -49t34.5 -53.5q26 -52 25 -115.5t-19 -138.5q-9 -40 -21.5 -81.5t-29 -79t-38 -68t-49.5 -49.5q-54 -34 -107 -35t-99 20.5t-81.5 60t-54.5 83.5q-22 53 -31 113t-5.5 120t19 117t43 103.5
t67 78.5t90.5 43q2 1 3 0.5t3 -0.5zM101 164q7 -19 22 -43t34.5 -46t40.5 -38t41 -20q21 -4 44 -0.5t44.5 11t40 17.5t29.5 20q43 41 66 103.5t37 131.5q4 19 8.5 40.5t8 42.5t5 41t0.5 37q-2 26 -10.5 49.5t-21.5 44t-27.5 38t-28.5 32.5q-35 36 -77 51t-107 7
q-60 -20 -101 -75t-60.5 -129t-17 -157t29.5 -158zM448 876q14 -21 9.5 -45.5t-20.5 -41.5q-6 -7 -15 -16t-19.5 -16t-22 -11t-23.5 -1q-21 5 -45.5 20.5t-41.5 31.5q-8 5 -11 11.5t-14 13.5q-9 7 -16 10.5t-16 3.5q-10 0 -19 -9t-12 -16q-3 -5 -5.5 -13t-5 -15.5t-5.5 -13
t-7 -6.5q-11 -2 -15 7.5t-4.5 21.5t1.5 23t3 13q4 8 13.5 18.5t21.5 19t25.5 12.5t27.5 -2q11 -5 25 -18t28 -24q9 -6 18 -15t18.5 -17t19.5 -13.5t22 -5.5q13 0 25 9t22 22.5t16.5 29t7.5 27.5q-1 5 4 5h10z" />
    <glyph glyph-name="odieresis" unicode="&#xf6;" horiz-adv-x="598" 
d="M253 723q6 1 17.5 1.5t25 -0.5t26.5 -2.5t22 -4.5q28 -7 57 -24t55 -39.5t47.5 -49t34.5 -53.5q26 -52 25 -115.5t-19 -138.5q-9 -40 -21.5 -81.5t-29 -79t-38 -68t-49.5 -49.5q-54 -34 -107 -35t-99 20.5t-81.5 60t-54.5 83.5q-22 53 -31 113t-5.5 120t19 117t43 103.5
t67 78.5t90.5 43q2 1 3 0.5t3 -0.5zM101 164q7 -19 22 -43t34.5 -46t40.5 -38t41 -20q21 -4 44 -0.5t44.5 11t40 17.5t29.5 20q43 41 66 103.5t37 131.5q4 19 8.5 40.5t8 42.5t5 41t0.5 37q-2 26 -10.5 49.5t-21.5 44t-27.5 38t-28.5 32.5q-35 36 -77 51t-107 7
q-60 -20 -101 -75t-60.5 -129t-17 -157t29.5 -158zM178 794q-5 27 4.5 39.5t22.5 13.5t25.5 -8t13.5 -24q0 -11 -7 -20t-17 -13t-21.5 -1.5t-20.5 13.5zM337 800q-5 27 4.5 39.5t22.5 13.5t25.5 -8t13.5 -24q0 -11 -7 -20t-17 -13t-21.5 -1.5t-20.5 13.5z" />
    <glyph glyph-name="divide" unicode="&#xf7;" horiz-adv-x="600" 
d="M290 488q16 5 24.5 -5t9 -24t-5.5 -27t-19 -14q-14 -2 -21 7.5t-8 22t4 24.5t16 16zM52 274q57 1 102.5 0.5t88 -1.5t86.5 -1.5t97 -0.5q12 0 34.5 3.5t44 2.5t35.5 -9.5t10 -32.5q-21 -5 -45 -6.5t-49.5 -1.5t-51 1t-48.5 1q-54 0 -89 -1.5t-66 -2t-65.5 0.5t-86.5 6
q-3 4 -5 10.5t-2.5 13t1.5 11.5t9 7zM324 80q5 -20 1 -38.5t-20 -21.5q-15 -3 -22.5 3.5t-9 17.5t1.5 23t10 19.5t17 8t22 -11.5z" />
    <glyph glyph-name="oslash" unicode="&#xf8;" horiz-adv-x="597" 
d="M485 494q10 2 19 11.5t17 21t17 20.5t20 11q12 2 21.5 -2.5t11.5 -15.5q2 -12 -8 -22.5t-23.5 -20.5t-26 -19.5t-14.5 -19.5q4 -20 16.5 -34.5t19.5 -31.5q17 -42 19.5 -87.5t-7.5 -90t-31 -85t-51 -71.5t-67.5 -50.5t-80.5 -21.5q-34 -2 -67.5 4.5t-63.5 18.5t-54.5 30
t-41.5 41q-15 -5 -29.5 -19.5t-29.5 -27t-31 -16.5t-34 12q9 14 21 24.5t25 20t25.5 19.5t22.5 23q-27 49 -34.5 107.5t1.5 115.5t33 106t61 80q35 30 83.5 43t97.5 9.5t92.5 -24t70.5 -59.5zM246 531q-48 -14 -84.5 -56t-55.5 -97.5t-18.5 -116.5t25.5 -114
q91 76 174.5 157.5t170.5 162.5q-13 24 -36 40.5t-52 24.5t-61 8t-63 -9zM331 26q40 3 74.5 25t60 56t41 76.5t19 86t-6 85t-34.5 73.5q-88 -81 -175.5 -160t-171.5 -164q14 -21 36 -36.5t48.5 -25.5t54.5 -14t54 -2z" />
    <glyph glyph-name="ugrave" unicode="&#xf9;" horiz-adv-x="535" 
d="M56 718q19 1 26 -5t7.5 -16.5t-2.5 -25t-4 -29.5q-2 -28 0 -61t5 -67t6.5 -68.5t5.5 -65.5q5 -72 13.5 -134t25.5 -110q6 -19 18.5 -42t28.5 -37q10 -9 28.5 -18t40.5 -14.5t46 -5t46 10.5q16 7 28.5 26t22 45t17 56.5t12 61.5t7.5 60t4 51q3 54 0.5 119t-8.5 131
q-2 16 -5.5 33t-5.5 33.5t-1.5 32.5t6.5 30q15 1 22 -4.5t10 -14.5t3.5 -19.5t2.5 -19.5q8 -44 13 -96.5t7 -109t0 -113.5t-9 -109.5t-20 -97.5t-32 -77q-17 -26 -47 -41t-66 -17.5t-74 7.5t-69 33q-30 22 -49 59t-31 83t-18.5 98t-10.5 104q-7 78 -12 150t1 144
q1 13 3.5 27.5t7.5 22.5zM354 774q-5 -7 -9 -17t-15 -11q-16 8 -22.5 21t-20.5 29q-16 17 -37 32t-37.5 30t-22.5 30.5t9 33.5q18 -7 39.5 -22.5t42.5 -36t40 -44t33 -45.5z" />
    <glyph glyph-name="uacute" unicode="&#xfa;" horiz-adv-x="537" 
d="M56 718q19 1 26 -5t7.5 -16.5t-2.5 -25t-4 -29.5q-2 -28 0 -61t5 -67t6.5 -68.5t5.5 -65.5q5 -72 13.5 -134t25.5 -110q6 -19 18.5 -42t28.5 -37q10 -9 28.5 -18t40.5 -14.5t46 -5t46 10.5q16 7 28.5 26t22 45t17 56.5t12 61.5t7.5 60t4 51q3 54 0.5 119t-8.5 131
q-2 16 -5.5 33t-5.5 33.5t-1.5 32.5t6.5 30q15 1 22 -4.5t10 -14.5t3.5 -19.5t2.5 -19.5q8 -44 13 -96.5t7 -109t0 -113.5t-9 -109.5t-20 -97.5t-32 -77q-17 -26 -47 -41t-66 -17.5t-74 7.5t-69 33q-30 22 -49 59t-31 83t-18.5 98t-10.5 104q-7 78 -12 150t1 144
q1 13 3.5 27.5t7.5 22.5zM360 925q8 -5 18.5 -7t12.5 -13q-7 -17 -18.5 -25t-25.5 -24q-15 -18 -27.5 -41t-25 -41t-27.5 -26t-34 4q5 19 17.5 42t30 46.5t38 45.5t41.5 39z" />
    <glyph glyph-name="ucircumflex" unicode="&#xfb;" horiz-adv-x="530" 
d="M56 718q19 1 26 -5t7.5 -16.5t-2.5 -25t-4 -29.5q-2 -28 0 -61t5 -67t6.5 -68.5t5.5 -65.5q5 -72 13.5 -134t25.5 -110q6 -19 18.5 -42t28.5 -37q10 -9 28.5 -18t40.5 -14.5t46 -5t46 10.5q16 7 28.5 26t22 45t17 56.5t12 61.5t7.5 60t4 51q3 54 0.5 119t-8.5 131
q-2 16 -5.5 33t-5.5 33.5t-1.5 32.5t6.5 30q15 1 22 -4.5t10 -14.5t3.5 -19.5t2.5 -19.5q8 -44 13 -96.5t7 -109t0 -113.5t-9 -109.5t-20 -97.5t-32 -77q-17 -26 -47 -41t-66 -17.5t-74 7.5t-69 33q-30 22 -49 59t-31 83t-18.5 98t-10.5 104q-7 78 -12 150t1 144
q1 13 3.5 27.5t7.5 22.5zM274 898q5 -2 8 -6.5t5 -9.5q16 -25 36.5 -49.5t42.5 -47.5q8 -8 2 -14.5t-18 -13.5q-13 15 -23.5 26t-20 22t-19 23t-21.5 28q-20 -12 -33.5 -30t-29.5 -41q-2 -3 -6.5 -7.5t-10 -7.5t-11.5 -2.5t-10 6.5q43 77 109 124z" />
    <glyph glyph-name="udieresis" unicode="&#xfc;" horiz-adv-x="532" 
d="M56 718q19 1 26 -5t7.5 -16.5t-2.5 -25t-4 -29.5q-2 -28 0 -61t5 -67t6.5 -68.5t5.5 -65.5q5 -72 13.5 -134t25.5 -110q6 -19 18.5 -42t28.5 -37q10 -9 28.5 -18t40.5 -14.5t46 -5t46 10.5q16 7 28.5 26t22 45t17 56.5t12 61.5t7.5 60t4 51q3 54 0.5 119t-8.5 131
q-2 16 -5.5 33t-5.5 33.5t-1.5 32.5t6.5 30q15 1 22 -4.5t10 -14.5t3.5 -19.5t2.5 -19.5q8 -44 13 -96.5t7 -109t0 -113.5t-9 -109.5t-20 -97.5t-32 -77q-17 -26 -47 -41t-66 -17.5t-74 7.5t-69 33q-30 22 -49 59t-31 83t-18.5 98t-10.5 104q-7 78 -12 150t1 144
q1 13 3.5 27.5t7.5 22.5zM150 794q-5 27 4.5 39.5t22.5 13.5t25.5 -8t13.5 -24q0 -11 -7 -20t-17 -13t-21.5 -1.5t-20.5 13.5zM309 800q-5 27 4.5 39.5t22.5 13.5t25.5 -8t13.5 -24q0 -11 -7 -20t-17 -13t-21.5 -1.5t-20.5 13.5z" />
    <glyph glyph-name="yacute" unicode="&#xfd;" horiz-adv-x="415" 
d="M412 706q-17 -66 -44 -135t-50 -135q-10 -29 -23.5 -54.5t-17.5 -57.5q-6 -42 -6.5 -84.5t-2.5 -85.5q-2 -42 -1 -85t-14 -80q-16 0 -22.5 6t-8 15t0 20t1.5 21q1 31 0.5 68.5t2.5 75.5q2 35 7.5 75t-1.5 72q-2 10 -13 22.5t-20 24.5q-23 30 -46 70.5t-42 70.5
q-16 25 -32 47.5t-33 43.5q-8 9 -17.5 19t-18 21t-15 23t-7.5 25q14 2 25.5 -3.5t21 -15t17.5 -20.5t15 -20q48 -60 91 -126t85 -129q20 37 34.5 79.5t28 86t28.5 85.5t36 78q11 4 22.5 -3t18.5 -15zM304 925q8 -5 18.5 -7t12.5 -13q-7 -17 -18.5 -25t-25.5 -24
q-15 -18 -27.5 -41t-25 -41t-27.5 -26t-34 4q5 19 17.5 42t30 46.5t38 45.5t41.5 39z" />
    <glyph glyph-name="thorn" unicode="&#xfe;" horiz-adv-x="505" 
d="M109 695q-3 -16 -5 -46.5t-2 -64.5t1 -65.5t3 -48.5q11 7 21.5 16t22 17t25 14t30.5 7q46 4 90 -13t79.5 -47t60.5 -69t33 -79q7 -35 5 -71t-12.5 -69t-27 -61.5t-37.5 -49.5q-9 -9 -22 -19.5t-27 -19.5t-29 -15.5t-28 -9.5q-26 -5 -51 -4t-47.5 6.5t-41.5 14t-32 19.5
q-1 -21 -0.5 -48t0.5 -54.5t-0.5 -53t-2.5 -44.5q-6 -4 -17 -3t-17 -3q-12 14 -10.5 26.5t1.5 28.5q1 56 0 126t-3.5 145.5t-5.5 153.5t-5 151t-2 137.5t4 113.5q16 4 29.5 -1t19.5 -17zM106 376q-4 -19 -1.5 -54t4.5 -70q1 -29 0.5 -62t5.5 -53q2 -9 10.5 -18t13.5 -21
q5 -14 6 -25.5t6 -16.5q9 -11 27 -16.5t39 -6t41.5 2.5t34.5 8q42 15 74 55t48 91t11 106t-36 101q-9 14 -28 31t-43 31t-50.5 22t-51.5 4q-17 -3 -35.5 -15.5t-34.5 -29t-27.5 -34t-13.5 -30.5z" />
    <glyph glyph-name="ydieresis" unicode="&#xff;" horiz-adv-x="401" 
d="M412 706q-17 -66 -44 -135t-50 -135q-10 -29 -23.5 -54.5t-17.5 -57.5q-6 -42 -6.5 -84.5t-2.5 -85.5q-2 -42 -1 -85t-14 -80q-16 0 -22.5 6t-8 15t0 20t1.5 21q1 31 0.5 68.5t2.5 75.5q2 35 7.5 75t-1.5 72q-2 10 -13 22.5t-20 24.5q-23 30 -46 70.5t-42 70.5
q-16 25 -32 47.5t-33 43.5q-8 9 -17.5 19t-18 21t-15 23t-7.5 25q14 2 25.5 -3.5t21 -15t17.5 -20.5t15 -20q48 -60 91 -126t85 -129q20 37 34.5 79.5t28 86t28.5 85.5t36 78q11 4 22.5 -3t18.5 -15zM111 794q-5 27 4.5 39.5t22.5 13.5t25.5 -8t13.5 -24q0 -11 -7 -20
t-17 -13t-21.5 -1.5t-20.5 13.5zM270 800q-5 27 4.5 39.5t22.5 13.5t25.5 -8t13.5 -24q0 -11 -7 -20t-17 -13t-21.5 -1.5t-20.5 13.5z" />
    <glyph glyph-name="fraction" unicode="&#x2044;" 
d="M339 690q-29 -43 -58.5 -86t-58.5 -91q-72 -114 -146.5 -217.5t-156.5 -214.5q-8 -11 -19.5 -28.5t-24.5 -31t-26.5 -17t-25.5 13.5q25 46 58 86t65 82q30 42 62 82.5t61 85.5q30 45 58 91.5t56.5 92t59.5 89.5t66 84q13 0 17 -8.5t13 -12.5z" />
    <glyph glyph-name="fi" unicode="&#xfb01;" horiz-adv-x="476" 
d="M451 690q-4 -134 -10.5 -264.5t-1.5 -276.5q3 -42 5.5 -79t-7.5 -69q-6 -2 -15.5 -4.5t-13.5 4.5q-12 7 -9.5 20t2.5 24q-4 84 -4.5 168.5t-2.5 169.5q0 71 -2 141.5t5 139.5q-15 -1 -29.5 0t-27.5 1q-30 0 -59.5 3t-59.5 5t-59.5 2.5t-58.5 -4.5q1 -38 1.5 -71.5
t0.5 -66t-0.5 -66t-1.5 -70.5q32 -9 71.5 -7.5t81.5 1.5q13 0 31 2t34.5 2.5t28.5 -3.5t14 -16q1 -12 -4 -17t-13.5 -6.5t-17.5 -0.5t-16 1h-55.5t-50.5 -0.5t-50 -1.5t-54 -2q7 -76 4 -155t0 -151q0 -12 4 -25.5t-8 -21.5q-18 -3 -26 2.5t-11 15.5t-2 23.5t1 27.5
q2 37 0.5 77t-3.5 81t-4.5 82t-2.5 80q0 84 3.5 161.5t-3.5 160.5q8 5 15.5 6t16.5 4q75 -3 155.5 -6.5t155.5 -3.5q17 0 30.5 -2t22.5 -14v-1v0z" />
    <glyph glyph-name="fl" unicode="&#xfb02;" horiz-adv-x="804" 
d="M699 35q21 2 43.5 2.5t35.5 -11.5q0 -14 -9 -20.5t-21.5 -8.5t-27.5 -1t-27 1q-26 -1 -54.5 -5t-54.5 -4q-19 0 -44.5 1t-50.5 4.5t-45.5 10.5t-29.5 19q-5 5 -6.5 22t-2.5 37.5t-0.5 41.5t0.5 35q-2 59 -0.5 124t3.5 130.5t3 129t0 119.5q-17 0 -35 1.5t-32 1.5
q-30 0 -59.5 3t-59.5 5t-59.5 2.5t-58.5 -4.5q1 -38 1.5 -71.5t0.5 -66t-0.5 -66t-1.5 -70.5q32 -9 71.5 -7.5t81.5 1.5q13 0 31 2t34.5 2.5t28.5 -3.5t14 -16q1 -12 -4 -17t-13.5 -6.5t-17.5 -0.5t-16 1h-55.5t-50.5 -0.5t-50 -1.5t-54 -2q7 -76 4 -155t0 -151
q0 -12 4 -25.5t-8 -21.5q-18 -3 -26 2.5t-11 15.5t-2 23.5t1 27.5q2 37 0.5 77t-3.5 81t-4.5 82t-2.5 80q0 84 3.5 161.5t-3.5 160.5q8 5 15.5 6t16.5 4q75 -3 155.5 -6.5t155.5 -3.5h12q1 0 1.5 0.5t1.5 0.5q3 0 7.5 -0.5t9.5 -1.5t9 -2t4 -4q2 -2 2 -3l6 -6v-4
q8 -18 5.5 -40.5t-2.5 -43.5q0 -69 -3 -139.5t-5.5 -141t-2 -140.5t7.5 -138q23 -11 53.5 -14.5t63.5 -3t66 3.5t61 5z" />
    <glyph glyph-name="breve" unicode="&#x2d8;" 
d="M-50 721q13 10 26 2t21 -18q9 -11 17 -21t18 -17.5t23.5 -11.5t31.5 -3q29 2 51 17.5t34 28.5q9 9 18.5 17t18.5 8q7 -1 11.5 -6.5t5.5 -9.5q1 -7 -8 -21.5t-15 -20.5q-11 -11 -28 -23.5t-38.5 -21.5t-45.5 -13t-47 4q-5 2 -17.5 9.5t-19.5 12.5q-8 6 -19 16.5t-20.5 22
t-16 23t-5.5 20.5q0 3 1 3.5t3 2.5z" />
    <glyph glyph-name="dotaccent" unicode="&#x2d9;" 
d="M53 630q-5 27 4.5 39.5t22.5 13.5t25.5 -8t13.5 -24q0 -11 -7 -20t-17 -13t-21.5 -1.5t-20.5 13.5z" />
    <glyph glyph-name="ring" unicode="&#x2da;" 
d="M51 593q-11 13 -18.5 33t0.5 45q10 9 26.5 13t33 2.5t29.5 -9t16 -21.5q6 -32 -20.5 -48.5t-66.5 -14.5zM69 653q-4 -3 -3.5 -10t0.5 -14q14 -4 23.5 3t12.5 21q-5 4 -16.5 4t-16.5 -4z" />
    <glyph glyph-name="hungarumlaut" unicode="&#x2dd;" 
d="M81 753q8 -5 18.5 -7t12.5 -13q-7 -17 -18.5 -25t-25.5 -24q-15 -18 -27.5 -41t-25 -41t-27.5 -26t-34 4q5 19 17.5 42t30 46.5t38 45.5t41.5 39zM237 753q8 -5 18.5 -7t12.5 -13q-7 -17 -18.5 -25t-25.5 -24q-15 -18 -27.5 -41t-25 -41t-27.5 -26t-34 4q5 19 17.5 42
t30 46.5t38 45.5t41.5 39z" />
    <glyph glyph-name="ogonek" unicode="&#x2db;" horiz-adv-x="197" 
d="M128 12q18 -26 18 -70q-24 1 -44.5 -13t-31 -34.5t-8.5 -43.5t23 -39q11 -6 27.5 3t32 18t28 12t15.5 -15q2 -11 -11 -21.5t-32.5 -17.5t-40.5 -9.5t-34 3.5q-5 2 -11.5 7.5t-13.5 12.5t-12.5 14.5t-7.5 13.5q-10 22 -5.5 44t17.5 40t31.5 31t37.5 18q-1 8 -3 17.5t-1 17
t6.5 11t19.5 0.5z" />
    <glyph glyph-name="caron" unicode="&#x2c7;" 
d="M84 589q-5 2 -8 6.5t-6 8.5q-17 24 -39 47.5t-45 45.5q-8 7 -2.5 14t16.5 14q14 -14 25 -24.5t21 -20.5t20.5 -21.5t23.5 -26.5q19 13 31.5 31.5t26.5 42.5q2 3 6.5 8t10 8t11 3t10.5 -6q-38 -78 -102 -130z" />
    <glyph glyph-name="Lslash" unicode="&#x141;" horiz-adv-x="500" 
d="M119 707q4 -41 3.5 -75t-3 -67t-5 -68.5t-0.5 -78.5q28 13 54 31t51.5 37.5t51 38t53.5 32.5q20 -9 22 -17.5t-5.5 -17t-21.5 -16.5t-25 -16q-21 -14 -44 -30.5t-46 -32t-45 -30t-40 -24.5q-3 -87 -2 -175t5 -167q37 -4 71 -3t69 3.5t71.5 5.5t77.5 3q11 0 25 0.5
t26.5 -2t20.5 -9.5t7 -22q-22 -12 -51 -9t-63 2q-3 0 -14.5 -0.5t-24 -1t-23.5 -0.5h-14q-24 -2 -38.5 -3t-26.5 -1.5t-25.5 -0.5t-36.5 -1q-14 -1 -28 -2.5t-27.5 -1.5t-25.5 4t-22 15q5 77 4 161.5t0 164.5q-11 -7 -22.5 -19.5t-23 -21t-23 -7t-23.5 23.5q13 12 24 21.5
t21.5 19.5l21 20t21.5 24q-1 47 1.5 102.5t4.5 117.5q1 21 0 34t-2 22.5t-1 19t3 23.5q4 5 9.5 5.5t11.5 -2t11.5 -5.5t10.5 -4z" />
    <glyph glyph-name="dotlessi" unicode="&#x131;" horiz-adv-x="168" 
d="M67 499q6 8 18.5 13.5t26.5 -2.5q1 -71 -0.5 -136t-0.5 -141q0 -3 0.5 -22t0 -46.5t-1.5 -57.5t-5 -55.5t-10.5 -40.5t-17.5 -12q-9 3 -12.5 26t-3.5 51t1.5 53.5t1.5 33.5q2 39 2 77.5t-1 79t-1 84.5t3 95z" />
    <glyph glyph-name="lslash" unicode="&#x142;" horiz-adv-x="198" 
d="M104 715q12 -29 14 -67t0.5 -80t-3.5 -85t1 -82q7 4 18.5 13t24 16t24 8t20.5 -10q-6 -14 -17 -24t-24 -19t-25.5 -18t-20.5 -21q-1 -98 0.5 -186t6.5 -159q-17 -13 -25.5 -13.5t-11.5 7t-3 20v26.5q-1 26 -2 63t-1.5 76t-1 75t-1.5 61q-9 -3 -17 -14.5t-17 -22
t-19.5 -16.5t-22.5 2q-5 5 -4.5 8t3 5.5t6.5 5t7 5.5q6 8 14.5 18.5t17 21.5t17 21t15.5 18q-1 34 0.5 73.5t3 82t0.5 87t-8 88.5q0 2 -1 9.5t-2 9.5q10 1 18.5 0.5t15.5 -3.5z" />
    <glyph glyph-name="minus" unicode="&#x2212;" horiz-adv-x="600" 
d="M92 230q-8 6 -14 18.5t2 26.5q35 1 76.5 2.5t84.5 3.5t85.5 3.5t80.5 2.5q4 0 25 1.5t43.5 0t39 -8.5t12.5 -23q-3 -10 -11.5 -13.5t-19.5 -4t-22 1t-19 1.5q-78 2 -169.5 -6t-193.5 -6z" />
    <glyph glyph-name="Zcaron" unicode="&#x17d;" horiz-adv-x="448" 
d="M219 765q-5 2 -8 6.5t-5 9.5q-16 25 -37 49t-43 47q-8 8 -2 14.5t18 13.5q13 -15 23.5 -26t20 -22t19.5 -22.5t22 -27.5q19 12 32.5 30t29.5 42q2 3 6.5 7.5t10 7.5t11 2.5t10.5 -6.5q-21 -38 -47.5 -69.5t-60.5 -55.5zM387 696q-32 -92 -72.5 -175.5t-85 -163.5
t-90 -159t-87.5 -161q63 5 133.5 7.5t137.5 10.5q16 2 35.5 5.5t37 3.5t30.5 -6t17 -24q-12 -14 -28.5 -13t-38.5 -1q-43 -5 -96 -9t-107 -6q-33 -2 -64 -6.5t-57 -2.5q-30 2 -40 12t-7.5 25.5t12 34t18.5 37.5q30 61 66.5 121t68.5 114q49 81 88 167.5t74 164.5
q-54 -2 -110.5 -10t-122.5 -10q-12 0 -25.5 -1t-24.5 0.5t-18.5 8t-7.5 21.5q16 7 33 9.5t35.5 3t37.5 0.5t38 2q35 3 70.5 9t67.5 8q11 1 23 2.5t23 0.5t20.5 -5.5t15.5 -14.5z" />
    <glyph glyph-name="zcaron" unicode="&#x17e;" horiz-adv-x="457" 
d="M205 737q-5 2 -8 6.5t-5 9.5q-16 25 -37 49t-43 47q-8 8 -2 14.5t18 13.5q13 -15 23.5 -26t20 -22t19.5 -22.5t22 -27.5q19 12 32.5 30t29.5 42q2 3 6.5 7.5t10 7.5t11 2.5t10.5 -6.5q-21 -38 -47.5 -69.5t-60.5 -55.5zM392 696q-32 -92 -72.5 -175.5t-85 -163.5
t-90 -159t-87.5 -161q63 5 133.5 7.5t137.5 10.5q16 2 35.5 5.5t37 3.5t30.5 -6t17 -24q-12 -14 -28.5 -13t-38.5 -1q-43 -5 -96 -9t-107 -6q-33 -2 -64 -6.5t-57 -2.5q-30 2 -40 12t-7.5 25.5t12 34t18.5 37.5q30 61 66.5 121t68.5 114q49 81 88 167.5t74 164.5
q-54 -2 -110.5 -10t-122.5 -10q-12 0 -25.5 -1t-24.5 0.5t-18.5 8t-7.5 21.5q16 7 33 9.5t35.5 3t37.5 0.5t38 2q35 3 70.5 9t67.5 8q11 1 23 2.5t23 0.5t20.5 -5.5t15.5 -14.5z" />
    <glyph glyph-name="Omega" unicode="&#x3a9;" horiz-adv-x="709" 
d="M543 58q15 -3 37.5 -4t42.5 -4t31.5 -10.5t3.5 -24.5q-5 -9 -13 -10.5t-18.5 0t-22.5 4.5t-25 3t-27.5 -1t-28 -0.5t-24 4t-14.5 13.5q-2 5 1 14.5t7.5 21t10 23.5t9.5 22q10 29 20.5 63t19.5 69.5t16.5 70.5t12.5 66q4 26 3 55.5t-6.5 58t-14.5 54t-21 44.5
q-13 20 -34 41t-48 29q-29 8 -62 5.5t-64 -12t-57.5 -24t-42.5 -30.5q-26 -24 -44 -60.5t-30 -80t-17.5 -91.5t-5.5 -94q0 -69 15 -115.5t48 -84.5q3 -3 9 -8.5t12 -12t10 -14t3 -13.5q-2 -6 -10.5 -10t-19.5 -7t-23 -5t-20 -3q-14 -2 -35.5 -5.5t-42 -3t-35 8.5t-14.5 28
q13 5 30.5 6t35.5 2t34.5 2.5t29.5 7.5q-5 16 -16.5 26.5t-19.5 24.5q-14 23 -22 52.5t-11.5 62.5t-4.5 68t1 68q3 66 21 127t52.5 109.5t87 80t124.5 37.5q26 2 46.5 1t37.5 -5.5t32.5 -13t31.5 -21.5q26 -21 47.5 -53.5t35.5 -71.5t19.5 -82.5t0.5 -86.5q-6 -44 -15.5 -85
t-21 -79t-24 -74.5t-24.5 -72.5z" />
    <glyph glyph-name="Omega" unicode="&#x2126;" horiz-adv-x="709" 
d="M543 58q15 -3 37.5 -4t42.5 -4t31.5 -10.5t3.5 -24.5q-5 -9 -13 -10.5t-18.5 0t-22.5 4.5t-25 3t-27.5 -1t-28 -0.5t-24 4t-14.5 13.5q-2 5 1 14.5t7.5 21t10 23.5t9.5 22q10 29 20.5 63t19.5 69.5t16.5 70.5t12.5 66q4 26 3 55.5t-6.5 58t-14.5 54t-21 44.5
q-13 20 -34 41t-48 29q-29 8 -62 5.5t-64 -12t-57.5 -24t-42.5 -30.5q-26 -24 -44 -60.5t-30 -80t-17.5 -91.5t-5.5 -94q0 -69 15 -115.5t48 -84.5q3 -3 9 -8.5t12 -12t10 -14t3 -13.5q-2 -6 -10.5 -10t-19.5 -7t-23 -5t-20 -3q-14 -2 -35.5 -5.5t-42 -3t-35 8.5t-14.5 28
q13 5 30.5 6t35.5 2t34.5 2.5t29.5 7.5q-5 16 -16.5 26.5t-19.5 24.5q-14 23 -22 52.5t-11.5 62.5t-4.5 68t1 68q3 66 21 127t52.5 109.5t87 80t124.5 37.5q26 2 46.5 1t37.5 -5.5t32.5 -13t31.5 -21.5q26 -21 47.5 -53.5t35.5 -71.5t19.5 -82.5t0.5 -86.5q-6 -44 -15.5 -85
t-21 -79t-24 -74.5t-24.5 -72.5z" />
    <glyph glyph-name="uni03BC" horiz-adv-x="552" 
d="M110 514q-2 -47 -6.5 -93t-8 -94t-5 -98t1.5 -105q2 -26 5.5 -48.5t18.5 -39.5q30 -33 70 -53t80.5 -21.5t77.5 18t61 65.5q7 12 12 30.5t9 39.5t7.5 43t6.5 42q6 42 9 79.5t5 75t3.5 76.5t4.5 83q23 5 39 -6q10 -72 5 -141.5t-14 -138t-17 -137.5t-4 -140q-6 -3 -8.5 -5
t-3.5 -2.5t-2.5 0.5t-6.5 4q-1 19 -0.5 41.5t0.5 40.5q-13 -15 -28 -31.5t-33 -31t-40 -25.5t-50 -15q-46 -6 -76 -1t-52 17t-41 29.5t-44 36.5q-4 -27 -4.5 -53t-1.5 -51t-3 -47.5t-9 -42.5q-12 -1 -22 0t-18 6q5 66 8.5 139.5t6.5 149.5t6.5 152.5t9.5 148.5q1 12 0 27
t-1 29t2 27.5t8 22.5t21 5.5t21 -8.5z" />
    <glyph glyph-name="afii61289" unicode="&#x2113;" horiz-adv-x="437" 
d="M137 291q0 -26 3.5 -46.5t9 -39t12.5 -36t16 -37.5q11 -24 24 -47t30.5 -39.5t42 -24t59.5 1.5q6 2 17 7.5t22.5 9t20.5 2t11 -14.5q1 -6 -5 -11.5t-15 -10.5t-20 -8.5t-20 -4.5q-41 -8 -72 -1.5t-55 23.5t-41.5 42t-31.5 53q-9 18 -16 34t-13 33t-10 37.5t-7 47.5
q-8 -3 -20 -8t-23 -6.5t-20.5 1.5t-13.5 15q3 7 13 12t22 9.5t23 10t15 14.5q5 55 12 116.5t22 118.5t40 105t65 75q18 12 36 11t34 -10.5t26.5 -26t13.5 -35.5q3 -24 -3 -53.5t-17.5 -58.5t-25 -55.5t-25.5 -44.5q-32 -49 -68 -88.5t-68 -71.5zM269 701q-36 -22 -58.5 -63
t-36.5 -90t-22 -99.5t-15 -92.5q10 2 17 9t14 16t13.5 20t14.5 21q27 35 48 68t38 75q6 16 13 34.5t10 36.5t0 35.5t-16 32.5q-5 -1 -12 -1.5t-8 -1.5z" />
    <glyph glyph-name="estimated" unicode="&#x212e;" horiz-adv-x="714" 
d="M672 381q-48 -7 -103 -5t-113 5.5t-118 5t-119 -5.5q-2 -72 3 -146t4 -146q27 -18 67.5 -29.5t86 -14.5t91 2.5t81.5 20.5q9 4 21.5 14.5t25 18.5t24 9t19.5 -14q7 -12 5 -20.5t-8.5 -14.5t-16 -11t-17.5 -11q-26 -18 -52.5 -30t-55 -17.5t-61 -5.5t-69.5 5
q-34 5 -74.5 14t-66.5 20q-54 23 -90.5 63t-63.5 92q-25 67 -30 135t8 129.5t43.5 114t76.5 88t107.5 51t135.5 4.5q58 -8 106.5 -35t83 -69t53 -97t16.5 -120zM226 620q-2 -17 -4 -40t-3.5 -48.5t-1.5 -53t2 -53.5q27 -2 56 -0.5t60.5 3t65 2.5t67.5 -2q-1 27 0 54.5
t1.5 55t-0.5 54t-5 51.5q-28 10 -61.5 12.5t-66.5 -1t-62 -12.5t-48 -22z" />
    <glyph glyph-name="uni2219" unicode="&#x2219;" horiz-adv-x="278" 
d="M142 364q9 0 18.5 -4.5t16 -13t9 -20.5t-2.5 -26q-2 -8 -14 -16.5t-20 -10.5q-14 -3 -25.5 1.5t-19 12.5t-10 19.5t0.5 23.5q3 14 16 24t31 10z" />
    <glyph glyph-name="lozenge" unicode="&#x25ca;" horiz-adv-x="698" 
d="M28 336q51 84 114.5 165.5t130.5 161.5q6 7 11.5 15.5t11.5 15.5t13.5 11t18.5 3q7 -1 15 -8t16 -16.5t15.5 -19.5t13.5 -17q17 -19 34 -31.5t30 -25.5q35 -38 66.5 -84t66.5 -88q5 -6 15 -14t20 -16.5t17.5 -17t7.5 -16.5q1 -13 -11 -21t-22 -18q-14 -14 -27 -35
t-28 -41t-30.5 -37.5t-26.5 -31.5q-7 -10 -10.5 -21.5t-10.5 -21.5q-5 -6 -11 -9t-13 -12q-11 -14 -21.5 -33t-24.5 -36q-6 -8 -12.5 -18t-13.5 -19t-13.5 -16t-11.5 -8q-12 -2 -21 4t-16 15t-13 19.5t-11 16.5q-63 77 -133 154t-136 151zM328 657q-65 -78 -126.5 -157
t-118.5 -164q69 -72 133 -149t133 -150q33 37 63 78t58.5 83t58 83t62.5 79q-35 35 -65.5 74.5t-61.5 78.5t-64 76t-72 68z" />
    <glyph glyph-name="uni02C9" unicode="&#x2c9;" 
d="M-26 620q-8 6 -14 18.5t2 26.5q23 1 35.5 1h19.5h11.5h12.5h21.5t38.5 1q4 0 25 1.5t43.5 0t39 -8.5t12.5 -23q-3 -10 -11.5 -13.5t-19.5 -4t-22 1t-19 1.5q-26 1 -39.5 1t-22 -0.5t-14.5 -1.5t-17 -1.5t-29.5 -0.5t-52.5 1z" />
    <glyph glyph-name="uni2215" unicode="&#x2215;" 
d="M351 693q-29 -43 -58.5 -86t-58.5 -91q-72 -114 -146.5 -217.5t-156.5 -214.5q-8 -11 -19.5 -28.5t-24.5 -31t-26.5 -17t-25.5 13.5q25 46 58 86t65 82q30 42 62 82.5t61 85.5q30 45 58 91.5t56.5 92t59.5 89.5t66 84q13 0 17 -8.5t13 -12.5z" />
    <glyph glyph-name="f_i" horiz-adv-x="497" 
d="M451 690q-4 -134 -10.5 -264.5t-1.5 -276.5q3 -42 5.5 -79t-7.5 -69q-6 -2 -15.5 -4.5t-13.5 4.5q-12 7 -9.5 20t2.5 24q-4 84 -4.5 168.5t-2.5 169.5q0 71 -2 141.5t5 139.5q-15 -1 -29.5 0t-27.5 1q-30 0 -59.5 3t-59.5 5t-59.5 2.5t-58.5 -4.5q1 -38 1.5 -71.5
t0.5 -66t-0.5 -66t-1.5 -70.5q32 -9 71.5 -7.5t81.5 1.5q13 0 31 2t34.5 2.5t28.5 -3.5t14 -16q1 -12 -4 -17t-13.5 -6.5t-17.5 -0.5t-16 1h-55.5t-50.5 -0.5t-50 -1.5t-54 -2q7 -76 4 -155t0 -151q0 -12 4 -25.5t-8 -21.5q-18 -3 -26 2.5t-11 15.5t-2 23.5t1 27.5
q2 37 0.5 77t-3.5 81t-4.5 82t-2.5 80q0 84 3.5 161.5t-3.5 160.5q8 5 15.5 6t16.5 4q75 -3 155.5 -6.5t155.5 -3.5q17 0 30.5 -2t22.5 -14v-1v0z" />
    <glyph glyph-name="f_l" horiz-adv-x="791" 
d="M699 35q21 2 43.5 2.5t35.5 -11.5q0 -14 -9 -20.5t-21.5 -8.5t-27.5 -1t-27 1q-26 -1 -54.5 -5t-54.5 -4q-19 0 -44.5 1t-50.5 4.5t-45.5 10.5t-29.5 19q-5 5 -6.5 22t-2.5 37.5t-0.5 41.5t0.5 35q-2 59 -0.5 124t3.5 130.5t3 129t0 119.5q-17 0 -35 1.5t-32 1.5
q-30 0 -59.5 3t-59.5 5t-59.5 2.5t-58.5 -4.5q1 -38 1.5 -71.5t0.5 -66t-0.5 -66t-1.5 -70.5q32 -9 71.5 -7.5t81.5 1.5q13 0 31 2t34.5 2.5t28.5 -3.5t14 -16q1 -12 -4 -17t-13.5 -6.5t-17.5 -0.5t-16 1h-55.5t-50.5 -0.5t-50 -1.5t-54 -2q7 -76 4 -155t0 -151
q0 -12 4 -25.5t-8 -21.5q-18 -3 -26 2.5t-11 15.5t-2 23.5t1 27.5q2 37 0.5 77t-3.5 81t-4.5 82t-2.5 80q0 84 3.5 161.5t-3.5 160.5q8 5 15.5 6t16.5 4q75 -3 155.5 -6.5t155.5 -3.5h12q1 0 1.5 0.5t1.5 0.5q3 0 7.5 -0.5t9.5 -1.5t9 -2t4 -4q2 -2 2 -3l6 -6v-4
q8 -18 5.5 -40.5t-2.5 -43.5q0 -69 -3 -139.5t-5.5 -141t-2 -140.5t7.5 -138q23 -11 53.5 -14.5t63.5 -3t66 3.5t61 5z" />
    <glyph glyph-name="a.superior" horiz-adv-x="220" 
d="M280 396q-10 -7 -19 -6.5t-17 5.5t-14.5 12t-12.5 13q-16 -10 -43.5 -15.5t-56.5 -5t-54 7t-35 21.5q-23 31 -13 64t39 57.5t69.5 34.5t78.5 -5q1 9 -3.5 20.5t-10 23.5l-11 24t-7.5 22q-26 6 -41 -1.5t-26 -19.5t-23 -23t-33 -11q-4 6 -7.5 11t-8.5 10q9 19 25.5 35.5
t38.5 26t48 11.5t55 -7q5 -12 14.5 -33t19.5 -45t18 -48.5t11 -43.5q2 -17 -2.5 -35.5t-1.5 -36.5q2 -9 7 -16t9.5 -14.5t7 -15.5t-0.5 -17zM58 453q17 -7 40 -9t46 1t42.5 10t29.5 17q-3 10 -3.5 16t0.5 11.5t2 12.5t1 18q-20 16 -48.5 18.5t-54 -8t-42.5 -32.5t-13 -55z
" />
    <glyph glyph-name="o.superior" horiz-adv-x="334" 
d="M146 699q3 3 11 4.5t16 1t16 -2t11 -3.5q58 -29 90.5 -79.5t24.5 -117.5q-3 -33 -25.5 -60.5t-54 -44t-69 -21t-70.5 9.5q-32 13 -48.5 39t-20.5 58.5t3.5 67.5t23.5 65.5t39.5 53t52.5 29.5zM69 497q3 -27 16 -42.5t31 -22.5t39 -6.5t40.5 6.5t35.5 15.5t23 19.5
q18 27 16 60.5t-18 61.5t-41.5 45t-54.5 10q-17 -5 -34 -21.5t-29.5 -38t-19.5 -45t-4 -42.5z" />
    <glyph glyph-name="one.superior" horiz-adv-x="256" 
d="M180 704q2 -13 3 -50.5t2 -85.5t1 -100t0.5 -93.5t0.5 -65.5t0 -17q-16 -4 -23 2t-17 9q-6 82 -4.5 161.5t-2.5 170.5q-11 3 -19.5 -5.5t-17.5 -20t-19.5 -20.5t-23.5 -8q-12 0 -20.5 5t-9.5 16q0 4 16 20.5t36.5 35t39.5 33.5t25 16q8 3 18 2t15 -5z" />
    <glyph glyph-name="two.superior" horiz-adv-x="250" 
d="M78 360q12 -5 38.5 -4t54 1t49 -4.5t22.5 -18.5q1 -15 -14 -21t-35.5 -7t-41.5 1t-30 4q-17 3 -35 2t-33 0t-24.5 7t-7.5 23q4 36 22.5 69t40 66t40.5 67.5t24 73.5q2 17 -0.5 26t-8 14t-12.5 8t-13 9q-23 1 -33.5 -6.5t-17 -14.5t-13 -9.5t-21.5 9.5q4 26 24 40
t44.5 17.5t47.5 -3t34 -22.5q14 -22 11 -53t-10 -60q-8 -30 -22 -59.5t-30 -56.5t-30 -52t-20 -46z" />
    <glyph glyph-name="three.superior" horiz-adv-x="318" 
d="M171 524q39 2 64 -16.5t36 -48t8.5 -63.5t-18 -61.5t-44.5 -43t-71 -7.5q-10 8 -22 14t-23.5 12.5t-20.5 15.5t-14 22q15 7 28 5t24 -8t21.5 -13.5t20.5 -11t21.5 -0.5t24.5 18q12 12 19.5 35t8 46.5t-7 42t-26.5 23.5q-20 6 -36 2t-29.5 -6.5t-24.5 1.5t-20 26
q13 22 30 40t35.5 35t36 34.5t32.5 37.5q-18 4 -39 4.5t-42.5 -0.5t-41.5 -1.5t-36 2.5t-25.5 12t-9.5 26q12 3 32.5 4.5t45.5 1.5t51 -1.5t47 -4.5q13 -2 27.5 -5t27.5 -8t22 -11t11 -12q1 -9 -6.5 -18.5t-18 -19t-21.5 -17.5t-17 -13q-20 -20 -33 -35t-27 -35z" />
    <glyph glyph-name="uni2010" unicode="&#x2010;" horiz-adv-x="352" 
d="M279 296q2 -8 7.5 -17.5t-1.5 -18.5q-16 -7 -30.5 -3t-35.5 3q-24 -1 -49 -7.5t-47 -9t-37.5 3t-19.5 28.5q17 9 43 15t55 8.5t59 2t56 -4.5z" />
    <glyph glyph-name="glyph248" horiz-adv-x="402" 
d="M308 361q2 -8 9.5 -10.5t11.5 -10.5q1 -6 -1 -8.5t-5 -5t-5 -5t-1 -8.5q15 -63 33.5 -126t38.5 -123q6 -19 13 -39t2 -39q-9 -5 -19 -3t-20 3q-26 82 -50.5 164t-45.5 169q-35 3 -76 0t-74 -9q-10 -29 -19.5 -62t-18.5 -67.5t-19 -69t-21 -65.5q-3 -8 -6.5 -19.5
t-8.5 -20.5t-14 -12.5t-22 4.5q-1 23 9.5 43.5t17.5 43.5q39 139 72 277t81 275q8 23 17.5 47t18.5 37q13 9 22.5 3t16 -19.5t11 -31t7.5 -30.5q7 -33 12.5 -70.5l11 -75t10.5 -73t11 -63.5zM128 349q32 2 64.5 4.5t67.5 1.5q-9 73 -18.5 144t-26.5 135q-26 -67 -45.5 -140
t-41.5 -145z" />
    <glyph glyph-name="notequal" unicode="&#x2260;" horiz-adv-x="500" 
 />
    <glyph glyph-name="partialdiff" unicode="&#x2202;" horiz-adv-x="505" 
d="M402 385q-11 40 -26.5 84t-37.5 83t-50.5 70.5t-66.5 46.5q-11 4 -29 6.5t-34.5 7t-27 13t-6.5 25.5q28 4 57.5 -2t57.5 -19t51.5 -30.5t39.5 -36.5q27 -32 56 -79.5t46 -95.5q23 -65 28 -124t-12 -130q-9 -35 -26 -72t-41 -68t-55.5 -52t-68.5 -23q-21 -1 -42 4
t-40 13.5t-35 19t-28 20.5q-28 26 -50 66t-17 98q2 22 10.5 47.5t20 49.5t26 44t28.5 31q22 16 57 27.5t74 14.5t76.5 -6t64.5 -33zM160 349q-16 -14 -31.5 -41.5t-25 -60.5t-10.5 -68t13 -63q7 -16 22.5 -32.5t35.5 -29.5t43.5 -20.5t46.5 -5.5q11 2 32 12.5t35 24.5
q14 13 28.5 34t26.5 45t19.5 48.5t6.5 44.5q0 8 -5 18.5t-7 20.5q-3 17 -3.5 33.5t-5.5 27.5q-7 18 -18.5 28t-27.5 14t-36.5 3.5t-44.5 -3.5q-28 -3 -51 -8t-43 -22z" />
    <glyph glyph-name="summation" unicode="&#x2211;" horiz-adv-x="478" 
d="M119 662q51 -67 101.5 -132t113.5 -128q8 -9 20.5 -19t23.5 -21t19.5 -22.5t8.5 -22.5q1 -13 -7.5 -28.5t-19.5 -31t-23 -29.5t-19 -23q-60 -76 -122.5 -146.5t-131.5 -134.5q33 -12 71 -15t78.5 -3t81 1t77.5 -1q11 -1 23 -4t20 -11q-6 -17 -20.5 -23t-32 -7t-36.5 2
t-35 4q-34 2 -69 0t-67 0q-43 2 -85.5 7t-75.5 23q6 18 15.5 32t21.5 27t24.5 24t23.5 23q46 46 89.5 95.5t85.5 106.5q7 10 20.5 24t26.5 29.5t22.5 30t9.5 25.5q0 6 -8 16.5t-18.5 21.5t-20.5 21.5t-16 16.5l-36.5 36.5t-30.5 32.5q-34 39 -63.5 79.5t-57.5 72.5
q-8 9 -19 18t-21 18t-17.5 19.5t-8.5 22.5q9 10 22.5 13.5t29 4.5t32 0t30.5 0q27 1 54 0l54 -2t52.5 -0.5t48.5 5.5q8 -6 23 -7t29.5 -2.5t25 -5.5t10.5 -15q0 -10 -11.5 -14.5t-21.5 -6.5q-29 -4 -68 -2t-80 5t-79.5 4t-66.5 -4z" />
    <glyph glyph-name="product" unicode="&#x220f;" horiz-adv-x="683" 
d="M658 655q-7 -6 -18.5 -8.5t-25 -3.5t-28 -1.5t-27.5 -1.5q3 -68 1 -150.5t-5.5 -170l-7 -175t-3.5 -165.5q0 -20 2 -41t-9 -38q-3 -4 -10 -3.5t-14 0.5q-14 17 -14.5 39.5t-0.5 42.5q0 67 3.5 149.5t7.5 170t5.5 174.5t-4.5 164q-73 2 -147 3t-149 9q-5 -65 -6.5 -142
t-1 -158t2.5 -160t5 -147q1 -17 3.5 -34.5t4 -34.5t0.5 -34t-8 -33q-6 2 -15.5 0t-11.5 3q-11 16 -11 36t-1 40q-6 75 -8.5 160.5t-3.5 173t-1 172v158.5q-10 4 -25 4t-32.5 -1.5t-35 -2t-31 2.5t-20.5 11.5t-4 25.5q63 7 130.5 6t138.5 -5t145 -6.5t149 2.5q11 1 26.5 3.5
t29 2t21.5 -8.5t4 -28z" />
    <glyph glyph-name="pi" unicode="&#x3c0;" horiz-adv-x="657" 
d="M644 494q-20 -14 -45.5 -15.5t-53.5 -2.5q0 -54 -3.5 -112t-8 -117.5t-8 -118.5t-2.5 -115q1 -20 4.5 -41t-7.5 -40q-6 -4 -11.5 -3t-10 4t-9 7t-8.5 7q-1 67 1 130.5t5 127.5t6.5 129t5.5 136q-65 -2 -138.5 2t-139.5 1q-6 -67 -7 -137.5t-6 -136.5t-19.5 -125
t-46.5 -103q-24 -13 -50.5 -10.5t-47 16t-31.5 35t-4 47.5q13 -5 21 -15t15 -20.5t16 -19.5t24 -12q14 5 24 15t17.5 23.5t12.5 28.5t9 30q11 40 15 86.5t5.5 96t2.5 99t5 96.5q-17 0 -38.5 -3t-40 -2t-30.5 9.5t-12 31.5q6 5 12.5 6.5t14 1.5t15.5 -1t15 -1q26 2 53 6t56 6
q50 3 106.5 -2t114.5 -4q25 0 50 3.5t49 6.5t47.5 3.5t46.5 -4.5q2 -8 4.5 -15t4.5 -15z" />
    <glyph glyph-name="integral" unicode="&#x222b;" horiz-adv-x="327" 
d="M287 789q-8 -7 -14 -4.5t-12.5 8t-13.5 10.5t-15 4q-15 -2 -23.5 -29t-13 -62.5t-5.5 -71.5t-2 -57q-1 -24 -2.5 -72.5t-3 -110t-3 -129t-3 -128t-3 -107.5t-2.5 -67q-4 -48 -21.5 -86t-41.5 -56q-18 -1 -35 4.5t-28 16t-14 23.5t7 27q9 4 15.5 1t11 -9t8.5 -13.5
t8 -12.5q16 7 26.5 30.5t16.5 56.5t8.5 73t3 79.5t-0.5 75.5t-2 62q-1 30 -1.5 80.5t0 110t3.5 122t8.5 116.5t14 93.5t21.5 53.5q12 13 31 16.5t36.5 -1t29.5 -16.5t11 -31z" />
    <glyph glyph-name="uni03A9" horiz-adv-x="733" 
d="M543 58q15 -3 37.5 -4t42.5 -4t31.5 -10.5t3.5 -24.5q-5 -9 -13 -10.5t-18.5 0t-22.5 4.5t-25 3t-27.5 -1t-28 -0.5t-24 4t-14.5 13.5q-2 5 1 14.5t7.5 21t10 23.5t9.5 22q10 29 20.5 63t19.5 69.5t16.5 70.5t12.5 66q4 26 3 55.5t-6.5 58t-14.5 54t-21 44.5
q-13 20 -34 41t-48 29q-29 8 -62 5.5t-64 -12t-57.5 -24t-42.5 -30.5q-26 -24 -44 -60.5t-30 -80t-17.5 -91.5t-5.5 -94q0 -69 15 -115.5t48 -84.5q3 -3 9 -8.5t12 -12t10 -14t3 -13.5q-2 -6 -10.5 -10t-19.5 -7t-23 -5t-20 -3q-14 -2 -35.5 -5.5t-42 -3t-35 8.5t-14.5 28
q13 5 30.5 6t35.5 2t34.5 2.5t29.5 7.5q-5 16 -16.5 26.5t-19.5 24.5q-14 23 -22 52.5t-11.5 62.5t-4.5 68t1 68q3 66 21 127t52.5 109.5t87 80t124.5 37.5q26 2 46.5 1t37.5 -5.5t32.5 -13t31.5 -21.5q26 -21 47.5 -53.5t35.5 -71.5t19.5 -82.5t0.5 -86.5q-6 -44 -15.5 -85
t-21 -79t-24 -74.5t-24.5 -72.5z" />
    <glyph glyph-name="radical" unicode="&#x221a;" horiz-adv-x="702" 
d="M350 -124q-15 3 -25 11.5t-18 20t-15 24t-14 23.5q-23 32 -42.5 68t-38 73t-38 73.5t-41.5 69.5q-14 -2 -30.5 -3.5t-31 0.5t-24.5 9t-11 21q3 7 10 9.5t15.5 3t17.5 -0.5t17 0q14 2 24.5 5t18.5 1q16 -3 32 -24t29.5 -47t24.5 -52t19 -40q29 -51 50.5 -93t49.5 -73
q94 200 171.5 417.5t152.5 437.5q7 5 15 5t14 -3.5t10.5 -9.5t5.5 -13q2 -12 -7 -30.5t-17 -38.5q-7 -17 -15 -34.5t-12 -32.5q-11 -42 -25 -92t-33 -98q-5 -14 -13.5 -26t-13.5 -26q-8 -22 -12 -43.5t-12 -43.5q-30 -76 -65.5 -157.5t-64.5 -160.5q-8 -23 -19.5 -42
t-19.5 -40q-3 -8 -4 -14.5t-2 -12t-3.5 -10.5t-9.5 -11z" />
    <glyph glyph-name="approxequal" unicode="&#x2248;" horiz-adv-x="668" 
d="M176 458q15 1 29 -3t28 -10.5t27.5 -14.5t27.5 -15q20 -10 44.5 -22t51.5 -19.5t55.5 -7t57.5 14.5q4 2 11 7t15 10t14.5 10t8.5 7q17 11 31.5 12.5t15.5 -18.5q0 -9 -17.5 -24t-41 -29.5t-46.5 -25.5t-32 -12q-32 -4 -59 2t-50.5 16.5t-45 24t-43.5 24t-45 16.5t-50 2
q-11 -2 -27 -6t-28 -10q-6 -3 -16.5 -11.5t-21.5 -15t-20.5 -6t-12.5 15.5q-2 12 11 26t31 25.5t35.5 19.5t25.5 10q2 0 7.5 1.5t11.5 2.5t11 2t6 1zM619 230q-15 -20 -35 -40.5t-44 -38t-52.5 -28.5t-61.5 -11q-36 0 -67.5 18t-63 37t-66 29.5t-76.5 -5.5
q-11 -5 -23.5 -11.5t-24.5 -13.5q-6 -4 -16 -10.5t-20 -10t-17 -0.5t-6 18q0 13 15 27.5t35 26t42 19t36 8.5q36 3 64 -5t52 -21t46 -26.5t47 -22.5q30 -11 60 -7t57 17t49 31t36 36q11 5 21.5 0t12.5 -16z" />
    <glyph glyph-name="Delta" unicode="&#x394;" horiz-adv-x="687" 
d="M657 11q-18 -7 -38 -8.5t-40.5 -0.5t-42 3t-42.5 3q-45 2 -88.5 0.5t-87.5 2.5q-48 5 -95 10.5t-86 4.5q-11 0 -29.5 -3t-37 -3.5t-33.5 3t-18 15.5q-2 6 1 17.5t8 24t11 25.5t10 24q42 108 80.5 216t85.5 211q20 42 41 83.5t35 79.5q25 5 43.5 -11t32.5 -42t24.5 -56
t20.5 -51q43 -95 90.5 -203t93.5 -209q8 -17 15.5 -34.5t15.5 -34.5q4 -8 10 -16t11 -16t7.5 -16.5t1.5 -18.5zM79 69q70 -1 133 -4.5t124 -7l122 -7t129 -3.5q-32 73 -63.5 150.5t-64.5 155t-68 153t-73 146.5q0 4 -3 3q-69 -138 -127.5 -283.5t-108.5 -302.5z" />
    <glyph glyph-name="Delta" unicode="&#x2206;" horiz-adv-x="687" 
d="M657 11q-18 -7 -38 -8.5t-40.5 -0.5t-42 3t-42.5 3q-45 2 -88.5 0.5t-87.5 2.5q-48 5 -95 10.5t-86 4.5q-11 0 -29.5 -3t-37 -3.5t-33.5 3t-18 15.5q-2 6 1 17.5t8 24t11 25.5t10 24q42 108 80.5 216t85.5 211q20 42 41 83.5t35 79.5q25 5 43.5 -11t32.5 -42t24.5 -56
t20.5 -51q43 -95 90.5 -203t93.5 -209q8 -17 15.5 -34.5t15.5 -34.5q4 -8 10 -16t11 -16t7.5 -16.5t1.5 -18.5zM79 69q70 -1 133 -4.5t124 -7l122 -7t129 -3.5q-32 73 -63.5 150.5t-64.5 155t-68 153t-73 146.5q0 4 -3 3q-69 -138 -127.5 -283.5t-108.5 -302.5z" />
    <glyph glyph-name="infinity" unicode="&#x221e;" horiz-adv-x="665" 
d="M334 281q-32 -26 -58 -54t-65 -51q-18 -11 -40.5 -13t-44 3t-39 17t-26.5 29q-15 29 -11.5 60.5t18.5 58.5t38 47t48 26q29 7 53 2t44.5 -16t39 -24t37.5 -22q19 11 42 28t49 30.5t56 18.5t63 -8q22 -9 39 -29t27 -45t11.5 -52t-8.5 -51q-6 -14 -18.5 -26t-28 -21.5
t-32.5 -16t-32 -8.5q-32 -5 -56.5 5t-44 28t-34 40.5t-27.5 43.5zM484 200q13 2 28 8.5t27.5 16t22 22.5t12.5 28q2 14 -0.5 30.5t-8.5 31.5t-16 27t-23 16q-27 7 -51.5 -0.5t-46 -21t-39 -27.5t-31.5 -20q12 -16 22 -37t23 -39t32 -28.5t49 -6.5zM238 251q3 3 13.5 12.5
t22 21t21 22t9.5 13.5q-2 8 -18 13.5t-27 10.5q-14 8 -24.5 16.5t-20.5 10.5q-28 6 -54 -7t-43.5 -36.5t-24 -53t4.5 -56.5q16 -17 34.5 -19t37 5.5t36.5 20.5t33 26z" />
    <glyph glyph-name="lessequal" unicode="&#x2264;" horiz-adv-x="506" 
d="M437 444q-72 -37 -144 -72.5t-143 -73.5q25 -15 54.5 -28t60.5 -26t62.5 -26.5t60.5 -27.5q8 -4 19 -8.5t19.5 -11t11.5 -16t-4 -22.5q-11 -5 -20.5 -3t-18.5 6.5t-17 10.5t-17 10q-68 31 -137.5 58.5t-137.5 59.5q-6 11 -14 19.5t-10 23.5q33 21 75.5 41t87.5 40
t90.5 38t79.5 38q5 3 13 2.5t15 -4.5t11.5 -11t2.5 -17zM65 23q0 4 -2.5 7.5t-4.5 7.5t-2.5 7.5t3.5 7.5q15 14 35 11t40 -4q36 -2 77 -1t80.5 3t75 3.5t61.5 0.5q6 0 15 -0.5t16.5 -2.5t12 -7.5t1.5 -17.5q-2 -10 -20.5 -14.5t-42 -6t-45.5 -1t-31 0.5q-72 -4 -136.5 -3
t-132.5 9z" />
    <glyph glyph-name="greaterequal" unicode="&#x2265;" horiz-adv-x="530" 
d="M488 259q-69 -14 -150 -41l-159 -53q-9 -3 -22.5 -9t-28.5 -12t-29 -10t-23 -2q-8 2 -15.5 12t-5.5 18q1 8 12.5 14t26 10.5t28 7.5t18.5 5q69 23 132.5 46t133.5 41q-9 9 -20 14.5t-23 8.5l-24 6t-24 8q-60 25 -115.5 60t-114.5 61q-1 4 -3 10.5t-2.5 12.5t1 11.5
t7.5 7.5q36 -16 76 -35.5t81 -39.5t82.5 -40.5t81.5 -38.5q11 -5 26 -10t28 -13t20.5 -19.5t4.5 -30.5zM445 72q0 -10 4.5 -14.5t1.5 -16.5q-6 -8 -14.5 -10.5t-19 -2.5t-21.5 1t-23 0q-16 -1 -34.5 -5.5t-38.5 -6.5q-43 -2 -87.5 -2t-78.5 -1q-15 0 -30.5 -2.5t-29 -2
t-22.5 6t-9 22.5q0 10 16 13.5t37.5 3.5t44 -1t35.5 -1q34 1 70 5t70.5 7.5t67.5 5.5t61 1z" />
    </font>
</defs>
</svg>
